<svg width="569" height="569" viewBox="0 0 569 569" fill="none" xmlns="http://www.w3.org/2000/svg">
<g filter="url(#filter0_d_5315_39206)">
<g filter="url(#filter1_g_5315_39206)">
<path d="M362.324 415.721C368.365 419.525 376.126 419.429 381.841 415.148C424.4 383.265 450.613 331.293 447.083 274.248C441.296 180.74 357.949 110.482 263.537 122.222C181.504 132.422 120.604 201.402 120.598 284.066C120.594 338.141 146.528 385.249 186.012 414.879C191.812 419.232 199.637 419.517 205.776 415.655C228.455 401.388 255.228 393.054 284.001 393.054C312.816 393.054 339.624 401.414 362.324 415.721ZM284.001 349.853C243.568 349.853 210.79 317.075 210.79 276.642C210.79 236.209 243.568 203.433 284.001 203.433C324.432 203.433 357.212 236.209 357.212 276.642C357.212 317.075 324.432 349.853 284.001 349.853Z" fill="#FAFAFA"/>
</g>
</g>
<g filter="url(#filter2_f_5315_39206)">
<path fill-rule="evenodd" clip-rule="evenodd" d="M203.853 426.224C197.461 425.185 188.878 425.168 182.206 426.293C131.28 434.777 94.0182 449.14 89.5668 464.235C82.7046 488.751 188.238 508.821 317.269 507.373C423.003 504.647 488.704 485.702 478.14 462.991C472.348 448.1 441.679 435.152 397.185 426.991C390.673 425.799 382.24 425.713 375.808 426.77C351.69 430.654 322.361 432.903 290.291 432.818C258 432.682 228.261 430.245 203.853 426.224ZM290.121 444.625C336.435 444.778 375.308 453.842 377.448 464.967C379.639 476.093 340.767 485.054 289.95 484.85C237.904 484.271 197.451 474.832 200.172 463.894C202.913 452.956 243.296 444.369 290.121 444.625Z" fill="url(#paint0_linear_5315_39206)"/>
</g>
<path d="M362.324 415.168C368.365 418.973 376.126 418.876 381.841 414.595C424.4 382.712 450.613 330.74 447.083 273.696C441.296 180.187 357.949 109.93 263.537 121.669C181.504 131.869 120.604 200.849 120.598 283.513C120.594 337.588 146.528 384.696 186.012 414.327C191.812 418.68 199.637 418.964 205.776 415.102C228.455 400.835 255.228 392.501 284.001 392.501C312.816 392.501 339.624 400.862 362.324 415.168ZM284.001 349.3C243.568 349.3 210.79 316.522 210.79 276.089C210.79 235.656 243.568 202.88 284.001 202.88C324.432 202.88 357.212 235.657 357.212 276.089C357.212 316.522 324.432 349.3 284.001 349.3Z" fill="#FAFAFA"/>
<defs>
<filter id="filter0_d_5315_39206" x="40.5977" y="55.939" width="486.803" height="457.533" filterUnits="userSpaceOnUse" color-interpolation-filters="sRGB">
<feFlood flood-opacity="0" result="BackgroundImageFix"/>
<feColorMatrix in="SourceAlpha" type="matrix" values="0 0 0 0 0 0 0 0 0 0 0 0 0 0 0 0 0 0 127 0" result="hardAlpha"/>
<feOffset dy="15"/>
<feGaussianBlur stdDeviation="40"/>
<feComposite in2="hardAlpha" operator="out"/>
<feColorMatrix type="matrix" values="0 0 0 0 1 0 0 0 0 1 0 0 0 0 1 0 0 0 0.25 0"/>
<feBlend mode="normal" in2="BackgroundImageFix" result="effect1_dropShadow_5315_39206"/>
<feBlend mode="normal" in="SourceGraphic" in2="effect1_dropShadow_5315_39206" result="shape"/>
</filter>
<filter id="filter1_g_5315_39206" x="20.5977" y="20.939" width="526.803" height="497.533" filterUnits="userSpaceOnUse" color-interpolation-filters="sRGB">
<feFlood flood-opacity="0" result="BackgroundImageFix"/>
<feBlend mode="normal" in="SourceGraphic" in2="BackgroundImageFix" result="shape"/>
<feTurbulence type="fractalNoise" baseFrequency="0.99900001287460327 0.99900001287460327" numOctaves="3" seed="938" />
<feDisplacementMap in="shape" scale="200" xChannelSelector="R" yChannelSelector="G" result="displacedImage" width="100%" height="100%" />
<feMerge result="effect1_texture_5315_39206">
<feMergeNode in="displacedImage"/>
</feMerge>
</filter>
<filter id="filter2_f_5315_39206" x="69.95" y="406.147" width="428.6" height="120.6" filterUnits="userSpaceOnUse" color-interpolation-filters="sRGB">
<feFlood flood-opacity="0" result="BackgroundImageFix"/>
<feBlend mode="normal" in="SourceGraphic" in2="BackgroundImageFix" result="shape"/>
<feGaussianBlur stdDeviation="9.65" result="effect1_foregroundBlur_5315_39206"/>
</filter>
<linearGradient id="paint0_linear_5315_39206" x1="284.25" y1="425.447" x2="284.25" y2="507.447" gradientUnits="userSpaceOnUse">
<stop stop-color="#0F1212"/>
<stop offset="0.788462" stop-color="#232323"/>
<stop offset="1" stop-color="#212121"/>
</linearGradient>
</defs>
</svg>
