<svg width="360" height="238" viewBox="0 0 360 238" fill="none" xmlns="http://www.w3.org/2000/svg">
<path d="M12.7361 62.216C12.3521 63.752 12.1814 64.904 12.2241 65.672C12.2667 66.44 12.6294 66.952 13.3121 67.208C13.9947 67.464 15.0614 67.6347 16.5121 67.72L16.2561 69C15.2747 68.9147 14.0374 68.872 12.5441 68.872C11.0934 68.8293 9.62139 68.808 8.12806 68.808C6.46406 68.808 4.92806 68.8293 3.52006 68.872C2.11206 68.872 0.938727 68.9147 6.05583e-05 69L0.32006 67.72C1.72806 67.6347 2.81606 67.464 3.58406 67.208C4.39473 66.952 5.03473 66.44 5.50406 65.672C5.97339 64.904 6.40006 63.752 6.78406 62.216L15.2321 30.472C15.6587 28.8933 15.8294 27.7413 15.7441 27.016C15.6587 26.248 15.2747 25.736 14.5921 25.48C13.9521 25.1813 12.9067 25.0107 11.4561 24.968L11.7761 23.688C12.6294 23.7307 13.7814 23.7733 15.2321 23.816C16.6827 23.8587 18.2401 23.88 19.9041 23.88C21.3974 23.88 22.8694 23.8587 24.3201 23.816C25.8134 23.7733 27.0721 23.7307 28.0961 23.688L27.7761 24.968C26.3254 25.0107 25.1947 25.1813 24.3841 25.48C23.5734 25.736 22.9334 26.248 22.4641 27.016C22.0374 27.7413 21.6107 28.8933 21.1841 30.472L12.7361 62.216Z" fill="#00C4C6"/>
<path d="M31.2951 69H25.7271L33.4071 41.544C33.5777 41.032 33.7057 40.4773 33.7911 39.88C33.9191 39.24 33.8977 38.7067 33.7271 38.28C33.5564 37.8107 33.1297 37.576 32.4471 37.576C31.5084 37.576 30.6764 38.0453 29.9511 38.984C29.2257 39.88 28.4151 41.5867 27.5191 44.104L26.6871 46.472H25.4711L27.0711 41.8C28.0097 39.112 29.1617 37.3413 30.5271 36.488C31.9351 35.6347 33.3217 35.208 34.6871 35.208C35.9671 35.208 36.8844 35.4853 37.4391 36.04C38.0364 36.5947 38.3564 37.32 38.3991 38.216C38.4844 39.0693 38.4204 40.0293 38.2071 41.096C38.0364 42.12 37.8231 43.144 37.5671 44.168L31.2951 69ZM34.2391 55.688C35.7324 51.848 37.1831 48.6267 38.5911 46.024C39.9991 43.4213 41.3857 41.3307 42.7511 39.752C44.1164 38.1307 45.5031 36.9787 46.9111 36.296C48.3617 35.5707 49.8551 35.208 51.3911 35.208C53.3964 35.208 54.7617 35.6987 55.4871 36.68C56.2551 37.6187 56.5964 38.8347 56.5111 40.328C56.4257 41.7787 56.1271 43.2933 55.6151 44.872L49.4071 63.56C49.0231 64.712 48.8524 65.672 48.8951 66.44C48.9804 67.1653 49.4924 67.528 50.4311 67.528C51.2417 67.528 52.0311 67.08 52.7991 66.184C53.6097 65.288 54.4631 63.56 55.3591 61L56.1911 58.632H57.4071L55.8071 63.304C55.2097 65.096 54.4631 66.4613 53.5671 67.4C52.7137 68.3387 51.7964 68.9787 50.8151 69.32C49.8764 69.704 48.9591 69.896 48.0631 69.896C47.0391 69.896 46.1857 69.7253 45.5031 69.384C44.8631 69.0427 44.3724 68.5947 44.0311 68.04C43.5617 67.272 43.4124 66.2693 43.5831 65.032C43.7537 63.7947 44.0951 62.4293 44.6071 60.936L50.6871 42.632C50.9004 42.0347 51.0711 41.3307 51.1991 40.52C51.3697 39.6667 51.3484 38.92 51.1351 38.28C50.9217 37.5973 50.3031 37.256 49.2791 37.256C48.2551 37.256 47.1671 37.704 46.0151 38.6C44.8631 39.496 43.6684 40.776 42.4311 42.44C41.1937 44.0613 39.9777 46.024 38.7831 48.328C37.5884 50.5893 36.4364 53.1067 35.3271 55.88C34.2604 58.6107 33.2791 61.5333 32.3831 64.648L34.2391 55.688ZM84.6121 36.104L84.4201 37.384H64.5161L64.8361 36.104H84.6121ZM68.3561 63.56C67.9721 64.968 68.0574 65.992 68.6121 66.632C69.2094 67.2293 69.9774 67.528 70.9161 67.528C71.8547 67.528 72.7934 67.1227 73.7321 66.312C74.7134 65.5013 75.6734 63.7733 76.6121 61.128L77.5081 58.632H78.7241L77.3801 62.664C76.4414 65.4373 75.2254 67.336 73.7321 68.36C72.2814 69.384 70.5747 69.896 68.6121 69.896C66.8627 69.896 65.5187 69.5333 64.5801 68.808C63.6841 68.04 63.1507 66.9733 62.9801 65.608C62.8094 64.2427 62.9801 62.6853 63.4921 60.936L73.4121 26.376C74.4361 26.3333 75.4387 26.248 76.4201 26.12C77.4441 25.992 78.3614 25.7787 79.1721 25.48L68.3561 63.56ZM87.4881 54.472C89.8774 53.6613 92.0321 52.872 93.9521 52.104C95.9147 51.2933 97.4721 50.44 98.6241 49.544C100.16 48.3067 101.376 46.8133 102.272 45.064C103.168 43.3147 103.616 41.3947 103.616 39.304C103.616 38.0667 103.531 37.2773 103.36 36.936C103.189 36.5947 102.933 36.424 102.592 36.424C101.525 36.424 100.373 36.8933 99.1361 37.832C97.8987 38.7707 96.6827 40.072 95.4881 41.736C94.2934 43.3573 93.1841 45.2133 92.1601 47.304C91.1787 49.3947 90.3894 51.6347 89.7921 54.024C89.1947 56.3707 88.8961 58.7173 88.8961 61.064C88.8961 63.24 89.3014 64.8187 90.1121 65.8C90.9227 66.7387 91.9894 67.208 93.3121 67.208C94.8481 67.208 96.4694 66.7387 98.1761 65.8C99.8827 64.8613 101.547 63.1973 103.168 60.808L104.192 61.32C103.381 62.728 102.315 64.0933 100.992 65.416C99.6694 66.7387 98.1761 67.8267 96.5121 68.68C94.8907 69.4907 93.1627 69.896 91.3281 69.896C89.6214 69.896 88.1281 69.5547 86.8481 68.872C85.5681 68.1893 84.5867 67.1867 83.9041 65.864C83.2214 64.4987 82.8801 62.8347 82.8801 60.872C82.8801 59.0373 83.2214 56.9893 83.9041 54.728C84.5867 52.424 85.5467 50.1413 86.7841 47.88C88.0641 45.576 89.5787 43.464 91.3281 41.544C93.0774 39.624 95.0187 38.088 97.1521 36.936C99.2854 35.784 101.568 35.208 104 35.208C105.323 35.208 106.432 35.5707 107.328 36.296C108.267 36.9787 108.736 38.024 108.736 39.432C108.736 41.1387 108.224 42.7387 107.2 44.232C106.219 45.6827 104.896 47.0267 103.232 48.264C101.611 49.4587 99.8401 50.5253 97.9201 51.464C96.0001 52.4027 94.1227 53.2133 92.2881 53.896C90.4534 54.5787 88.8321 55.1333 87.4241 55.56L87.4881 54.472ZM116.078 63.56C115.736 64.7973 115.63 65.7787 115.758 66.504C115.886 67.1867 116.355 67.528 117.166 67.528C118.019 67.528 118.808 67.0587 119.534 66.12C120.302 65.1387 121.112 63.432 121.966 61L122.798 58.632H124.014L122.414 63.304C121.859 64.9253 121.176 66.2267 120.366 67.208C119.598 68.1467 118.744 68.8293 117.806 69.256C116.867 69.6827 115.843 69.896 114.734 69.896C113.326 69.896 112.28 69.6187 111.598 69.064C110.958 68.552 110.552 67.848 110.382 66.952C110.254 66.056 110.275 65.096 110.446 64.072C110.659 63.0053 110.915 61.96 111.214 60.936L121.646 26.312C122.072 24.8613 122.03 23.7947 121.518 23.112C121.006 22.4293 119.704 22.088 117.614 22.088L118.062 20.744C120.408 20.7013 122.478 20.4667 124.27 20.04C126.062 19.5707 127.79 18.9307 129.454 18.12L116.078 63.56ZM133.828 63.56C133.486 64.7973 133.38 65.7787 133.508 66.504C133.636 67.1867 134.105 67.528 134.916 67.528C135.769 67.528 136.558 67.0587 137.284 66.12C138.052 65.1387 138.862 63.432 139.716 61L140.548 58.632H141.764L140.164 63.304C139.609 64.9253 138.926 66.2267 138.116 67.208C137.348 68.1467 136.494 68.8293 135.556 69.256C134.617 69.6827 133.593 69.896 132.484 69.896C131.076 69.896 130.03 69.6187 129.348 69.064C128.708 68.552 128.302 67.848 128.132 66.952C128.004 66.056 128.025 65.096 128.196 64.072C128.409 63.0053 128.665 61.96 128.964 60.936L139.396 26.312C139.822 24.8613 139.78 23.7947 139.268 23.112C138.756 22.4293 137.454 22.088 135.364 22.088L135.812 20.744C138.158 20.7013 140.228 20.4667 142.02 20.04C143.812 19.5707 145.54 18.9307 147.204 18.12L133.828 63.56ZM157.146 24.456C157.359 23.3467 157.914 22.3867 158.81 21.576C159.748 20.7653 160.751 20.36 161.818 20.36C162.927 20.36 163.78 20.7653 164.378 21.576C165.018 22.3867 165.231 23.3467 165.018 24.456C164.804 25.5653 164.228 26.5253 163.29 27.336C162.394 28.1467 161.391 28.552 160.282 28.552C159.215 28.552 158.362 28.1467 157.722 27.336C157.124 26.5253 156.932 25.5653 157.146 24.456ZM155.162 41.544C156.058 38.8987 155.759 37.576 154.266 37.576C153.284 37.576 152.41 38.1093 151.642 39.176C150.874 40.2427 150.063 41.8853 149.21 44.104L148.314 46.472H147.098L148.762 41.8C149.402 40.008 150.17 38.6427 151.066 37.704C151.962 36.7653 152.9 36.1253 153.882 35.784C154.906 35.4 155.844 35.208 156.698 35.208C158.063 35.208 159.066 35.4853 159.706 36.04C160.346 36.5947 160.73 37.32 160.858 38.216C160.986 39.112 160.943 40.0933 160.73 41.16C160.516 42.184 160.239 43.1867 159.898 44.168L153.05 63.56C152.623 64.7973 152.474 65.7787 152.602 66.504C152.772 67.1867 153.263 67.528 154.074 67.528C154.927 67.528 155.738 67.0587 156.506 66.12C157.274 65.1813 158.127 63.4747 159.066 61L159.962 58.632H161.178L159.514 63.304C158.916 64.968 158.191 66.2907 157.338 67.272C156.484 68.2107 155.567 68.872 154.586 69.256C153.604 69.6827 152.623 69.896 151.642 69.896C149.807 69.896 148.57 69.4693 147.93 68.616C147.29 67.7627 147.055 66.6533 147.226 65.288C147.396 63.9227 147.759 62.472 148.314 60.936L155.162 41.544ZM178.186 54.6L179.786 54.664C178.25 55.5173 176.821 56.3067 175.498 57.032C174.218 57.7147 173.173 58.3547 172.362 58.952C171.551 59.5493 171.146 60.1253 171.146 60.68C171.146 61.1067 171.445 61.512 172.042 61.896C172.639 62.2373 173.621 62.5787 174.986 62.92L179.658 64.136C181.023 64.4773 182.239 64.8827 183.306 65.352C184.415 65.7787 185.29 66.3333 185.93 67.016C186.57 67.6987 186.89 68.5947 186.89 69.704C186.89 70.7707 186.527 71.9653 185.802 73.288C185.119 74.6533 184.031 75.9547 182.538 77.192C181.087 78.4293 179.189 79.4533 176.842 80.264C174.495 81.0747 171.658 81.48 168.33 81.48C166.111 81.48 164.255 81.2667 162.762 80.84C161.226 80.456 160.095 79.9013 159.37 79.176C158.602 78.4507 158.218 77.6187 158.218 76.68C158.218 75.9973 158.41 75.272 158.794 74.504C159.178 73.7787 159.754 73.0533 160.522 72.328C161.247 71.6453 162.186 70.984 163.338 70.344C164.447 69.7467 165.77 69.2347 167.306 68.808L167.754 69.768C166.175 70.5787 165.087 71.496 164.49 72.52C163.893 73.544 163.594 74.568 163.594 75.592C163.594 77.2987 164.191 78.5147 165.386 79.24C166.581 80.008 168.053 80.392 169.802 80.392C171.21 80.392 172.661 80.1573 174.154 79.688C175.647 79.2613 177.034 78.664 178.314 77.896C179.594 77.1707 180.618 76.3173 181.386 75.336C182.154 74.3547 182.538 73.3307 182.538 72.264C182.538 71.624 182.325 71.1973 181.898 70.984C181.514 70.7707 180.853 70.5573 179.914 70.344L170.122 67.848C169.098 67.592 168.266 67.1653 167.626 66.568C166.986 65.928 166.666 65.0747 166.666 64.008C166.666 63.1547 166.965 62.28 167.562 61.384C168.159 60.488 169.29 59.5067 170.954 58.44C172.618 57.3307 175.029 56.0507 178.186 54.6ZM181.45 36.36C180.085 36.36 178.933 36.7653 177.994 37.576C177.055 38.344 176.266 39.3467 175.626 40.584C175.029 41.7787 174.559 43.0373 174.218 44.36C173.919 45.6827 173.706 46.8987 173.578 48.008C173.45 49.0747 173.386 49.864 173.386 50.376C173.386 51.7413 173.685 52.7227 174.282 53.32C174.922 53.9173 175.754 54.216 176.778 54.216C178.399 54.216 179.701 53.7253 180.682 52.744C181.706 51.7627 182.495 50.5467 183.05 49.096C183.605 47.6453 183.967 46.1947 184.138 44.744C184.351 43.2933 184.458 42.0773 184.458 41.096C184.458 39.6453 184.266 38.4933 183.882 37.64C183.498 36.7867 182.687 36.36 181.45 36.36ZM181.706 35.208C184.223 35.208 186.25 35.784 187.786 36.936C189.365 38.0453 190.154 39.8587 190.154 42.376C190.154 44.424 189.578 46.4507 188.426 48.456C187.274 50.4613 185.653 52.1253 183.562 53.448C181.471 54.728 178.997 55.368 176.138 55.368C173.791 55.368 171.807 54.8133 170.186 53.704C168.607 52.552 167.818 50.7813 167.818 48.392C167.818 47.24 168.053 45.9173 168.522 44.424C169.034 42.888 169.823 41.4373 170.89 40.072C171.957 38.664 173.365 37.512 175.114 36.616C176.906 35.6773 179.103 35.208 181.706 35.208ZM186.25 38.536L185.098 38.088C185.695 36.6373 186.719 35.3573 188.17 34.248C189.621 33.1387 191.135 32.584 192.714 32.584C193.823 32.584 194.719 32.904 195.402 33.544C196.085 34.1413 196.426 35.1013 196.426 36.424C196.426 37.6187 196.127 38.4933 195.53 39.048C194.933 39.6027 194.293 39.88 193.61 39.88C192.927 39.88 192.266 39.6667 191.626 39.24C191.029 38.7707 190.666 38.0453 190.538 37.064C190.41 36.0827 190.687 34.824 191.37 33.288L192.202 33.48C190.41 34.1627 189.13 34.888 188.362 35.656C187.594 36.3813 186.89 37.3413 186.25 38.536ZM198.488 54.472C200.877 53.6613 203.032 52.872 204.952 52.104C206.915 51.2933 208.472 50.44 209.624 49.544C211.16 48.3067 212.376 46.8133 213.272 45.064C214.168 43.3147 214.616 41.3947 214.616 39.304C214.616 38.0667 214.531 37.2773 214.36 36.936C214.189 36.5947 213.933 36.424 213.592 36.424C212.525 36.424 211.373 36.8933 210.136 37.832C208.899 38.7707 207.683 40.072 206.488 41.736C205.293 43.3573 204.184 45.2133 203.16 47.304C202.179 49.3947 201.389 51.6347 200.792 54.024C200.195 56.3707 199.896 58.7173 199.896 61.064C199.896 63.24 200.301 64.8187 201.112 65.8C201.923 66.7387 202.989 67.208 204.312 67.208C205.848 67.208 207.469 66.7387 209.176 65.8C210.883 64.8613 212.547 63.1973 214.168 60.808L215.192 61.32C214.381 62.728 213.315 64.0933 211.992 65.416C210.669 66.7387 209.176 67.8267 207.512 68.68C205.891 69.4907 204.163 69.896 202.328 69.896C200.621 69.896 199.128 69.5547 197.848 68.872C196.568 68.1893 195.587 67.1867 194.904 65.864C194.221 64.4987 193.88 62.8347 193.88 60.872C193.88 59.0373 194.221 56.9893 194.904 54.728C195.587 52.424 196.547 50.1413 197.784 47.88C199.064 45.576 200.579 43.464 202.328 41.544C204.077 39.624 206.019 38.088 208.152 36.936C210.285 35.784 212.568 35.208 215 35.208C216.323 35.208 217.432 35.5707 218.328 36.296C219.267 36.9787 219.736 38.024 219.736 39.432C219.736 41.1387 219.224 42.7387 218.2 44.232C217.219 45.6827 215.896 47.0267 214.232 48.264C212.611 49.4587 210.84 50.5253 208.92 51.464C207 52.4027 205.123 53.2133 203.288 53.896C201.453 54.5787 199.832 55.1333 198.424 55.56L198.488 54.472ZM228.358 69H222.79L230.47 41.544C230.64 41.032 230.768 40.4773 230.854 39.88C230.982 39.24 230.96 38.7067 230.79 38.28C230.619 37.8107 230.192 37.576 229.51 37.576C228.571 37.576 227.739 38.0453 227.014 38.984C226.288 39.88 225.478 41.5867 224.582 44.104L223.75 46.472H222.534L224.134 41.8C225.072 39.112 226.224 37.3413 227.59 36.488C228.998 35.6347 230.384 35.208 231.75 35.208C233.03 35.208 233.947 35.4853 234.502 36.04C235.099 36.5947 235.419 37.32 235.462 38.216C235.547 39.0693 235.483 40.0293 235.27 41.096C235.099 42.12 234.886 43.144 234.63 44.168L228.358 69ZM231.302 55.688C232.795 51.848 234.246 48.6267 235.654 46.024C237.062 43.4213 238.448 41.3307 239.814 39.752C241.179 38.1307 242.566 36.9787 243.974 36.296C245.424 35.5707 246.918 35.208 248.454 35.208C250.459 35.208 251.824 35.6987 252.55 36.68C253.318 37.6187 253.659 38.8347 253.574 40.328C253.488 41.7787 253.19 43.2933 252.678 44.872L246.47 63.56C246.086 64.712 245.915 65.672 245.958 66.44C246.043 67.1653 246.555 67.528 247.494 67.528C248.304 67.528 249.094 67.08 249.862 66.184C250.672 65.288 251.526 63.56 252.422 61L253.254 58.632H254.47L252.87 63.304C252.272 65.096 251.526 66.4613 250.63 67.4C249.776 68.3387 248.859 68.9787 247.878 69.32C246.939 69.704 246.022 69.896 245.126 69.896C244.102 69.896 243.248 69.7253 242.566 69.384C241.926 69.0427 241.435 68.5947 241.094 68.04C240.624 67.272 240.475 66.2693 240.646 65.032C240.816 63.7947 241.158 62.4293 241.67 60.936L247.75 42.632C247.963 42.0347 248.134 41.3307 248.262 40.52C248.432 39.6667 248.411 38.92 248.198 38.28C247.984 37.5973 247.366 37.256 246.342 37.256C245.318 37.256 244.23 37.704 243.078 38.6C241.926 39.496 240.731 40.776 239.494 42.44C238.256 44.0613 237.04 46.024 235.846 48.328C234.651 50.5893 233.499 53.1067 232.39 55.88C231.323 58.6107 230.342 61.5333 229.446 64.648L231.302 55.688ZM278.347 36.488C276.725 36.488 275.104 37.1493 273.483 38.472C271.904 39.7947 270.453 41.608 269.131 43.912C267.808 46.216 266.741 48.84 265.931 51.784C265.163 54.728 264.779 57.8213 264.779 61.064C264.779 63.24 265.184 64.8187 265.995 65.8C266.848 66.7387 267.936 67.208 269.259 67.208C270.795 67.208 272.373 66.7387 273.995 65.8C275.616 64.8613 277.237 63.1973 278.859 60.808L280.139 61.32C279.328 62.728 278.261 64.0933 276.939 65.416C275.616 66.7387 274.123 67.8267 272.459 68.68C270.837 69.4907 269.109 69.896 267.275 69.896C264.715 69.896 262.667 69.1067 261.131 67.528C259.595 65.9493 258.827 63.6027 258.827 60.488C258.827 58.5253 259.104 56.4133 259.659 54.152C260.256 51.848 261.088 49.5867 262.155 47.368C263.264 45.1067 264.608 43.08 266.187 41.288C267.765 39.4533 269.557 37.9813 271.563 36.872C273.568 35.7627 275.765 35.208 278.155 35.208C280.032 35.208 281.653 35.6987 283.019 36.68C284.384 37.6187 285.067 38.9413 285.067 40.648C285.067 41.4587 284.875 42.2693 284.491 43.08C284.149 43.848 283.637 44.488 282.955 45C282.272 45.512 281.461 45.768 280.523 45.768C279.627 45.768 278.965 45.5333 278.539 45.064C278.112 44.552 277.899 43.9547 277.899 43.272C277.899 42.0347 278.389 40.9893 279.371 40.136C280.352 39.24 281.461 38.6853 282.699 38.472C282.272 37.8747 281.717 37.4053 281.035 37.064C280.352 36.68 279.456 36.488 278.347 36.488ZM290.676 54.472C293.065 53.6613 295.22 52.872 297.14 52.104C299.102 51.2933 300.66 50.44 301.812 49.544C303.348 48.3067 304.564 46.8133 305.46 45.064C306.356 43.3147 306.804 41.3947 306.804 39.304C306.804 38.0667 306.718 37.2773 306.548 36.936C306.377 36.5947 306.121 36.424 305.78 36.424C304.713 36.424 303.561 36.8933 302.324 37.832C301.086 38.7707 299.87 40.072 298.676 41.736C297.481 43.3573 296.372 45.2133 295.348 47.304C294.366 49.3947 293.577 51.6347 292.98 54.024C292.382 56.3707 292.084 58.7173 292.084 61.064C292.084 63.24 292.489 64.8187 293.3 65.8C294.11 66.7387 295.177 67.208 296.5 67.208C298.036 67.208 299.657 66.7387 301.364 65.8C303.07 64.8613 304.734 63.1973 306.356 60.808L307.38 61.32C306.569 62.728 305.502 64.0933 304.18 65.416C302.857 66.7387 301.364 67.8267 299.7 68.68C298.078 69.4907 296.35 69.896 294.516 69.896C292.809 69.896 291.316 69.5547 290.036 68.872C288.756 68.1893 287.774 67.1867 287.092 65.864C286.409 64.4987 286.068 62.8347 286.068 60.872C286.068 59.0373 286.409 56.9893 287.092 54.728C287.774 52.424 288.734 50.1413 289.972 47.88C291.252 45.576 292.766 43.464 294.516 41.544C296.265 39.624 298.206 38.088 300.34 36.936C302.473 35.784 304.756 35.208 307.188 35.208C308.51 35.208 309.62 35.5707 310.516 36.296C311.454 36.9787 311.924 38.024 311.924 39.432C311.924 41.1387 311.412 42.7387 310.388 44.232C309.406 45.6827 308.084 47.0267 306.42 48.264C304.798 49.4587 303.028 50.5253 301.108 51.464C299.188 52.4027 297.31 53.2133 295.476 53.896C293.641 54.5787 292.02 55.1333 290.612 55.56L290.676 54.472ZM320.993 65.48C320.993 67.6987 320.161 69.896 318.497 72.072C316.833 74.2907 314.529 76.1253 311.585 77.576L311.265 76.68C313.27 75.4427 314.87 74.0987 316.065 72.648C317.26 71.1973 317.921 69.7467 318.049 68.296C317.537 68.7227 317.004 69.0853 316.449 69.384C315.894 69.7253 315.318 69.896 314.721 69.896C313.953 69.896 313.356 69.6827 312.929 69.256C312.502 68.872 312.289 68.3387 312.289 67.656C312.289 66.7173 312.566 65.8 313.121 64.904C313.718 64.008 314.465 63.2613 315.361 62.664C316.257 62.024 317.196 61.704 318.177 61.704C319.158 61.704 319.862 62.088 320.289 62.856C320.758 63.624 320.993 64.4987 320.993 65.48ZM28.4801 108.752C32.5334 108.752 35.5414 109.499 37.5041 110.992C39.5094 112.485 40.5121 114.469 40.5121 116.944C40.5121 119.12 39.8721 121.083 38.5921 122.832C37.3121 124.539 35.6694 126.011 33.6641 127.248C31.6587 128.443 29.5681 129.381 27.3921 130.064C31.3174 130.704 34.0481 131.984 35.5841 133.904C37.1201 135.781 37.8881 137.979 37.8881 140.496C37.8881 142.8 37.3334 144.805 36.2241 146.512C35.1147 148.176 33.6427 149.563 31.8081 150.672C29.9734 151.781 27.9254 152.613 25.6641 153.168C23.4027 153.723 21.1201 154 18.8161 154C17.1947 154 15.5094 153.979 13.7601 153.936C12.0107 153.851 10.0267 153.808 7.80806 153.808C6.82673 153.808 5.84539 153.829 4.86406 153.872C3.88273 153.872 2.96539 153.893 2.11206 153.936C1.30139 153.936 0.597394 153.957 6.05583e-05 154L0.25606 152.72C1.70673 152.635 2.83739 152.464 3.64806 152.208C4.45873 151.952 5.09873 151.44 5.56806 150.672C6.03739 149.904 6.46406 148.752 6.84806 147.216L15.2961 115.472C15.5947 114.192 15.7654 113.168 15.8081 112.4C15.8507 111.589 15.5521 110.992 14.9121 110.608C14.3147 110.181 13.1841 109.968 11.5201 109.968L11.8401 108.688C12.4374 108.731 13.1414 108.773 13.9521 108.816C14.7627 108.816 15.6374 108.837 16.5761 108.88C17.5574 108.88 18.5174 108.88 19.4561 108.88C20.9494 108.88 22.4214 108.859 23.8721 108.816C25.3654 108.773 26.9014 108.752 28.4801 108.752ZM16.3201 131.024L16.5761 129.936H21.5681C24.1707 129.936 26.4107 129.36 28.2881 128.208C30.1654 127.013 31.6161 125.456 32.6401 123.536C33.6641 121.616 34.1761 119.568 34.1761 117.392C34.1761 114.875 33.6214 113.019 32.5121 111.824C31.4454 110.587 29.6961 109.968 27.2641 109.968C25.3867 109.968 24.0641 110.267 23.2961 110.864C22.5281 111.419 21.9094 112.635 21.4401 114.512L12.8001 147.216C12.4587 148.496 12.2667 149.541 12.2241 150.352C12.2241 151.12 12.5014 151.675 13.0561 152.016C13.6107 152.357 14.6134 152.528 16.0641 152.528C19.8187 152.528 22.8054 152.016 25.0241 150.992C27.2854 149.968 28.9281 148.496 29.9521 146.576C30.9761 144.613 31.4881 142.267 31.4881 139.536C31.4881 137.744 31.1681 136.229 30.5281 134.992C29.8881 133.712 28.8854 132.731 27.5201 132.048C26.1974 131.365 24.4694 131.024 22.3361 131.024H16.3201ZM47.9256 139.472C50.3149 138.661 52.4696 137.872 54.3896 137.104C56.3522 136.293 57.9096 135.44 59.0616 134.544C60.5976 133.307 61.8136 131.813 62.7096 130.064C63.6056 128.315 64.0536 126.395 64.0536 124.304C64.0536 123.067 63.9682 122.277 63.7976 121.936C63.6269 121.595 63.3709 121.424 63.0296 121.424C61.9629 121.424 60.8109 121.893 59.5736 122.832C58.3362 123.771 57.1202 125.072 55.9256 126.736C54.7309 128.357 53.6216 130.213 52.5976 132.304C51.6162 134.395 50.8269 136.635 50.2296 139.024C49.6322 141.371 49.3336 143.717 49.3336 146.064C49.3336 148.24 49.7389 149.819 50.5496 150.8C51.3602 151.739 52.4269 152.208 53.7496 152.208C55.2856 152.208 56.9069 151.739 58.6136 150.8C60.3202 149.861 61.9842 148.197 63.6056 145.808L64.6296 146.32C63.8189 147.728 62.7522 149.093 61.4296 150.416C60.1069 151.739 58.6136 152.827 56.9496 153.68C55.3282 154.491 53.6002 154.896 51.7656 154.896C50.0589 154.896 48.5656 154.555 47.2856 153.872C46.0056 153.189 45.0242 152.187 44.3416 150.864C43.6589 149.499 43.3176 147.835 43.3176 145.872C43.3176 144.037 43.6589 141.989 44.3416 139.728C45.0242 137.424 45.9842 135.141 47.2216 132.88C48.5016 130.576 50.0162 128.464 51.7656 126.544C53.5149 124.624 55.4562 123.088 57.5896 121.936C59.7229 120.784 62.0056 120.208 64.4376 120.208C65.7602 120.208 66.8696 120.571 67.7656 121.296C68.7042 121.979 69.1736 123.024 69.1736 124.432C69.1736 126.139 68.6616 127.739 67.6376 129.232C66.6562 130.683 65.3336 132.027 63.6696 133.264C62.0482 134.459 60.2776 135.525 58.3576 136.464C56.4376 137.403 54.5602 138.213 52.7256 138.896C50.8909 139.579 49.2696 140.133 47.8616 140.56L47.9256 139.472ZM88.0991 151.44L83.8111 156.112L78.9471 126.672C78.7337 125.349 78.4777 124.432 78.1791 123.92C77.8804 123.408 77.4537 123.152 76.8991 123.152C76.4297 123.152 75.8964 123.536 75.2991 124.304C74.7017 125.029 73.9764 126.608 73.1231 129.04L72.2911 131.408H71.0751L72.6751 126.736C73.5711 124.133 74.6804 122.405 76.0031 121.552C77.3257 120.656 78.6697 120.208 80.0351 120.208C81.3577 120.208 82.3817 120.635 83.1071 121.488C83.8324 122.299 84.3444 123.835 84.6431 126.096L88.0991 151.44ZM74.0831 163.024C75.9177 162.043 77.8591 160.699 79.9071 158.992C81.9977 157.328 84.1524 155.067 86.3711 152.208C88.8884 149.008 91.1711 145.424 93.2191 141.456C95.3097 137.445 96.7604 133.413 97.5711 129.36C96.8884 128.976 96.1417 128.507 95.3311 127.952C94.5631 127.355 93.9231 126.672 93.4111 125.904C92.8991 125.093 92.6644 124.197 92.7071 123.216C92.7924 122.235 93.1337 121.488 93.7311 120.976C94.3284 120.464 95.0751 120.208 95.9711 120.208C97.1231 120.208 97.9551 120.656 98.4671 121.552C99.0217 122.405 99.2991 123.685 99.2991 125.392C99.2991 127.568 98.9364 129.915 98.2111 132.432C97.4857 134.907 96.5044 137.424 95.2671 139.984C94.0724 142.544 92.7284 145.019 91.2351 147.408C89.7417 149.755 88.2271 151.888 86.6911 153.808C86.0084 154.661 85.0697 155.728 83.8751 157.008C82.6804 158.288 81.2511 159.589 79.5871 160.912C77.9657 162.277 76.1311 163.451 74.0831 164.432C72.8031 165.029 71.6937 165.435 70.7551 165.648C69.8591 165.904 69.1124 166.032 68.5151 166.032C67.6617 166.032 66.9151 165.797 66.2751 165.328C65.6351 164.901 65.3151 164.261 65.3151 163.408C65.3151 162.469 65.6777 161.744 66.4031 161.232C67.0857 160.763 67.8751 160.528 68.7711 160.528C69.7524 160.528 70.6697 160.784 71.5231 161.296C72.4191 161.808 73.2724 162.384 74.0831 163.024ZM120.256 121.488C118.89 121.488 117.568 122.043 116.288 123.152C115.05 124.219 113.898 125.691 112.832 127.568C111.808 129.403 110.89 131.472 110.08 133.776C109.312 136.08 108.714 138.469 108.288 140.944C107.861 143.419 107.648 145.787 107.648 148.048C107.648 149.968 107.946 151.376 108.544 152.272C109.184 153.168 110.101 153.616 111.296 153.616C112.661 153.616 113.962 153.083 115.2 152.016C116.48 150.907 117.653 149.435 118.72 147.6C119.786 145.723 120.704 143.632 121.472 141.328C122.24 139.024 122.837 136.656 123.264 134.224C123.69 131.749 123.904 129.36 123.904 127.056C123.904 125.093 123.605 123.685 123.008 122.832C122.41 121.936 121.493 121.488 120.256 121.488ZM102.144 144.848C102.144 142.971 102.4 140.923 102.912 138.704C103.424 136.485 104.192 134.288 105.216 132.112C106.24 129.936 107.477 127.952 108.928 126.16C110.421 124.368 112.149 122.939 114.112 121.872C116.074 120.763 118.25 120.208 120.64 120.208C123.285 120.208 125.397 121.04 126.976 122.704C128.597 124.325 129.408 126.843 129.408 130.256C129.408 132.133 129.152 134.181 128.64 136.4C128.128 138.619 127.36 140.816 126.336 142.992C125.312 145.168 124.053 147.152 122.56 148.944C121.109 150.736 119.402 152.187 117.44 153.296C115.477 154.363 113.301 154.896 110.912 154.896C108.266 154.896 106.133 154.064 104.512 152.4C102.933 150.736 102.144 148.219 102.144 144.848ZM139.858 154H134.29L141.97 126.544C142.14 126.032 142.268 125.477 142.354 124.88C142.482 124.24 142.46 123.707 142.29 123.28C142.119 122.811 141.692 122.576 141.01 122.576C140.071 122.576 139.239 123.045 138.514 123.984C137.788 124.88 136.978 126.587 136.082 129.104L135.25 131.472H134.034L135.634 126.8C136.572 124.112 137.724 122.341 139.09 121.488C140.498 120.635 141.884 120.208 143.25 120.208C144.53 120.208 145.447 120.485 146.002 121.04C146.599 121.595 146.919 122.32 146.962 123.216C147.047 124.069 146.983 125.029 146.77 126.096C146.599 127.12 146.386 128.144 146.13 129.168L139.858 154ZM142.802 140.688C144.295 136.848 145.746 133.627 147.154 131.024C148.562 128.421 149.948 126.331 151.314 124.752C152.679 123.131 154.066 121.979 155.474 121.296C156.924 120.571 158.418 120.208 159.954 120.208C161.959 120.208 163.324 120.699 164.05 121.68C164.818 122.619 165.159 123.835 165.074 125.328C164.988 126.779 164.69 128.293 164.178 129.872L157.97 148.56C157.586 149.712 157.415 150.672 157.458 151.44C157.543 152.165 158.055 152.528 158.994 152.528C159.804 152.528 160.594 152.08 161.362 151.184C162.172 150.288 163.026 148.56 163.922 146L164.754 143.632H165.97L164.37 148.304C163.772 150.096 163.026 151.461 162.13 152.4C161.276 153.339 160.359 153.979 159.378 154.32C158.439 154.704 157.522 154.896 156.626 154.896C155.602 154.896 154.748 154.725 154.066 154.384C153.426 154.043 152.935 153.595 152.594 153.04C152.124 152.272 151.975 151.269 152.146 150.032C152.316 148.795 152.658 147.429 153.17 145.936L159.25 127.632C159.463 127.035 159.634 126.331 159.762 125.52C159.932 124.667 159.911 123.92 159.698 123.28C159.484 122.597 158.866 122.256 157.842 122.256C156.818 122.256 155.73 122.704 154.578 123.6C153.426 124.496 152.231 125.776 150.994 127.44C149.756 129.061 148.54 131.024 147.346 133.328C146.151 135.589 144.999 138.107 143.89 140.88C142.823 143.611 141.842 146.533 140.946 149.648L142.802 140.688ZM192.791 148.56C192.492 149.541 192.364 150.459 192.407 151.312C192.492 152.123 193.004 152.528 193.943 152.528C194.796 152.528 195.585 152.059 196.311 151.12C197.036 150.139 197.804 148.432 198.615 146L199.383 143.632H200.599L199.127 148.304C198.615 150.011 197.932 151.355 197.079 152.336C196.225 153.275 195.329 153.936 194.391 154.32C193.452 154.704 192.556 154.896 191.703 154.896C189.143 154.896 187.799 153.68 187.671 151.248C187.628 150.565 187.671 149.776 187.799 148.88C187.969 147.984 188.204 147.003 188.503 145.936L197.719 111.312C198.103 109.861 198.039 108.795 197.527 108.112C197.015 107.429 195.713 107.088 193.623 107.088L194.007 105.744C196.353 105.701 198.423 105.467 200.215 105.04C202.007 104.571 203.713 103.931 205.335 103.12L192.791 148.56ZM178.455 152.848C179.521 152.848 180.716 152.229 182.039 150.992C183.404 149.712 184.769 148.005 186.135 145.872C187.543 143.696 188.823 141.243 189.975 138.512C191.169 135.739 192.108 132.88 192.791 129.936L191.831 136.848C190.167 141.243 188.503 144.763 186.839 147.408C185.217 150.053 183.553 151.973 181.847 153.168C180.183 154.32 178.433 154.896 176.599 154.896C175.276 154.896 174.103 154.597 173.079 154C172.097 153.36 171.329 152.421 170.775 151.184C170.22 149.947 169.943 148.368 169.943 146.448C169.943 144.4 170.263 142.203 170.903 139.856C171.585 137.467 172.545 135.12 173.783 132.816C175.02 130.512 176.492 128.421 178.199 126.544C179.948 124.624 181.868 123.088 183.959 121.936C186.049 120.784 188.268 120.208 190.615 120.208C191.596 120.208 192.513 120.592 193.367 121.36C194.22 122.085 194.689 123.195 194.775 124.688L194.263 125.968C194.092 124.432 193.665 123.344 192.983 122.704C192.3 122.021 191.532 121.68 190.679 121.68C189.057 121.68 187.479 122.235 185.943 123.344C184.449 124.453 183.084 125.925 181.847 127.76C180.609 129.595 179.521 131.643 178.583 133.904C177.644 136.123 176.919 138.405 176.407 140.752C175.895 143.056 175.639 145.232 175.639 147.28C175.639 149.157 175.873 150.565 176.343 151.504C176.812 152.4 177.516 152.848 178.455 152.848ZM243.666 148.56C243.367 149.541 243.239 150.459 243.282 151.312C243.367 152.123 243.879 152.528 244.818 152.528C245.671 152.528 246.46 152.059 247.186 151.12C247.911 150.139 248.679 148.432 249.49 146L250.258 143.632H251.474L250.002 148.304C249.49 150.011 248.807 151.355 247.954 152.336C247.1 153.275 246.204 153.936 245.266 154.32C244.327 154.704 243.431 154.896 242.578 154.896C240.018 154.896 238.674 153.68 238.546 151.248C238.503 150.565 238.546 149.776 238.674 148.88C238.844 147.984 239.079 147.003 239.378 145.936L248.594 111.312C248.978 109.861 248.914 108.795 248.402 108.112C247.89 107.429 246.588 107.088 244.498 107.088L244.882 105.744C247.228 105.701 249.298 105.467 251.09 105.04C252.882 104.571 254.588 103.931 256.21 103.12L243.666 148.56ZM229.33 152.848C230.396 152.848 231.591 152.229 232.914 150.992C234.279 149.712 235.644 148.005 237.01 145.872C238.418 143.696 239.698 141.243 240.85 138.512C242.044 135.739 242.983 132.88 243.666 129.936L242.706 136.848C241.042 141.243 239.378 144.763 237.714 147.408C236.092 150.053 234.428 151.973 232.722 153.168C231.058 154.32 229.308 154.896 227.474 154.896C226.151 154.896 224.978 154.597 223.954 154C222.972 153.36 222.204 152.421 221.65 151.184C221.095 149.947 220.818 148.368 220.818 146.448C220.818 144.4 221.138 142.203 221.778 139.856C222.46 137.467 223.42 135.12 224.658 132.816C225.895 130.512 227.367 128.421 229.074 126.544C230.823 124.624 232.743 123.088 234.834 121.936C236.924 120.784 239.143 120.208 241.49 120.208C242.471 120.208 243.388 120.592 244.242 121.36C245.095 122.085 245.564 123.195 245.65 124.688L245.138 125.968C244.967 124.432 244.54 123.344 243.858 122.704C243.175 122.021 242.407 121.68 241.554 121.68C239.932 121.68 238.354 122.235 236.818 123.344C235.324 124.453 233.959 125.925 232.722 127.76C231.484 129.595 230.396 131.643 229.458 133.904C228.519 136.123 227.794 138.405 227.282 140.752C226.77 143.056 226.514 145.232 226.514 147.28C226.514 149.157 226.748 150.565 227.218 151.504C227.687 152.4 228.391 152.848 229.33 152.848ZM263.185 152.848C264.209 152.848 265.382 152.208 266.705 150.928C268.028 149.605 269.372 147.835 270.737 145.616C272.102 143.397 273.361 140.88 274.513 138.064C275.665 135.248 276.582 132.325 277.265 129.296L276.177 136.208C274.556 140.731 272.934 144.379 271.313 147.152C269.692 149.883 268.049 151.867 266.385 153.104C264.721 154.299 263.036 154.896 261.329 154.896C259.324 154.896 257.809 154.171 256.785 152.72C255.804 151.269 255.313 149.413 255.313 147.152C255.313 145.104 255.654 142.885 256.337 140.496C257.02 138.064 257.958 135.653 259.153 133.264C260.39 130.875 261.798 128.699 263.377 126.736C264.956 124.773 266.662 123.195 268.497 122C270.374 120.805 272.273 120.208 274.193 120.208C275.686 120.208 276.817 120.955 277.585 122.448C278.396 123.899 278.566 125.947 278.097 128.592L277.393 128.976C277.692 126.715 277.542 124.901 276.945 123.536C276.348 122.128 275.366 121.424 274.001 121.424C272.892 121.424 271.718 121.979 270.481 123.088C269.286 124.155 268.113 125.627 266.961 127.504C265.852 129.339 264.828 131.408 263.889 133.712C262.993 136.016 262.268 138.405 261.713 140.88C261.201 143.312 260.945 145.659 260.945 147.92C260.945 149.755 261.137 151.035 261.521 151.76C261.948 152.485 262.502 152.848 263.185 152.848ZM279.313 121.104C280.337 121.061 281.361 120.976 282.385 120.848C283.409 120.72 284.348 120.507 285.201 120.208L277.201 148.496C277.116 148.88 276.988 149.392 276.817 150.032C276.689 150.629 276.689 151.184 276.817 151.696C276.988 152.208 277.436 152.464 278.161 152.464C279.014 152.464 279.846 151.995 280.657 151.056C281.468 150.117 282.278 148.411 283.089 145.936L283.857 143.568H285.073L283.473 148.24C282.876 149.947 282.15 151.291 281.297 152.272C280.486 153.211 279.633 153.872 278.737 154.256C277.841 154.683 276.966 154.896 276.113 154.896C274.449 154.896 273.276 154.341 272.593 153.232C272.038 152.251 271.889 151.12 272.145 149.84C272.401 148.517 272.7 147.195 273.041 145.872L279.313 121.104ZM312.237 121.104L312.045 122.384H292.141L292.461 121.104H312.237ZM295.981 148.56C295.597 149.968 295.682 150.992 296.237 151.632C296.834 152.229 297.602 152.528 298.541 152.528C299.48 152.528 300.418 152.123 301.357 151.312C302.338 150.501 303.298 148.773 304.237 146.128L305.133 143.632H306.349L305.005 147.664C304.066 150.437 302.85 152.336 301.357 153.36C299.906 154.384 298.2 154.896 296.237 154.896C294.488 154.896 293.144 154.533 292.205 153.808C291.309 153.04 290.776 151.973 290.605 150.608C290.434 149.243 290.605 147.685 291.117 145.936L301.037 111.376C302.061 111.333 303.064 111.248 304.045 111.12C305.069 110.992 305.986 110.779 306.797 110.48L295.981 148.56ZM318.185 152.848C319.209 152.848 320.382 152.208 321.705 150.928C323.028 149.605 324.372 147.835 325.737 145.616C327.102 143.397 328.361 140.88 329.513 138.064C330.665 135.248 331.582 132.325 332.265 129.296L331.177 136.208C329.556 140.731 327.934 144.379 326.313 147.152C324.692 149.883 323.049 151.867 321.385 153.104C319.721 154.299 318.036 154.896 316.329 154.896C314.324 154.896 312.809 154.171 311.785 152.72C310.804 151.269 310.313 149.413 310.313 147.152C310.313 145.104 310.654 142.885 311.337 140.496C312.02 138.064 312.958 135.653 314.153 133.264C315.39 130.875 316.798 128.699 318.377 126.736C319.956 124.773 321.662 123.195 323.497 122C325.374 120.805 327.273 120.208 329.193 120.208C330.686 120.208 331.817 120.955 332.585 122.448C333.396 123.899 333.566 125.947 333.097 128.592L332.393 128.976C332.692 126.715 332.542 124.901 331.945 123.536C331.348 122.128 330.366 121.424 329.001 121.424C327.892 121.424 326.718 121.979 325.481 123.088C324.286 124.155 323.113 125.627 321.961 127.504C320.852 129.339 319.828 131.408 318.889 133.712C317.993 136.016 317.268 138.405 316.713 140.88C316.201 143.312 315.945 145.659 315.945 147.92C315.945 149.755 316.137 151.035 316.521 151.76C316.948 152.485 317.502 152.848 318.185 152.848ZM334.313 121.104C335.337 121.061 336.361 120.976 337.385 120.848C338.409 120.72 339.348 120.507 340.201 120.208L332.201 148.496C332.116 148.88 331.988 149.392 331.817 150.032C331.689 150.629 331.689 151.184 331.817 151.696C331.988 152.208 332.436 152.464 333.161 152.464C334.014 152.464 334.846 151.995 335.657 151.056C336.468 150.117 337.278 148.411 338.089 145.936L338.857 143.568H340.073L338.473 148.24C337.876 149.947 337.15 151.291 336.297 152.272C335.486 153.211 334.633 153.872 333.737 154.256C332.841 154.683 331.966 154.896 331.113 154.896C329.449 154.896 328.276 154.341 327.593 153.232C327.038 152.251 326.889 151.12 327.145 149.84C327.401 148.517 327.7 147.195 328.041 145.872L334.313 121.104ZM343.173 151.632C343.173 150.352 343.664 149.221 344.645 148.24C345.626 147.216 346.714 146.704 347.909 146.704C348.89 146.704 349.68 147.024 350.277 147.664C350.874 148.304 351.173 149.093 351.173 150.032C351.173 150.885 350.938 151.696 350.469 152.464C350.042 153.189 349.466 153.765 348.741 154.192C348.016 154.661 347.226 154.896 346.373 154.896C345.434 154.896 344.666 154.597 344.069 154C343.472 153.36 343.173 152.571 343.173 151.632Z" fill="#D8DFDE"/>
<path d="M21.5281 217V227.8H24.9841V229.36H3.19206V227.8H6.67206V217H13.1281V215.488H3.93606V213.88H13.1281V211.864H15.0481V213.88H24.2401V215.488H15.0481V217H21.5281ZM19.6561 219.784V218.416H8.54406V219.784H19.6561ZM8.54406 222.496H19.6561V221.176H8.54406V222.496ZM19.6561 225.184V223.864H8.54406V225.184H19.6561ZM19.6561 226.504H8.54406V227.8H19.6561V226.504ZM3.52806 232.36C6.24806 231.64 8.62406 230.744 10.6561 229.672L11.4721 231.28C9.37606 232.272 6.96006 233.208 4.22406 234.088L3.52806 232.36ZM17.2081 229.672C19.1761 230.296 21.5921 231.152 24.4561 232.24L23.6881 233.92C20.6161 232.656 18.2401 231.768 16.5601 231.256L17.2081 229.672ZM33.4321 220.936C32.9841 221.672 32.3441 222.336 31.5121 222.928C30.6961 223.52 29.5841 224.12 28.1761 224.728L27.3121 223.264C28.7361 222.656 29.8401 222.032 30.6241 221.392C31.4241 220.736 32.0001 219.968 32.3521 219.088H27.4561V217.528H32.7841C32.8801 216.92 32.9441 216.176 32.9761 215.296H30.7201C30.3681 215.824 29.9121 216.432 29.3521 217.12L27.9841 216.112C29.0881 214.816 29.9921 213.376 30.6961 211.792L32.3521 212.32C32.1921 212.704 31.9601 213.184 31.6561 213.76H38.3041V215.296H34.7521C34.7201 216.208 34.6561 216.952 34.5601 217.528H38.9521V219.088H34.2241L34.0801 219.592C34.9121 219.944 36.2481 220.624 38.0881 221.632C38.2161 221.712 38.4081 221.816 38.6641 221.944L37.7281 223.456C36.5761 222.656 35.1441 221.816 33.4321 220.936ZM39.8161 222.28V213.616H47.7361V222.28H39.8161ZM41.6161 220.552H45.9601V215.32H41.6161V220.552ZM32.6641 233.848H30.7441V223.888H46.0561V233.8H44.1121V232.648H32.6641V233.848ZM44.1121 227.512V225.496H32.6641V227.512H44.1121ZM32.6641 229.048V231.112H44.1121V229.048H32.6641ZM72.5521 220.12V221.92H61.7281C61.2801 224.48 60.3841 226.688 59.0401 228.544C57.7121 230.4 55.6801 232.152 52.9441 233.8L51.7921 232.024C54.2401 230.6 56.0721 229.096 57.2881 227.512C58.5201 225.928 59.3521 224.064 59.7841 221.92H51.6721V220.12H60.0721C60.1361 219.576 60.2001 218.808 60.2641 217.816C60.2801 217.576 60.2881 217.296 60.2881 216.976C60.2881 216.64 60.2961 216.304 60.3121 215.968L60.3361 215.104H53.0401V213.304H71.1601V215.104H62.2081L62.1841 216.064C62.1681 216.4 62.1601 216.736 62.1601 217.072C62.1601 217.408 62.1521 217.696 62.1361 217.936C62.1201 218.464 62.0641 219.192 61.9681 220.12H72.5521ZM70.5841 229.456C70.6321 228.352 70.6561 227.432 70.6561 226.696L72.5521 227.056L72.4081 230.272C72.3761 230.96 72.2641 231.488 72.0721 231.856C71.8801 232.224 71.5761 232.488 71.1601 232.648C70.7601 232.824 70.1761 232.936 69.4081 232.984C68.7201 233.032 68.0721 233.056 67.4641 233.056C66.8721 233.056 66.2241 233.032 65.5201 232.984C64.5601 232.92 63.8721 232.672 63.4561 232.24C63.0401 231.824 62.8321 231.064 62.8321 229.96V223.216H64.7521V229.432C64.7521 230.056 64.8561 230.496 65.0641 230.752C65.2881 230.992 65.6641 231.128 66.1921 231.16C66.8641 231.192 67.3201 231.208 67.5601 231.208C67.8001 231.208 68.2561 231.192 68.9281 231.16C69.5681 231.112 70.0001 230.984 70.2241 230.776C70.4481 230.552 70.5681 230.112 70.5841 229.456ZM95.6881 213.376C94.7921 214.4 93.7041 215.448 92.4241 216.52C91.1441 217.576 89.8801 218.504 88.6321 219.304L87.5281 217.72C88.6481 217.048 89.8401 216.192 91.1041 215.152C92.3681 214.096 93.4481 213.072 94.3441 212.08L95.6881 213.376ZM88.1281 223.24H85.1041V233.512H83.3281V223.24H79.9921C79.9601 225 79.8481 226.432 79.6561 227.536C79.4641 228.64 79.1521 229.648 78.7201 230.56C78.2881 231.472 77.6401 232.536 76.7761 233.752L75.0721 232.744C75.9361 231.608 76.5681 230.64 76.9681 229.84C77.3841 229.04 77.6801 228.152 77.8561 227.176C78.0481 226.184 78.1601 224.872 78.1921 223.24H75.2641V221.44H78.2161V221.176V215.176H76.0321V213.352H87.5041V215.176H85.1041V221.44H88.1281V223.24ZM80.0161 221.44H83.3281V215.176H80.0161V221.128V221.44ZM87.5041 224.8C88.8161 223.984 90.1281 223.024 91.4401 221.92C92.7521 220.816 93.8881 219.712 94.8481 218.608L96.2161 219.976C95.2081 221.096 94.0401 222.216 92.7121 223.336C91.3841 224.44 90.0241 225.456 88.6321 226.384L87.5041 224.8ZM97.0321 226.072C94.2481 229.304 91.1041 231.864 87.6001 233.752L86.4241 232.12C89.8001 230.392 92.8961 227.928 95.7121 224.728L97.0321 226.072ZM103.272 229.552C103.736 229.552 104.112 229.736 104.4 230.104C104.688 230.456 104.832 231.008 104.832 231.76C104.832 232.48 104.696 233.12 104.424 233.68C104.168 234.256 103.808 234.72 103.344 235.072C102.88 235.424 102.344 235.656 101.736 235.768V234.64C102.28 234.464 102.696 234.184 102.984 233.8C103.272 233.416 103.432 232.92 103.464 232.312C103.432 232.328 103.392 232.336 103.344 232.336C103.312 232.336 103.28 232.336 103.248 232.336C102.848 232.336 102.528 232.2 102.288 231.928C102.064 231.656 101.952 231.328 101.952 230.944C101.952 230.544 102.072 230.216 102.312 229.96C102.568 229.688 102.888 229.552 103.272 229.552ZM136.608 215.392C136.224 216.128 135.72 216.968 135.096 217.912V233.656H133.128V220.6C130.872 223.448 128.008 226.176 124.536 228.784L123.288 227.008C125.72 225.328 127.864 223.504 129.72 221.536C131.592 219.552 133.112 217.504 134.28 215.392H124.128V213.4H144.168V215.392H136.608ZM136.92 219.832C138.04 220.712 139.408 221.864 141.024 223.288C142.64 224.696 143.92 225.872 144.864 226.816L143.376 228.496C142.464 227.52 141.248 226.328 139.728 224.92C138.224 223.496 136.88 222.296 135.696 221.32L136.92 219.832ZM148.464 233.824V212.848H167.832V233.824H165.984V232.744H150.312V233.824H148.464ZM150.312 214.6V231.088H165.984V214.6H150.312ZM164.952 218.296H157.104C156.88 218.76 156.56 219.312 156.144 219.952H163.824V227.704C163.824 228.52 163.696 229.096 163.44 229.432C163.184 229.768 162.752 229.944 162.144 229.96C161.376 229.976 160.496 229.92 159.504 229.792L159.216 228.328C159.36 228.344 159.664 228.384 160.128 228.448C160.608 228.512 161.048 228.544 161.448 228.544C161.736 228.544 161.936 228.44 162.048 228.232C162.176 228.024 162.24 227.696 162.24 227.248V226.816H155.52V229.912H153.936V222.808C153.344 223.448 152.648 224.104 151.848 224.776L150.984 223.36C152.696 222 154.12 220.312 155.256 218.296H151.776V216.784H156.024C156.28 216.288 156.528 215.696 156.768 215.008L158.424 215.344C158.2 215.936 158 216.416 157.824 216.784H164.952V218.296ZM155.52 222.76H162.24V221.32H155.52V222.76ZM155.52 224.08V225.496H162.24V224.08H155.52ZM192.816 220.912V222.832H183.504V230.128C183.504 231.328 183.224 232.16 182.664 232.624C182.12 233.104 181.16 233.344 179.784 233.344C178.968 233.344 178 233.288 176.88 233.176L176.472 231.256C177.752 231.416 178.72 231.496 179.376 231.496C179.968 231.496 180.4 231.448 180.672 231.352C180.96 231.24 181.152 231.048 181.248 230.776C181.344 230.504 181.392 230.088 181.392 229.528V222.832H171.336V220.912H181.392V215.272H173.064V213.376H191.112V215.272H183.504V220.912H192.816ZM212.424 227.584C213.528 229.2 215.072 230.776 217.056 232.312L215.856 233.92C214 232.416 212.504 230.856 211.368 229.24C210.328 230.712 208.88 232.24 207.024 233.824L205.824 232.24C207.76 230.672 209.248 229.088 210.288 227.488C209.28 225.6 208.512 223.352 207.984 220.744C207.872 220.968 207.76 221.168 207.648 221.344C207.552 221.504 207.472 221.64 207.408 221.752L206.088 220.312C206.856 219.08 207.536 217.728 208.128 216.256C208.72 214.784 209.168 213.328 209.472 211.888L211.272 212.2C211.048 213.272 210.704 214.48 210.24 215.824H216.672V217.744H214.992C214.784 219.904 214.48 221.768 214.08 223.336C213.68 224.904 213.128 226.32 212.424 227.584ZM195.072 222.568C195.904 222.072 196.696 221.48 197.448 220.792C198.216 220.104 198.888 219.368 199.464 218.584H195.672V217H200.424V212.032H202.128V217H206.328V218.584H202.128V218.92L206.16 221.656L205.272 222.976C204.424 222.272 203.376 221.504 202.128 220.672V223.12H200.424V219.64C199.864 220.456 199.2 221.24 198.432 221.992C197.68 222.744 196.872 223.408 196.008 223.984L195.072 222.568ZM198.12 216.568C197.656 215.784 196.944 214.72 195.984 213.376L197.184 212.56L199.416 215.728L198.12 216.568ZM206.64 213.424C205.92 214.48 205.136 215.568 204.288 216.688L203.04 215.8C203.936 214.616 204.704 213.544 205.344 212.584L206.64 213.424ZM209.208 218.344C209.448 219.864 209.728 221.216 210.048 222.4C210.384 223.568 210.8 224.656 211.296 225.664C211.792 224.608 212.192 223.44 212.496 222.16C212.816 220.864 213.064 219.392 213.24 217.744H209.472L209.208 218.344ZM205.056 232.696C204.32 232.232 203.328 231.68 202.08 231.04C200.608 232.048 198.488 232.992 195.72 233.872L194.928 232.24C197.248 231.568 199.04 230.888 200.304 230.2C199.12 229.656 198.248 229.264 197.688 229.024L196.728 228.592C197.256 227.744 197.672 227.024 197.976 226.432H195.24V224.872H198.768C199.104 224.088 199.32 223.56 199.416 223.288L201.192 223.744C201 224.256 200.848 224.632 200.736 224.872H205.8V226.36C205.176 227.784 204.416 228.944 203.52 229.84C204.256 230.192 205.072 230.632 205.968 231.16L205.056 232.696ZM199.176 227.944C199.464 228.072 200.024 228.304 200.856 228.64L201.936 229.096C202.736 228.424 203.376 227.536 203.856 226.432H199.992C199.64 227.104 199.368 227.608 199.176 227.944Z" fill="#AAB3B2"/>
</svg>
