<svg width="399" height="238" viewBox="0 0 399 238" fill="none" xmlns="http://www.w3.org/2000/svg">
<path d="M36.48 55.56C36.224 56.2427 35.968 57.032 35.712 57.928C35.456 58.824 35.1787 59.784 34.88 60.808C34.6667 61.6187 34.3893 62.792 34.048 64.328C33.7067 65.8213 33.408 67.3787 33.152 69C30.976 68.9147 28.5227 68.872 25.792 68.872C23.0613 68.8293 20.6293 68.808 18.496 68.808C17.5573 68.808 16.3413 68.808 14.848 68.808C13.3973 68.808 11.8187 68.8293 10.112 68.872C8.40532 68.872 6.67732 68.8933 4.92799 68.936C3.17866 68.936 1.53599 68.9573 -9.77516e-06 69L0.31999 67.72C1.77066 67.6347 2.90132 67.464 3.71199 67.208C4.52266 66.952 5.14132 66.44 5.56799 65.672C6.03732 64.904 6.48532 63.752 6.91199 62.216L15.424 30.472C15.8507 28.8933 16.0213 27.7413 15.936 27.016C15.8933 26.248 15.5307 25.736 14.848 25.48C14.208 25.1813 13.1627 25.0107 11.712 24.968L12.032 23.688C12.928 23.7307 14.1013 23.7733 15.552 23.816C17.0027 23.8587 18.56 23.88 20.224 23.88C21.7173 23.88 23.1893 23.8587 24.64 23.816C26.1333 23.7733 27.3707 23.7307 28.352 23.688L28.032 24.968C26.5813 25.0107 25.4507 25.1813 24.64 25.48C23.8293 25.736 23.1893 26.248 22.72 27.016C22.2507 27.7413 21.8027 28.8933 21.376 30.472L12.864 62.216C12.4373 63.752 12.2453 64.904 12.288 65.672C12.3733 66.44 12.7573 66.952 13.44 67.208C14.1227 67.4213 15.1893 67.528 16.64 67.528H21.312C24 67.528 26.1333 67.144 27.712 66.376C29.3333 65.608 30.6773 64.3493 31.744 62.6C32.8533 60.8507 33.9413 58.504 35.008 55.56H36.48Z" fill="#00C4C6"/>
<path d="M51.836 24.456C52.0493 23.3467 52.604 22.3867 53.5 21.576C54.4387 20.7653 55.4413 20.36 56.508 20.36C57.6173 20.36 58.4707 20.7653 59.068 21.576C59.708 22.3867 59.9213 23.3467 59.708 24.456C59.4947 25.5653 58.9187 26.5253 57.98 27.336C57.084 28.1467 56.0813 28.552 54.972 28.552C53.9053 28.552 53.052 28.1467 52.412 27.336C51.8147 26.5253 51.6227 25.5653 51.836 24.456ZM49.852 41.544C50.748 38.8987 50.4493 37.576 48.956 37.576C47.9747 37.576 47.1 38.1093 46.332 39.176C45.564 40.2427 44.7533 41.8853 43.9 44.104L43.004 46.472H41.788L43.452 41.8C44.092 40.008 44.86 38.6427 45.756 37.704C46.652 36.7653 47.5907 36.1253 48.572 35.784C49.596 35.4 50.5347 35.208 51.388 35.208C52.7533 35.208 53.756 35.4853 54.396 36.04C55.036 36.5947 55.42 37.32 55.548 38.216C55.676 39.112 55.6333 40.0933 55.42 41.16C55.2067 42.184 54.9293 43.1867 54.588 44.168L47.74 63.56C47.3133 64.7973 47.164 65.7787 47.292 66.504C47.4627 67.1867 47.9533 67.528 48.764 67.528C49.6173 67.528 50.428 67.0587 51.196 66.12C51.964 65.1813 52.8173 63.4747 53.756 61L54.652 58.632H55.868L54.204 63.304C53.6067 64.968 52.8813 66.2907 52.028 67.272C51.1747 68.2107 50.2573 68.872 49.276 69.256C48.2947 69.6827 47.3133 69.896 46.332 69.896C44.4973 69.896 43.26 69.4693 42.62 68.616C41.98 67.7627 41.7453 66.6533 41.916 65.288C42.0867 63.9227 42.4493 62.472 43.004 60.936L49.852 41.544ZM66.7965 69H61.2285L68.9085 41.544C69.0365 41.16 69.1432 40.6693 69.2285 40.072C69.3565 39.432 69.3565 38.856 69.2285 38.344C69.1005 37.832 68.6952 37.576 68.0125 37.576C67.0738 37.576 66.2205 38.0667 65.4525 39.048C64.6845 40.0293 63.8738 41.7147 63.0205 44.104L62.1885 46.472H60.9725L62.5725 41.8C63.2125 40.008 63.9592 38.6427 64.8125 37.704C65.7085 36.7653 66.6258 36.1253 67.5645 35.784C68.5458 35.4 69.4632 35.208 70.3165 35.208C71.5965 35.208 72.5138 35.5067 73.0685 36.104C73.6232 36.6587 73.9218 37.4053 73.9645 38.344C74.0498 39.24 73.9858 40.2 73.7725 41.224C73.5592 42.248 73.3245 43.2293 73.0685 44.168L66.7965 69ZM84.9085 42.632C85.2072 41.736 85.3992 40.8827 85.4845 40.072C85.6125 39.2613 85.5485 38.6 85.2925 38.088C85.0792 37.5333 84.5672 37.256 83.7565 37.256C82.5618 37.256 81.2392 38.0027 79.7885 39.496C78.3805 40.9467 76.9298 42.9947 75.4365 45.64C73.9858 48.2427 72.5778 51.2933 71.2125 54.792C69.8472 58.248 68.6312 61.96 67.5645 65.928L69.6765 55.688C71.6392 50.568 73.4738 46.5147 75.1805 43.528C76.8872 40.5413 78.5938 38.408 80.3005 37.128C82.0498 35.848 83.9058 35.208 85.8685 35.208C87.2338 35.208 88.2152 35.528 88.8125 36.168C89.4525 36.7653 89.8365 37.5547 89.9645 38.536C90.0925 39.5173 90.0498 40.5627 89.8365 41.672C89.6658 42.7813 89.4525 43.848 89.1965 44.872L82.6685 69H76.9085L84.9085 42.632ZM100.908 42.632C101.335 41.3093 101.548 40.0933 101.548 38.984C101.548 37.832 101.079 37.256 100.14 37.256C98.8605 37.256 97.5165 38.0027 96.1085 39.496C94.7005 40.9893 93.2498 43.1227 91.7565 45.896C90.2632 48.6267 88.7698 51.848 87.2765 55.56C85.8258 59.2293 84.4178 63.2827 83.0525 67.72L84.5245 59.528C86.1885 55.0907 87.7245 51.336 89.1325 48.264C90.5405 45.1493 91.9272 42.632 93.2925 40.712C94.6578 38.792 96.0658 37.4053 97.5165 36.552C98.9672 35.656 100.546 35.208 102.252 35.208C104.044 35.208 105.26 35.72 105.9 36.744C106.54 37.768 106.796 39.0267 106.668 40.52C106.583 41.9707 106.306 43.4213 105.836 44.872L99.6285 63.56C99.2018 64.8827 99.0525 65.8853 99.1805 66.568C99.3085 67.208 99.7992 67.528 100.652 67.528C101.463 67.528 102.252 67.08 103.02 66.184C103.831 65.288 104.684 63.56 105.58 61L106.412 58.632H107.628L106.028 63.304C105.431 65.096 104.684 66.4613 103.788 67.4C102.935 68.3387 102.018 68.9787 101.036 69.32C100.098 69.704 99.1805 69.896 98.2845 69.896C97.2178 69.896 96.3645 69.7253 95.7245 69.384C95.1272 69.0853 94.6578 68.68 94.3165 68.168C93.8045 67.3573 93.6338 66.3547 93.8045 65.16C93.9752 63.9227 94.3165 62.5147 94.8285 60.936L100.908 42.632ZM122.898 24.456C123.112 23.3467 123.666 22.3867 124.562 21.576C125.501 20.7653 126.504 20.36 127.57 20.36C128.68 20.36 129.533 20.7653 130.13 21.576C130.77 22.3867 130.984 23.3467 130.77 24.456C130.557 25.5653 129.981 26.5253 129.042 27.336C128.146 28.1467 127.144 28.552 126.034 28.552C124.968 28.552 124.114 28.1467 123.474 27.336C122.877 26.5253 122.685 25.5653 122.898 24.456ZM120.914 41.544C121.81 38.8987 121.512 37.576 120.018 37.576C119.037 37.576 118.162 38.1093 117.394 39.176C116.626 40.2427 115.816 41.8853 114.962 44.104L114.066 46.472H112.85L114.514 41.8C115.154 40.008 115.922 38.6427 116.818 37.704C117.714 36.7653 118.653 36.1253 119.634 35.784C120.658 35.4 121.597 35.208 122.45 35.208C123.816 35.208 124.818 35.4853 125.458 36.04C126.098 36.5947 126.482 37.32 126.61 38.216C126.738 39.112 126.696 40.0933 126.482 41.16C126.269 42.184 125.992 43.1867 125.65 44.168L118.802 63.56C118.376 64.7973 118.226 65.7787 118.354 66.504C118.525 67.1867 119.016 67.528 119.826 67.528C120.68 67.528 121.49 67.0587 122.258 66.12C123.026 65.1813 123.88 63.4747 124.818 61L125.714 58.632H126.93L125.266 63.304C124.669 64.968 123.944 66.2907 123.09 67.272C122.237 68.2107 121.32 68.872 120.338 69.256C119.357 69.6827 118.376 69.896 117.394 69.896C115.56 69.896 114.322 69.4693 113.682 68.616C113.042 67.7627 112.808 66.6533 112.978 65.288C113.149 63.9227 113.512 62.472 114.066 60.936L120.914 41.544ZM154.115 36.104L153.923 37.384H134.019L134.339 36.104H154.115ZM137.859 63.56C137.475 64.968 137.56 65.992 138.115 66.632C138.712 67.2293 139.48 67.528 140.419 67.528C141.358 67.528 142.296 67.1227 143.235 66.312C144.216 65.5013 145.176 63.7733 146.115 61.128L147.011 58.632H148.227L146.883 62.664C145.944 65.4373 144.728 67.336 143.235 68.36C141.784 69.384 140.078 69.896 138.115 69.896C136.366 69.896 135.022 69.5333 134.083 68.808C133.187 68.04 132.654 66.9733 132.483 65.608C132.312 64.2427 132.483 62.6853 132.995 60.936L142.915 26.376C143.939 26.3333 144.942 26.248 145.923 26.12C146.947 25.992 147.864 25.7787 148.675 25.48L137.859 63.56ZM158.143 63.56C157.802 64.7973 157.695 65.7787 157.823 66.504C157.951 67.1867 158.42 67.528 159.231 67.528C160.084 67.528 160.874 67.0587 161.599 66.12C162.367 65.1387 163.178 63.432 164.031 61L164.863 58.632H166.079L164.479 63.304C163.924 64.9253 163.242 66.2267 162.431 67.208C161.663 68.1467 160.81 68.8293 159.871 69.256C158.932 69.6827 157.908 69.896 156.799 69.896C155.391 69.896 154.346 69.6187 153.663 69.064C153.023 68.552 152.618 67.848 152.447 66.952C152.319 66.056 152.34 65.096 152.511 64.072C152.724 63.0053 152.98 61.96 153.279 60.936L163.711 26.312C164.138 24.8613 164.095 23.7947 163.583 23.112C163.071 22.4293 161.77 22.088 159.679 22.088L160.127 20.744C162.474 20.7013 164.543 20.4667 166.335 20.04C168.127 19.5707 169.855 18.9307 171.519 18.12L158.143 63.56ZM174.741 54.472C177.13 53.6613 179.285 52.872 181.205 52.104C183.168 51.2933 184.725 50.44 185.877 49.544C187.413 48.3067 188.629 46.8133 189.525 45.064C190.421 43.3147 190.869 41.3947 190.869 39.304C190.869 38.0667 190.784 37.2773 190.613 36.936C190.442 36.5947 190.186 36.424 189.845 36.424C188.778 36.424 187.626 36.8933 186.389 37.832C185.152 38.7707 183.936 40.072 182.741 41.736C181.546 43.3573 180.437 45.2133 179.413 47.304C178.432 49.3947 177.642 51.6347 177.045 54.024C176.448 56.3707 176.149 58.7173 176.149 61.064C176.149 63.24 176.554 64.8187 177.365 65.8C178.176 66.7387 179.242 67.208 180.565 67.208C182.101 67.208 183.722 66.7387 185.429 65.8C187.136 64.8613 188.8 63.1973 190.421 60.808L191.445 61.32C190.634 62.728 189.568 64.0933 188.245 65.416C186.922 66.7387 185.429 67.8267 183.765 68.68C182.144 69.4907 180.416 69.896 178.581 69.896C176.874 69.896 175.381 69.5547 174.101 68.872C172.821 68.1893 171.84 67.1867 171.157 65.864C170.474 64.4987 170.133 62.8347 170.133 60.872C170.133 59.0373 170.474 56.9893 171.157 54.728C171.84 52.424 172.8 50.1413 174.037 47.88C175.317 45.576 176.832 43.464 178.581 41.544C180.33 39.624 182.272 38.088 184.405 36.936C186.538 35.784 188.821 35.208 191.253 35.208C192.576 35.208 193.685 35.5707 194.581 36.296C195.52 36.9787 195.989 38.024 195.989 39.432C195.989 41.1387 195.477 42.7387 194.453 44.232C193.472 45.6827 192.149 47.0267 190.485 48.264C188.864 49.4587 187.093 50.5253 185.173 51.464C183.253 52.4027 181.376 53.2133 179.541 53.896C177.706 54.5787 176.085 55.1333 174.677 55.56L174.741 54.472ZM200.578 68.04C200.92 68.2107 201.282 68.36 201.666 68.488C202.093 68.5733 202.712 68.616 203.522 68.616C205.4 68.616 206.936 68.0613 208.13 66.952C209.368 65.8 209.986 64.1573 209.986 62.024C209.986 60.7013 209.73 59.4 209.218 58.12C208.749 56.7973 207.896 55.2827 206.658 53.576C205.677 52.2107 204.738 50.824 203.842 49.416C202.946 47.9653 202.498 46.2587 202.498 44.296C202.498 42.4613 202.946 40.8827 203.842 39.56C204.738 38.1947 205.933 37.128 207.426 36.36C208.962 35.592 210.626 35.208 212.418 35.208C213.656 35.208 214.872 35.3573 216.066 35.656C217.261 35.9547 218.242 36.5093 219.01 37.32C219.821 38.088 220.226 39.24 220.226 40.776C220.226 41.16 220.12 41.6293 219.906 42.184C219.736 42.696 219.437 43.144 219.01 43.528C218.584 43.912 218.008 44.104 217.282 44.104C216.6 44.104 216.002 43.8693 215.49 43.4C214.978 42.888 214.722 42.2267 214.722 41.416C214.722 40.648 214.872 39.9227 215.17 39.24C215.512 38.5147 215.96 37.8107 216.514 37.128C215.704 36.616 214.637 36.36 213.314 36.36C211.736 36.36 210.413 36.8933 209.346 37.96C208.28 39.0267 207.746 40.52 207.746 42.44C207.746 43.4213 207.896 44.296 208.194 45.064C208.493 45.7893 208.92 46.5573 209.474 47.368C210.072 48.1787 210.776 49.2027 211.586 50.44C212.653 52.0613 213.549 53.6187 214.274 55.112C215 56.6053 215.362 58.184 215.362 59.848C215.362 61.8107 214.85 63.56 213.826 65.096C212.845 66.5893 211.522 67.7627 209.858 68.616C208.194 69.4693 206.36 69.896 204.354 69.896C202.904 69.896 201.517 69.6827 200.194 69.256C198.872 68.8293 197.784 68.168 196.93 67.272C196.12 66.3333 195.714 65.096 195.714 63.56C195.714 62.9627 195.906 62.344 196.29 61.704C196.632 61.0213 197.272 60.68 198.21 60.68C199.234 60.68 199.96 61.1067 200.386 61.96C200.813 62.7707 201.026 63.688 201.026 64.712C201.026 65.3947 200.962 66.0133 200.834 66.568C200.749 67.08 200.664 67.5707 200.578 68.04ZM224.953 68.04C225.295 68.2107 225.657 68.36 226.041 68.488C226.468 68.5733 227.087 68.616 227.897 68.616C229.775 68.616 231.311 68.0613 232.505 66.952C233.743 65.8 234.361 64.1573 234.361 62.024C234.361 60.7013 234.105 59.4 233.593 58.12C233.124 56.7973 232.271 55.2827 231.033 53.576C230.052 52.2107 229.113 50.824 228.217 49.416C227.321 47.9653 226.873 46.2587 226.873 44.296C226.873 42.4613 227.321 40.8827 228.217 39.56C229.113 38.1947 230.308 37.128 231.801 36.36C233.337 35.592 235.001 35.208 236.793 35.208C238.031 35.208 239.247 35.3573 240.441 35.656C241.636 35.9547 242.617 36.5093 243.385 37.32C244.196 38.088 244.601 39.24 244.601 40.776C244.601 41.16 244.495 41.6293 244.281 42.184C244.111 42.696 243.812 43.144 243.385 43.528C242.959 43.912 242.383 44.104 241.657 44.104C240.975 44.104 240.377 43.8693 239.865 43.4C239.353 42.888 239.097 42.2267 239.097 41.416C239.097 40.648 239.247 39.9227 239.545 39.24C239.887 38.5147 240.335 37.8107 240.889 37.128C240.079 36.616 239.012 36.36 237.689 36.36C236.111 36.36 234.788 36.8933 233.721 37.96C232.655 39.0267 232.121 40.52 232.121 42.44C232.121 43.4213 232.271 44.296 232.569 45.064C232.868 45.7893 233.295 46.5573 233.849 47.368C234.447 48.1787 235.151 49.2027 235.961 50.44C237.028 52.0613 237.924 53.6187 238.649 55.112C239.375 56.6053 239.737 58.184 239.737 59.848C239.737 61.8107 239.225 63.56 238.201 65.096C237.22 66.5893 235.897 67.7627 234.233 68.616C232.569 69.4693 230.735 69.896 228.729 69.896C227.279 69.896 225.892 69.6827 224.569 69.256C223.247 68.8293 222.159 68.168 221.305 67.272C220.495 66.3333 220.089 65.096 220.089 63.56C220.089 62.9627 220.281 62.344 220.665 61.704C221.007 61.0213 221.647 60.68 222.585 60.68C223.609 60.68 224.335 61.1067 224.761 61.96C225.188 62.7707 225.401 63.688 225.401 64.712C225.401 65.3947 225.337 66.0133 225.209 66.568C225.124 67.08 225.039 67.5707 224.953 68.04ZM245.488 66.632C245.488 65.352 245.979 64.2213 246.96 63.24C247.942 62.216 249.03 61.704 250.224 61.704C251.206 61.704 251.995 62.024 252.592 62.664C253.19 63.304 253.488 64.0933 253.488 65.032C253.488 65.8853 253.254 66.696 252.784 67.464C252.358 68.1893 251.782 68.7653 251.056 69.192C250.331 69.6613 249.542 69.896 248.688 69.896C247.75 69.896 246.982 69.5973 246.384 69C245.787 68.36 245.488 67.5707 245.488 66.632ZM47.296 122.832C47.296 126.032 46.8053 129.168 45.824 132.24C44.8853 135.269 43.4987 138.107 41.664 140.752C39.872 143.355 37.7173 145.659 35.2 147.664C32.7253 149.627 29.952 151.184 26.88 152.336C23.808 153.445 20.5013 154 16.96 154C16.32 154 15.4667 153.979 14.4 153.936C13.3333 153.893 12.224 153.872 11.072 153.872C9.96266 153.829 8.93866 153.808 7.99999 153.808C7.01866 153.808 6.03732 153.829 5.05599 153.872C4.07466 153.872 3.17866 153.893 2.36799 153.936C1.55732 153.936 0.874657 153.957 0.31999 154L0.51199 152.72C1.87732 152.635 2.94399 152.464 3.71199 152.208C4.52266 151.952 5.16266 151.44 5.63199 150.672C6.10132 149.904 6.52799 148.752 6.91199 147.216L15.296 115.472C15.68 114.064 15.872 112.976 15.872 112.208C15.872 111.397 15.552 110.843 14.912 110.544C14.272 110.203 13.1627 110.011 11.584 109.968L11.776 108.688C12.3733 108.731 13.0987 108.773 13.952 108.816C14.8053 108.859 15.7227 108.88 16.704 108.88C17.6853 108.88 18.6453 108.88 19.584 108.88C20.5653 108.837 21.6533 108.816 22.848 108.816C24.0427 108.773 25.1947 108.752 26.304 108.752C27.456 108.709 28.4373 108.688 29.248 108.688C35.3067 108.688 39.8293 109.904 42.816 112.336C45.8027 114.725 47.296 118.224 47.296 122.832ZM16.192 152.848C19.4773 152.848 22.4427 152.293 25.088 151.184C27.7333 150.075 30.0587 148.517 32.064 146.512C34.0693 144.507 35.7333 142.181 37.056 139.536C38.4213 136.891 39.4453 134.011 40.128 130.896C40.8107 127.781 41.152 124.56 41.152 121.232C41.152 117.435 40.0853 114.597 37.952 112.72C35.8187 110.8 32.32 109.84 27.456 109.84C26.176 109.84 25.152 109.989 24.384 110.288C23.616 110.587 22.9973 111.141 22.528 111.952C22.0587 112.72 21.632 113.851 21.248 115.344L12.864 147.344C12.5227 148.581 12.3307 149.627 12.288 150.48C12.2453 151.291 12.5013 151.888 13.056 152.272C13.6533 152.656 14.6987 152.848 16.192 152.848ZM60.711 109.456C60.9243 108.347 61.479 107.387 62.375 106.576C63.3137 105.765 64.3163 105.36 65.383 105.36C66.4923 105.36 67.3457 105.765 67.943 106.576C68.583 107.387 68.7963 108.347 68.583 109.456C68.3697 110.565 67.7937 111.525 66.855 112.336C65.959 113.147 64.9563 113.552 63.847 113.552C62.7803 113.552 61.927 113.147 61.287 112.336C60.6897 111.525 60.4977 110.565 60.711 109.456ZM58.727 126.544C59.623 123.899 59.3243 122.576 57.831 122.576C56.8497 122.576 55.975 123.109 55.207 124.176C54.439 125.243 53.6283 126.885 52.775 129.104L51.879 131.472H50.663L52.327 126.8C52.967 125.008 53.735 123.643 54.631 122.704C55.527 121.765 56.4657 121.125 57.447 120.784C58.471 120.4 59.4097 120.208 60.263 120.208C61.6283 120.208 62.631 120.485 63.271 121.04C63.911 121.595 64.295 122.32 64.423 123.216C64.551 124.112 64.5083 125.093 64.295 126.16C64.0817 127.184 63.8043 128.187 63.463 129.168L56.615 148.56C56.1883 149.797 56.039 150.779 56.167 151.504C56.3377 152.187 56.8283 152.528 57.639 152.528C58.4923 152.528 59.303 152.059 60.071 151.12C60.839 150.181 61.6923 148.475 62.631 146L63.527 143.632H64.743L63.079 148.304C62.4817 149.968 61.7563 151.291 60.903 152.272C60.0497 153.211 59.1323 153.872 58.151 154.256C57.1697 154.683 56.1883 154.896 55.207 154.896C53.3723 154.896 52.135 154.469 51.495 153.616C50.855 152.763 50.6203 151.653 50.791 150.288C50.9617 148.923 51.3243 147.472 51.879 145.936L58.727 126.544ZM72.2155 122.384L72.5995 121.104H91.4795L91.0955 122.384H72.2155ZM92.8235 104.912C92.0128 104.912 91.3088 105.083 90.7115 105.424C90.1142 105.765 89.5808 106.149 89.1115 106.576C88.3435 107.301 87.6608 108.411 87.0635 109.904C86.5088 111.355 85.9755 113.04 85.4635 114.96C84.9942 116.88 84.4822 118.907 83.9275 121.04L72.0875 165.136C71.0635 165.179 70.0608 165.264 69.0795 165.392C68.0982 165.52 67.1808 165.733 66.3275 166.032L78.3595 121.04C79.2555 117.627 80.1942 114.811 81.1755 112.592C82.1995 110.373 83.4368 108.56 84.8875 107.152C85.8688 106.171 87.0635 105.403 88.4715 104.848C89.9222 104.251 91.3942 103.952 92.8875 103.952C94.8502 103.952 96.3435 104.4 97.3675 105.296C98.4342 106.149 98.9675 107.216 98.9675 108.496C98.9675 109.221 98.7755 109.925 98.3915 110.608C98.0075 111.291 97.4955 111.845 96.8555 112.272C96.2155 112.699 95.4902 112.912 94.6795 112.912C93.8688 112.912 93.2288 112.72 92.7595 112.336C92.2902 111.952 92.0768 111.419 92.1195 110.736C92.1195 109.669 92.4608 108.773 93.1435 108.048C93.8262 107.28 94.7008 106.747 95.7675 106.448C95.7675 106.064 95.4902 105.723 94.9355 105.424C94.3808 105.083 93.6768 104.912 92.8235 104.912ZM92.778 122.384L93.162 121.104H112.042L111.658 122.384H92.778ZM113.386 104.912C112.575 104.912 111.871 105.083 111.274 105.424C110.677 105.765 110.143 106.149 109.674 106.576C108.906 107.301 108.223 108.411 107.626 109.904C107.071 111.355 106.538 113.04 106.026 114.96C105.557 116.88 105.045 118.907 104.49 121.04L92.65 165.136C91.626 165.179 90.6233 165.264 89.642 165.392C88.6607 165.52 87.7433 165.733 86.89 166.032L98.922 121.04C99.818 117.627 100.757 114.811 101.738 112.592C102.762 110.373 103.999 108.56 105.45 107.152C106.431 106.171 107.626 105.403 109.034 104.848C110.485 104.251 111.957 103.952 113.45 103.952C115.413 103.952 116.906 104.4 117.93 105.296C118.997 106.149 119.53 107.216 119.53 108.496C119.53 109.221 119.338 109.925 118.954 110.608C118.57 111.291 118.058 111.845 117.418 112.272C116.778 112.699 116.053 112.912 115.242 112.912C114.431 112.912 113.791 112.72 113.322 112.336C112.853 111.952 112.639 111.419 112.682 110.736C112.682 109.669 113.023 108.773 113.706 108.048C114.389 107.28 115.263 106.747 116.33 106.448C116.33 106.064 116.053 105.723 115.498 105.424C114.943 105.083 114.239 104.912 113.386 104.912ZM114.428 139.472C116.818 138.661 118.972 137.872 120.892 137.104C122.855 136.293 124.412 135.44 125.564 134.544C127.1 133.307 128.316 131.813 129.212 130.064C130.108 128.315 130.556 126.395 130.556 124.304C130.556 123.067 130.471 122.277 130.3 121.936C130.13 121.595 129.874 121.424 129.532 121.424C128.466 121.424 127.314 121.893 126.076 122.832C124.839 123.771 123.623 125.072 122.428 126.736C121.234 128.357 120.124 130.213 119.1 132.304C118.119 134.395 117.33 136.635 116.732 139.024C116.135 141.371 115.836 143.717 115.836 146.064C115.836 148.24 116.242 149.819 117.052 150.8C117.863 151.739 118.93 152.208 120.252 152.208C121.788 152.208 123.41 151.739 125.116 150.8C126.823 149.861 128.487 148.197 130.108 145.808L131.132 146.32C130.322 147.728 129.255 149.093 127.932 150.416C126.61 151.739 125.116 152.827 123.452 153.68C121.831 154.491 120.103 154.896 118.268 154.896C116.562 154.896 115.068 154.555 113.788 153.872C112.508 153.189 111.527 152.187 110.844 150.864C110.162 149.499 109.82 147.835 109.82 145.872C109.82 144.037 110.162 141.989 110.844 139.728C111.527 137.424 112.487 135.141 113.724 132.88C115.004 130.576 116.519 128.464 118.268 126.544C120.018 124.624 121.959 123.088 124.092 121.936C126.226 120.784 128.508 120.208 130.94 120.208C132.263 120.208 133.372 120.571 134.268 121.296C135.207 121.979 135.676 123.024 135.676 124.432C135.676 126.139 135.164 127.739 134.14 129.232C133.159 130.683 131.836 132.027 130.172 133.264C128.551 134.459 126.78 135.525 124.86 136.464C122.94 137.403 121.063 138.213 119.228 138.896C117.394 139.579 115.772 140.133 114.364 140.56L114.428 139.472ZM144.234 154H138.666L146.346 126.544C146.773 125.093 146.901 124.069 146.73 123.472C146.602 122.875 146.175 122.576 145.45 122.576C144.511 122.576 143.658 123.067 142.89 124.048C142.122 125.029 141.311 126.715 140.458 129.104L139.626 131.472H138.41L140.01 126.8C140.65 125.008 141.397 123.643 142.25 122.704C143.146 121.765 144.063 121.125 145.002 120.784C145.983 120.4 146.901 120.208 147.754 120.208C149.034 120.208 149.93 120.485 150.442 121.04C150.997 121.595 151.295 122.32 151.338 123.216C151.423 124.112 151.359 125.093 151.146 126.16C150.975 127.184 150.762 128.187 150.506 129.168L144.234 154ZM160.682 121.808C159.701 121.808 158.677 122.277 157.61 123.216C156.586 124.112 155.519 125.435 154.41 127.184C153.343 128.891 152.255 130.96 151.146 133.392C150.079 135.781 149.013 138.448 147.946 141.392C146.922 144.336 145.919 147.515 144.938 150.928L146.538 142.736C147.946 138.555 149.247 135.035 150.442 132.176C151.679 129.317 152.895 127.013 154.09 125.264C155.285 123.472 156.501 122.192 157.738 121.424C159.018 120.613 160.362 120.208 161.77 120.208C162.965 120.208 163.882 120.549 164.522 121.232C165.205 121.915 165.546 122.789 165.546 123.856C165.546 124.709 165.333 125.499 164.906 126.224C164.479 126.907 163.925 127.461 163.242 127.888C162.602 128.272 161.877 128.464 161.066 128.464C160.341 128.464 159.722 128.272 159.21 127.888C158.741 127.461 158.506 126.885 158.506 126.16C158.506 125.477 158.634 124.88 158.89 124.368C159.146 123.813 159.487 123.344 159.914 122.96C160.341 122.576 160.831 122.277 161.386 122.064C161.301 121.979 161.194 121.915 161.066 121.872C160.981 121.829 160.853 121.808 160.682 121.808ZM167.866 139.472C170.255 138.661 172.41 137.872 174.33 137.104C176.293 136.293 177.85 135.44 179.002 134.544C180.538 133.307 181.754 131.813 182.65 130.064C183.546 128.315 183.994 126.395 183.994 124.304C183.994 123.067 183.909 122.277 183.738 121.936C183.567 121.595 183.311 121.424 182.97 121.424C181.903 121.424 180.751 121.893 179.514 122.832C178.277 123.771 177.061 125.072 175.866 126.736C174.671 128.357 173.562 130.213 172.538 132.304C171.557 134.395 170.767 136.635 170.17 139.024C169.573 141.371 169.274 143.717 169.274 146.064C169.274 148.24 169.679 149.819 170.49 150.8C171.301 151.739 172.367 152.208 173.69 152.208C175.226 152.208 176.847 151.739 178.554 150.8C180.261 149.861 181.925 148.197 183.546 145.808L184.57 146.32C183.759 147.728 182.693 149.093 181.37 150.416C180.047 151.739 178.554 152.827 176.89 153.68C175.269 154.491 173.541 154.896 171.706 154.896C169.999 154.896 168.506 154.555 167.226 153.872C165.946 153.189 164.965 152.187 164.282 150.864C163.599 149.499 163.258 147.835 163.258 145.872C163.258 144.037 163.599 141.989 164.282 139.728C164.965 137.424 165.925 135.141 167.162 132.88C168.442 130.576 169.957 128.464 171.706 126.544C173.455 124.624 175.397 123.088 177.53 121.936C179.663 120.784 181.946 120.208 184.378 120.208C185.701 120.208 186.81 120.571 187.706 121.296C188.645 121.979 189.114 123.024 189.114 124.432C189.114 126.139 188.602 127.739 187.578 129.232C186.597 130.683 185.274 132.027 183.61 133.264C181.989 134.459 180.218 135.525 178.298 136.464C176.378 137.403 174.501 138.213 172.666 138.896C170.831 139.579 169.21 140.133 167.802 140.56L167.866 139.472ZM197.735 154H192.167L199.847 126.544C200.018 126.032 200.146 125.477 200.231 124.88C200.359 124.24 200.338 123.707 200.167 123.28C199.997 122.811 199.57 122.576 198.887 122.576C197.949 122.576 197.117 123.045 196.391 123.984C195.666 124.88 194.855 126.587 193.959 129.104L193.127 131.472H191.911L193.511 126.8C194.45 124.112 195.602 122.341 196.967 121.488C198.375 120.635 199.762 120.208 201.127 120.208C202.407 120.208 203.325 120.485 203.879 121.04C204.477 121.595 204.797 122.32 204.839 123.216C204.925 124.069 204.861 125.029 204.647 126.096C204.477 127.12 204.263 128.144 204.007 129.168L197.735 154ZM200.679 140.688C202.173 136.848 203.623 133.627 205.031 131.024C206.439 128.421 207.826 126.331 209.191 124.752C210.557 123.131 211.943 121.979 213.351 121.296C214.802 120.571 216.295 120.208 217.831 120.208C219.837 120.208 221.202 120.699 221.927 121.68C222.695 122.619 223.037 123.835 222.951 125.328C222.866 126.779 222.567 128.293 222.055 129.872L215.847 148.56C215.463 149.712 215.293 150.672 215.335 151.44C215.421 152.165 215.933 152.528 216.871 152.528C217.682 152.528 218.471 152.08 219.239 151.184C220.05 150.288 220.903 148.56 221.799 146L222.631 143.632H223.847L222.247 148.304C221.65 150.096 220.903 151.461 220.007 152.4C219.154 153.339 218.237 153.979 217.255 154.32C216.317 154.704 215.399 154.896 214.503 154.896C213.479 154.896 212.626 154.725 211.943 154.384C211.303 154.043 210.813 153.595 210.471 153.04C210.002 152.272 209.853 151.269 210.023 150.032C210.194 148.795 210.535 147.429 211.047 145.936L217.127 127.632C217.341 127.035 217.511 126.331 217.639 125.52C217.81 124.667 217.789 123.92 217.575 123.28C217.362 122.597 216.743 122.256 215.719 122.256C214.695 122.256 213.607 122.704 212.455 123.6C211.303 124.496 210.109 125.776 208.871 127.44C207.634 129.061 206.418 131.024 205.223 133.328C204.029 135.589 202.877 138.107 201.767 140.88C200.701 143.611 199.719 146.533 198.823 149.648L200.679 140.688ZM251.052 121.104L250.86 122.384H230.956L231.276 121.104H251.052ZM234.796 148.56C234.412 149.968 234.498 150.992 235.052 151.632C235.65 152.229 236.418 152.528 237.356 152.528C238.295 152.528 239.234 152.123 240.172 151.312C241.154 150.501 242.114 148.773 243.052 146.128L243.948 143.632H245.164L243.82 147.664C242.882 150.437 241.666 152.336 240.172 153.36C238.722 154.384 237.015 154.896 235.052 154.896C233.303 154.896 231.959 154.533 231.02 153.808C230.124 153.04 229.591 151.973 229.42 150.608C229.25 149.243 229.42 147.685 229.932 145.936L239.852 111.376C240.876 111.333 241.879 111.248 242.86 111.12C243.884 110.992 244.802 110.779 245.612 110.48L234.796 148.56ZM256.808 150.48C256.808 152.699 255.976 154.896 254.312 157.072C252.648 159.291 250.344 161.125 247.4 162.576L247.08 161.68C249.086 160.443 250.686 159.099 251.88 157.648C253.075 156.197 253.736 154.747 253.864 153.296C253.352 153.723 252.819 154.085 252.264 154.384C251.71 154.725 251.134 154.896 250.536 154.896C249.768 154.896 249.171 154.683 248.744 154.256C248.318 153.872 248.104 153.339 248.104 152.656C248.104 151.717 248.382 150.8 248.936 149.904C249.534 149.008 250.28 148.261 251.176 147.664C252.072 147.024 253.011 146.704 253.992 146.704C254.974 146.704 255.678 147.088 256.104 147.856C256.574 148.624 256.808 149.499 256.808 150.48Z" fill="#D8DFDE"/>
<path d="M24.152 216.976H9.51199L9.24799 220.552H22.976C22.928 223.448 22.728 226.392 22.376 229.384C22.248 230.504 22.056 231.344 21.8 231.904C21.56 232.448 21.168 232.832 20.624 233.056C20.096 233.296 19.304 233.424 18.248 233.44H17.264C15.92 233.44 14.776 233.4 13.832 233.32L13.448 231.4C14.76 231.528 15.976 231.592 17.096 231.592C18.008 231.592 18.664 231.544 19.064 231.448C19.464 231.336 19.76 231.112 19.952 230.776C20.144 230.424 20.296 229.832 20.408 229C20.712 226.872 20.864 224.72 20.864 222.544H7.03999L7.85599 212.128H9.87199L9.65599 215.08H24.152V216.976ZM3.36799 225.736H19.112V227.632H3.36799V225.736ZM38.312 214.216C37.208 215.576 35.864 216.856 34.28 218.056C32.696 219.24 30.752 220.44 28.448 221.656L27.368 219.76C29.784 218.576 31.792 217.376 33.392 216.16C35.008 214.944 36.336 213.584 37.376 212.08H39.2C40.288 213.664 41.616 215.056 43.184 216.256C44.768 217.456 46.752 218.624 49.136 219.76L48.104 221.656C45.864 220.552 43.96 219.4 42.392 218.2C40.824 217 39.464 215.672 38.312 214.216ZM37.064 228.496C36.552 227.872 35.568 226.744 34.112 225.112C33.728 226.632 33.128 228.064 32.312 229.408C31.512 230.736 30.4 232.16 28.976 233.68L27.296 232.288C28.544 231.088 29.536 229.968 30.272 228.928C31.008 227.872 31.56 226.768 31.928 225.616C32.312 224.464 32.56 223.136 32.672 221.632C32.768 220.656 32.816 220.088 32.816 219.928H34.784C34.784 220.184 34.768 220.496 34.736 220.864C34.704 221.216 34.672 221.512 34.64 221.752C34.608 222.168 34.576 222.496 34.544 222.736C36.08 224.384 37.4 225.824 38.504 227.056L37.064 228.496ZM42.728 222.304C43.048 224.288 43.736 226.072 44.792 227.656C45.864 229.24 47.344 230.704 49.232 232.048L47.888 233.68C44.976 231.44 42.992 228.928 41.936 226.144C41.456 227.568 40.744 228.896 39.8 230.128C38.872 231.36 37.64 232.64 36.104 233.968L34.52 232.456C35.976 231.304 37.144 230.192 38.024 229.12C38.904 228.048 39.56 226.928 39.992 225.76C40.424 224.592 40.696 223.264 40.808 221.776L40.88 220.912C40.928 220.528 40.952 220.2 40.952 219.928H42.944L42.776 221.848C42.776 221.96 42.76 222.112 42.728 222.304ZM64.736 215.392C64.352 216.128 63.848 216.968 63.224 217.912V233.656H61.256V220.6C59 223.448 56.136 226.176 52.664 228.784L51.416 227.008C53.848 225.328 55.992 223.504 57.848 221.536C59.72 219.552 61.24 217.504 62.408 215.392H52.256V213.4H72.296V215.392H64.736ZM65.048 219.832C66.168 220.712 67.536 221.864 69.152 223.288C70.768 224.696 72.048 225.872 72.992 226.816L71.504 228.496C70.592 227.52 69.376 226.328 67.856 224.92C66.352 223.496 65.008 222.296 63.824 221.32L65.048 219.832ZM95.528 230.464C95.528 231.248 95.448 231.856 95.288 232.288C95.144 232.72 94.888 233.024 94.52 233.2C94.168 233.392 93.664 233.496 93.008 233.512C92.032 233.528 91.056 233.48 90.08 233.368L89.72 231.568C90.504 231.696 91.392 231.76 92.384 231.76C92.864 231.76 93.184 231.632 93.344 231.376C93.52 231.104 93.608 230.632 93.608 229.96V214.984H78.56V233.56H76.664V213.184H95.528V230.464ZM80.072 217.6H92.12V219.328H80.072V217.6ZM81.488 221.872H90.68V229.528H81.488V221.872ZM83.24 223.528V227.872H88.928V223.528H83.24ZM103.4 229.552C103.864 229.552 104.24 229.736 104.528 230.104C104.816 230.456 104.96 231.008 104.96 231.76C104.96 232.48 104.824 233.12 104.552 233.68C104.296 234.256 103.936 234.72 103.472 235.072C103.008 235.424 102.472 235.656 101.864 235.768V234.64C102.408 234.464 102.824 234.184 103.112 233.8C103.4 233.416 103.56 232.92 103.592 232.312C103.56 232.328 103.52 232.336 103.472 232.336C103.44 232.336 103.408 232.336 103.376 232.336C102.976 232.336 102.656 232.2 102.416 231.928C102.192 231.656 102.08 231.328 102.08 230.944C102.08 230.544 102.2 230.216 102.44 229.96C102.696 229.688 103.016 229.552 103.4 229.552ZM144.656 217.144H138.128V230.536C138.128 231.304 138.032 231.904 137.84 232.336C137.648 232.784 137.296 233.104 136.784 233.296C136.288 233.504 135.568 233.608 134.624 233.608C133.904 233.608 133.168 233.56 132.416 233.464L132.008 231.52C132.872 231.664 133.736 231.736 134.6 231.736C135.048 231.736 135.384 231.68 135.608 231.568C135.832 231.456 135.976 231.288 136.04 231.064C136.12 230.824 136.16 230.472 136.16 230.008V217.144H132.632C132.632 218.68 132.592 220.248 132.512 221.848C132.4 224.072 132.16 225.864 131.792 227.224C131.44 228.584 130.872 229.776 130.088 230.8C129.32 231.808 128.192 232.92 126.704 234.136L125.168 232.672C126.608 231.6 127.688 230.608 128.408 229.696C129.128 228.768 129.64 227.712 129.944 226.528C130.248 225.328 130.448 223.704 130.544 221.656C130.624 220.12 130.664 218.616 130.664 217.144H123.728V215.296H133.568C132.928 213.824 132.488 212.864 132.248 212.416L134.264 211.6C134.616 212.288 135.088 213.304 135.68 214.648L135.968 215.296H144.656V217.144ZM140.888 219.472C141.4 220.496 142.072 221.936 142.904 223.792C143.752 225.632 144.432 227.176 144.944 228.424L143.072 229.24C142.64 228.168 142.032 226.736 141.248 224.944C140.464 223.136 139.768 221.56 139.16 220.216L140.888 219.472ZM128.696 220.12C128.232 221.624 127.672 223.152 127.016 224.704C126.36 226.24 125.632 227.672 124.832 229L123.176 228.064C124.76 225.504 125.992 222.672 126.872 219.568L128.696 220.12ZM168.68 220.12V221.92H157.856C157.408 224.48 156.512 226.688 155.168 228.544C153.84 230.4 151.808 232.152 149.072 233.8L147.92 232.024C150.368 230.6 152.2 229.096 153.416 227.512C154.648 225.928 155.48 224.064 155.912 221.92H147.8V220.12H156.2C156.264 219.576 156.328 218.808 156.392 217.816C156.408 217.576 156.416 217.296 156.416 216.976C156.416 216.64 156.424 216.304 156.44 215.968L156.464 215.104H149.168V213.304H167.288V215.104H158.336L158.312 216.064C158.296 216.4 158.288 216.736 158.288 217.072C158.288 217.408 158.28 217.696 158.264 217.936C158.248 218.464 158.192 219.192 158.096 220.12H168.68ZM166.712 229.456C166.76 228.352 166.784 227.432 166.784 226.696L168.68 227.056L168.536 230.272C168.504 230.96 168.392 231.488 168.2 231.856C168.008 232.224 167.704 232.488 167.288 232.648C166.888 232.824 166.304 232.936 165.536 232.984C164.848 233.032 164.2 233.056 163.592 233.056C163 233.056 162.352 233.032 161.648 232.984C160.688 232.92 160 232.672 159.584 232.24C159.168 231.824 158.96 231.064 158.96 229.96V223.216H160.88V229.432C160.88 230.056 160.984 230.496 161.192 230.752C161.416 230.992 161.792 231.128 162.32 231.16C162.992 231.192 163.448 231.208 163.688 231.208C163.928 231.208 164.384 231.192 165.056 231.16C165.696 231.112 166.128 230.984 166.352 230.776C166.576 230.552 166.696 230.112 166.712 229.456ZM184.544 220.816V231.016H192.968V232.888H171.392V231.016H175.328V215.824H177.296V231.016H182.552V211.792H184.544V218.848H191.816V220.816H184.544ZM217.04 217.624V219.16H202.472V217.624H205.952C205.76 216.568 205.608 215.776 205.496 215.248H202.88V213.712H208.52C208.136 212.832 207.864 212.248 207.704 211.96L209.552 211.48C209.792 211.912 210.12 212.656 210.536 213.712H216.344V215.248H213.488L213.056 217.624H217.04ZM202.376 228.664C200.344 229.368 198.048 230.104 195.488 230.872L195.104 228.976L198.008 228.088V219.832H195.536V217.96H198.008V211.768H199.832V217.96H201.872V219.832H199.832V227.512C200.728 227.224 201.536 226.952 202.256 226.696L202.376 228.664ZM207.224 215.248L207.68 217.624H211.328L211.76 215.248H207.224ZM217.256 228.976C217.256 229.712 217.224 230.424 217.16 231.112C217.112 231.688 217.016 232.112 216.872 232.384C216.744 232.672 216.528 232.88 216.224 233.008C215.936 233.136 215.496 233.216 214.904 233.248C214.328 233.28 213.896 233.296 213.608 233.296C213.304 233.296 212.864 233.28 212.288 233.248C211.536 233.216 211.024 233.048 210.752 232.744C210.48 232.456 210.344 231.928 210.344 231.16V227.944H207.896C207.88 227.976 207.872 228.032 207.872 228.112C207.824 229.168 207.552 230.048 207.056 230.752C206.576 231.44 205.88 232.024 204.968 232.504C204.072 233 202.864 233.496 201.344 233.992L200.528 232.384C201.872 232 202.936 231.608 203.72 231.208C204.504 230.792 205.072 230.344 205.424 229.864C205.776 229.368 205.984 228.792 206.048 228.136C206.048 228.056 206.056 227.992 206.072 227.944H203.384V220.744H215.336V227.944H212.096V230.512C212.096 230.96 212.16 231.256 212.288 231.4C212.416 231.544 212.688 231.64 213.104 231.688C213.264 231.704 213.504 231.712 213.824 231.712C214.128 231.712 214.36 231.704 214.52 231.688C214.92 231.656 215.184 231.568 215.312 231.424C215.44 231.28 215.52 230.984 215.552 230.536C215.6 229.912 215.624 229.272 215.624 228.616L217.256 228.976ZM213.584 223.648V222.232H205.136V223.648H213.584ZM213.584 225.064H205.136V226.504H213.584V225.064Z" fill="#AAB3B2"/>
</svg>
