<svg width="477" height="153" viewBox="0 0 477 153" fill="none" xmlns="http://www.w3.org/2000/svg">
<path d="M42.144 73.64C41.184 78.76 39.136 82.696 36 85.448C32.48 88.52 27.904 90.056 22.272 90.056C16.064 90.056 11.008 88.36 7.104 84.968C3.264 81.512 1.152 77.032 0.768 71.528L7.584 67.784C7.904 70.984 8.736 73.736 10.08 76.04C11.488 78.28 13.248 79.976 15.36 81.128C17.472 82.28 19.84 82.856 22.464 82.856C24.384 82.856 26.08 82.536 27.552 81.896C29.024 81.256 30.272 80.328 31.296 79.112C32.64 77.512 33.504 75.464 33.888 72.968C34.336 70.28 34.112 67.944 33.216 65.96C32.32 63.976 31.072 62.312 29.472 60.968C27.872 59.56 25.632 57.864 22.752 55.88C19.488 53.64 16.896 51.656 14.976 49.928C13.056 48.136 11.552 45.896 10.464 43.208C9.376 40.456 9.152 37.192 9.792 33.416C10.752 28.168 13.184 24.136 17.088 21.32C20.672 18.824 24.992 17.576 30.048 17.576C33.568 17.576 36.64 18.248 39.264 19.592C41.888 20.872 43.904 22.696 45.312 25.064C46.784 27.368 47.584 30.056 47.712 33.128L40.992 36.776C40.48 32.936 39.328 29.992 37.536 27.944C35.744 25.832 33.12 24.776 29.664 24.776C26.656 24.776 24.064 25.608 21.888 27.272C19.904 28.936 18.688 31.176 18.24 33.992C17.792 36.424 17.984 38.568 18.816 40.424C19.712 42.216 20.928 43.784 22.464 45.128C24 46.408 26.144 47.944 28.896 49.736C32.288 51.912 34.976 53.928 36.96 55.784C38.944 57.64 40.48 60.04 41.568 62.984C42.72 65.864 42.912 69.416 42.144 73.64ZM67.2495 82.856C69.5535 82.856 71.6335 82.28 73.4895 81.128C75.3455 79.912 77.0415 77.96 78.5775 75.272L84.0495 79.208C82.1935 82.856 79.6655 85.576 76.4655 87.368C73.3295 89.16 69.9695 90.056 66.3855 90.056C62.3535 90.056 58.8975 89 56.0175 86.888C53.1375 84.712 51.1215 81.576 49.9695 77.48C48.8175 73.32 48.7535 68.36 49.7775 62.6C50.7375 56.968 52.4335 52.328 54.8655 48.68C57.2975 44.968 60.1455 42.28 63.4095 40.616C66.6735 38.888 70.0655 38.024 73.5855 38.024C77.7455 38.024 81.0415 39.176 83.4735 41.48C85.9055 43.72 87.1215 46.888 87.1215 50.984C87.1215 56.808 84.6575 60.904 79.7295 63.272C74.8655 65.64 67.4735 66.504 57.5535 65.864C56.9775 71.752 57.5535 76.072 59.2815 78.824C61.0735 81.512 63.7295 82.856 67.2495 82.856ZM72.3375 45.128C69.2655 45.128 66.5135 46.216 64.0815 48.392C61.6495 50.504 59.8255 54.152 58.6095 59.336C65.5215 59.912 70.6415 59.624 73.9695 58.472C77.3615 57.32 79.0575 54.952 79.0575 51.368C79.0575 49.32 78.5135 47.784 77.4255 46.76C76.3375 45.672 74.6415 45.128 72.3375 45.128ZM108.781 82.856C111.085 82.856 113.165 82.28 115.021 81.128C116.877 79.912 118.573 77.96 120.109 75.272L125.581 79.208C123.725 82.856 121.197 85.576 117.997 87.368C114.861 89.16 111.501 90.056 107.917 90.056C103.885 90.056 100.429 89 97.5488 86.888C94.6688 84.712 92.6528 81.576 91.5008 77.48C90.3488 73.32 90.2848 68.36 91.3088 62.6C92.2688 56.968 93.9648 52.328 96.3968 48.68C98.8288 44.968 101.677 42.28 104.941 40.616C108.205 38.888 111.597 38.024 115.117 38.024C119.277 38.024 122.573 39.176 125.005 41.48C127.437 43.72 128.653 46.888 128.653 50.984C128.653 56.808 126.189 60.904 121.261 63.272C116.397 65.64 109.005 66.504 99.0848 65.864C98.5088 71.752 99.0848 76.072 100.813 78.824C102.605 81.512 105.261 82.856 108.781 82.856ZM113.869 45.128C110.797 45.128 108.045 46.216 105.613 48.392C103.181 50.504 101.357 54.152 100.141 59.336C107.053 59.912 112.173 59.624 115.501 58.472C118.893 57.32 120.589 54.952 120.589 51.368C120.589 49.32 120.045 47.784 118.957 46.76C117.869 45.672 116.173 45.128 113.869 45.128ZM196.795 18.728H205.915L179.035 59.528L173.755 89H165.787L171.067 59.048L157.531 18.728H166.555L176.539 50.6L196.795 18.728ZM194.162 62.6C195.634 54.216 198.45 48.04 202.609 44.072C206.77 40.04 211.634 38.024 217.202 38.024C221.362 38.024 224.818 39.112 227.57 41.288C230.322 43.4 232.21 46.536 233.234 50.696C234.258 54.856 234.258 59.88 233.234 65.768C231.762 74.088 228.914 80.232 224.69 84.2C220.466 88.104 215.602 90.056 210.098 90.056C206.002 90.056 202.578 89 199.826 86.888C197.074 84.712 195.186 81.576 194.162 77.48C193.138 73.32 193.138 68.36 194.162 62.6ZM202.034 63.368C201.266 67.72 201.17 71.368 201.746 74.312C202.322 77.192 203.41 79.368 205.01 80.84C206.61 82.248 208.594 82.952 210.962 82.952C214.226 82.952 217.17 81.512 219.794 78.632C222.418 75.752 224.274 71.208 225.362 65C226.13 60.52 226.258 56.808 225.746 53.864C225.234 50.856 224.178 48.648 222.578 47.24C221.042 45.768 219.058 45.032 216.626 45.032C213.362 45.032 210.386 46.472 207.698 49.352C205.074 52.168 203.186 56.84 202.034 63.368ZM253.128 90.056C248.584 90.056 245.192 88.296 242.952 84.776C240.776 81.256 240.296 76.104 241.512 69.32L246.888 39.08H254.472L249.288 68.456C248.392 73.32 248.488 76.968 249.576 79.4C250.664 81.768 252.744 82.952 255.816 82.952C258.888 82.952 261.704 81.8 264.264 79.496C266.824 77.192 268.52 73.704 269.352 69.032L274.728 39.08H282.312L273.48 89H266.76C266.888 88.552 266.984 88.072 267.048 87.56C267.112 87.048 267.176 86.472 267.24 85.832C267.368 85.064 267.496 83.848 267.624 82.184C265.768 84.808 263.56 86.792 261 88.136C258.504 89.416 255.88 90.056 253.128 90.056ZM316.346 90.056C312.186 90.056 308.89 89.064 306.458 87.08C304.026 85.096 302.554 82.024 302.042 77.864L309.242 73.928C309.69 77.128 310.458 79.432 311.546 80.84C312.634 82.184 314.234 82.856 316.346 82.856C319.226 82.856 321.402 81.704 322.874 79.4C324.41 77.096 325.594 73.64 326.426 69.032L335.354 18.728H343.418L334.394 69.896C333.178 76.616 331.258 81.672 328.634 85.064C326.01 88.392 321.914 90.056 316.346 90.056ZM357.659 90.056C353.115 90.056 349.723 88.296 347.483 84.776C345.307 81.256 344.827 76.104 346.043 69.32L351.419 39.08H359.003L353.819 68.456C352.923 73.32 353.019 76.968 354.107 79.4C355.195 81.768 357.275 82.952 360.347 82.952C363.419 82.952 366.235 81.8 368.795 79.496C371.355 77.192 373.051 73.704 373.883 69.032L379.259 39.08H386.843L378.011 89H371.291C371.419 88.552 371.515 88.072 371.579 87.56C371.643 87.048 371.707 86.472 371.771 85.832C371.899 85.064 372.027 83.848 372.155 82.184C370.299 84.808 368.091 86.792 365.531 88.136C363.035 89.416 360.411 90.056 357.659 90.056ZM419.131 38.024C423.675 38.024 427.035 39.784 429.211 43.304C431.451 46.824 431.963 51.976 430.747 58.76L425.371 89H417.787L422.971 59.624C423.867 54.76 423.771 51.144 422.683 48.776C421.595 46.344 419.515 45.128 416.443 45.128C413.371 45.128 410.555 46.28 407.995 48.584C405.435 50.888 403.739 54.376 402.907 59.048L397.531 89H389.947L398.779 39.08H405.499C405.499 39.272 405.339 40.328 405.019 42.248L404.635 45.896C406.491 43.272 408.667 41.32 411.163 40.04C413.723 38.696 416.379 38.024 419.131 38.024ZM456.218 82.856C458.522 82.856 460.602 82.28 462.458 81.128C464.314 79.912 466.01 77.96 467.546 75.272L473.018 79.208C471.162 82.856 468.634 85.576 465.434 87.368C462.298 89.16 458.938 90.056 455.354 90.056C451.322 90.056 447.866 89 444.986 86.888C442.106 84.712 440.09 81.576 438.938 77.48C437.786 73.32 437.722 68.36 438.746 62.6C439.706 56.968 441.402 52.328 443.834 48.68C446.266 44.968 449.114 42.28 452.378 40.616C455.642 38.888 459.034 38.024 462.554 38.024C466.714 38.024 470.01 39.176 472.442 41.48C474.874 43.72 476.09 46.888 476.09 50.984C476.09 56.808 473.626 60.904 468.698 63.272C463.834 65.64 456.442 66.504 446.522 65.864C445.946 71.752 446.522 76.072 448.25 78.824C450.042 81.512 452.698 82.856 456.218 82.856ZM461.306 45.128C458.234 45.128 455.482 46.216 453.05 48.392C450.618 50.504 448.794 54.152 447.578 59.336C454.49 59.912 459.61 59.624 462.938 58.472C466.33 57.32 468.026 54.952 468.026 51.368C468.026 49.32 467.482 47.784 466.394 46.76C465.306 45.672 463.61 45.128 461.306 45.128Z" fill="#FAFAFA"/>
<path d="M172.538 125.108C173.162 125.888 173.829 126.746 174.54 127.682C175.251 128.601 175.779 129.311 176.126 129.814L174.15 131.114C173.786 130.542 173.249 129.779 172.538 128.826C171.845 127.873 171.221 127.049 170.666 126.356L172.538 125.108ZM161.904 131.79H185.096V133.896H161.904V131.79ZM177.764 135.768C178.665 137.12 179.818 138.966 181.222 141.306C182.626 143.629 183.831 145.674 184.836 147.442L182.782 148.638C182.019 147.182 180.927 145.275 179.506 142.918C178.102 140.543 176.88 138.55 175.84 136.938L177.764 135.768ZM162.216 147.416C163.533 145.891 164.781 144.105 165.96 142.06C167.139 140.015 168.083 138.039 168.794 136.132L170.978 136.99C170.146 139.053 169.115 141.141 167.884 143.256C166.653 145.371 165.397 147.217 164.114 148.794L162.216 147.416ZM207.56 126.382V145.076C207.56 146.047 207.439 146.766 207.196 147.234C206.971 147.719 206.563 148.049 205.974 148.222C205.385 148.413 204.509 148.508 203.348 148.508C202.533 148.508 201.623 148.465 200.618 148.378L200.202 146.324C201.589 146.463 202.629 146.532 203.322 146.532C203.946 146.532 204.405 146.48 204.7 146.376C204.995 146.272 205.194 146.09 205.298 145.83C205.402 145.57 205.454 145.18 205.454 144.66V141.046H193.676C193.468 142.658 193.087 144.088 192.532 145.336C191.995 146.567 191.189 147.884 190.114 149.288L188.216 147.988C189.291 146.688 190.071 145.518 190.556 144.478C191.059 143.421 191.397 142.233 191.57 140.916C191.743 139.599 191.83 137.77 191.83 135.43V126.382H207.56ZM205.454 132.856V128.358H193.936V132.856H205.454ZM205.454 139.096V134.806H193.936V135.664C193.936 136.912 193.91 138.056 193.858 139.096H205.454ZM218.09 144.348C218.593 144.348 219 144.547 219.312 144.946C219.624 145.327 219.78 145.925 219.78 146.74C219.78 147.52 219.633 148.213 219.338 148.82C219.061 149.444 218.671 149.947 218.168 150.328C217.665 150.709 217.085 150.961 216.426 151.082V149.86C217.015 149.669 217.466 149.366 217.778 148.95C218.09 148.534 218.263 147.997 218.298 147.338C218.263 147.355 218.22 147.364 218.168 147.364C218.133 147.364 218.099 147.364 218.064 147.364C217.631 147.364 217.284 147.217 217.024 146.922C216.781 146.627 216.66 146.272 216.66 145.856C216.66 145.423 216.79 145.067 217.05 144.79C217.327 144.495 217.674 144.348 218.09 144.348ZM257.61 128.514H245.416V141.098H243.232V126.408H259.794V141.098H257.61V128.514ZM262.654 142.138L262.472 145.18C262.42 145.977 262.29 146.575 262.082 146.974C261.891 147.373 261.553 147.659 261.068 147.832C260.6 148.005 259.898 148.127 258.962 148.196C258.217 148.248 257.463 148.274 256.7 148.274C255.937 148.274 255.175 148.248 254.412 148.196C253.597 148.144 252.973 148.014 252.54 147.806C252.107 147.598 251.795 147.269 251.604 146.818C251.413 146.35 251.318 145.683 251.318 144.816V140.838C250.555 142.45 249.359 143.897 247.73 145.18C246.101 146.463 243.882 147.711 241.074 148.924L239.722 147C242.495 145.891 244.627 144.79 246.118 143.698C247.609 142.606 248.657 141.401 249.264 140.084C249.871 138.767 250.209 137.129 250.278 135.17C250.347 132.882 250.382 131.157 250.382 129.996H252.644C252.644 130.724 252.627 131.617 252.592 132.674C252.575 133.731 252.549 134.615 252.514 135.326C252.462 136.609 252.315 137.727 252.072 138.68H253.502V144.192C253.502 144.729 253.545 145.128 253.632 145.388C253.719 145.631 253.875 145.804 254.1 145.908C254.343 146.012 254.724 146.09 255.244 146.142C255.764 146.194 256.275 146.22 256.778 146.22C257.281 146.22 257.783 146.194 258.286 146.142C258.893 146.073 259.343 145.986 259.638 145.882C259.933 145.778 260.132 145.605 260.236 145.362C260.357 145.119 260.435 144.747 260.47 144.244C260.522 142.892 260.548 142.034 260.548 141.67L262.654 142.138ZM280.542 137.146C281.547 138.862 282.804 140.431 284.312 141.852C285.837 143.273 287.562 144.461 289.486 145.414L288.16 147.364C285.976 146.151 284.078 144.66 282.466 142.892C280.871 141.124 279.571 139.209 278.566 137.146H278.514V148.716H276.512V137.146H276.434C275.359 139.33 274.111 141.219 272.69 142.814C271.269 144.409 269.319 145.925 266.84 147.364L265.488 145.44C267.672 144.313 269.475 143.065 270.896 141.696C272.335 140.327 273.522 138.81 274.458 137.146H266.372V135.144H276.512V130.88H268.062V128.878H276.512V125.108H278.514V128.878H286.964V130.88H278.514V135.144H288.628V137.146H280.542ZM306.126 138.524C307.27 139.963 308.579 141.237 310.052 142.346C311.543 143.455 313.311 144.461 315.356 145.362L314.368 147.364C312.132 146.307 310.225 145.102 308.648 143.75C307.088 142.398 305.701 140.821 304.488 139.018V148.95H302.408V139.096C301.177 140.916 299.765 142.519 298.17 143.906C296.593 145.293 294.738 146.497 292.606 147.52L291.566 145.466C293.559 144.565 295.301 143.551 296.792 142.424C298.3 141.28 299.635 139.98 300.796 138.524H292.008V136.522H302.408V130.126H293.022V128.098H302.408V125.056H304.488V128.098H313.926V130.126H304.488V136.522H314.94V138.524H306.126ZM306.984 134.598C307.591 134.009 308.197 133.359 308.804 132.648C309.411 131.92 309.905 131.27 310.286 130.698L311.95 131.842C311.499 132.518 310.962 133.229 310.338 133.974C309.714 134.719 309.099 135.395 308.492 136.002L306.984 134.598ZM296.688 130.828C297.589 131.66 298.673 132.917 299.938 134.598L298.326 136.002C297.407 134.685 296.333 133.367 295.102 132.05L296.688 130.828Z" fill="#AAB3B2"/>
</svg>
