<svg width="214" height="25" viewBox="0 0 214 25" fill="none" xmlns="http://www.w3.org/2000/svg">
<path d="M20.7839 5.23198H6.14395L5.87995 8.80798H19.6079C19.5599 11.704 19.3599 14.648 19.0079 17.64C18.8799 18.76 18.6879 19.6 18.4319 20.16C18.1919 20.704 17.7999 21.088 17.2559 21.312C16.7279 21.552 15.9359 21.68 14.8799 21.696H13.8959C12.5519 21.696 11.4079 21.656 10.4639 21.576L10.0799 19.656C11.3919 19.784 12.6079 19.848 13.7279 19.848C14.6399 19.848 15.2959 19.8 15.6959 19.704C16.0959 19.592 16.3919 19.368 16.5839 19.032C16.7759 18.68 16.9279 18.088 17.0399 17.256C17.3439 15.128 17.4959 12.976 17.4959 10.8H3.67195L4.48795 0.38398H6.50395L6.28795 3.33598H20.7839V5.23198ZM-5.1707e-05 13.992H15.7439V15.888H-5.1707e-05V13.992ZM29.9759 8.99998C30.8719 7.76798 31.7199 6.35198 32.5199 4.75198C33.3359 3.15198 33.9599 1.60798 34.3919 0.11998L36.3119 0.503981C36.0399 1.38398 35.6879 2.31998 35.2559 3.31198H45.1679V5.13598L43.1519 9.16798L41.3519 8.51998L43.0799 5.13598H34.4399C33.6239 6.81598 32.6799 8.45598 31.6079 10.056L29.9759 8.99998ZM30.4559 0.767981C29.8479 2.71998 29.2239 4.39198 28.5839 5.78398V21.936H26.7119V9.43198C26.1679 10.36 25.4799 11.384 24.6479 12.504L23.6159 10.8C24.5439 9.50398 25.4559 7.90398 26.3519 5.99998C27.2639 4.09598 27.9839 2.19198 28.5119 0.287981L30.4559 0.767981ZM37.1039 7.05598H38.9759V19.176C38.9759 20.088 38.7839 20.744 38.3999 21.144C38.0159 21.56 37.3679 21.768 36.4559 21.768C35.5439 21.768 34.6879 21.712 33.8879 21.6L33.5039 19.704C34.1599 19.816 34.9039 19.896 35.7359 19.944C36.2319 19.976 36.5839 19.872 36.7919 19.632C36.9999 19.392 37.1039 19.008 37.1039 18.48V7.05598ZM42.3599 10.2C43.3359 12.616 44.4879 15.56 45.8159 19.032L44.0399 19.704L43.4879 18.24C42.1279 14.656 41.1839 12.192 40.6559 10.848L42.3599 10.2ZM34.7519 10.944C34.3999 12.304 33.9199 13.792 33.3119 15.408C32.7199 17.008 32.1359 18.416 31.5599 19.632L29.7359 19.008C30.2959 17.968 30.8799 16.648 31.4879 15.048C32.1119 13.448 32.6159 11.936 32.9999 10.512L34.7519 10.944ZM64.0559 6.35998V12H69.5519V13.968H47.9279V12H53.3759V6.35998H48.6479V4.46398H53.3759V-1.95503e-05H55.4159V4.46398H62.0399V-1.95503e-05H64.0559V4.46398H68.8079V6.35998H64.0559ZM62.0399 6.35998H55.4159V12H62.0399V6.35998ZM48.2879 20.232C49.3439 19.672 50.5359 18.904 51.8639 17.928C53.1919 16.952 54.4159 15.976 55.5359 15L56.8319 16.56C55.8559 17.392 54.6559 18.328 53.2319 19.368C51.8239 20.392 50.5599 21.264 49.4399 21.984L48.2879 20.232ZM61.9439 15C62.9039 15.64 64.1279 16.496 65.6159 17.568C67.1039 18.624 68.3039 19.504 69.2159 20.208L67.8959 21.888C66.9519 21.136 65.7679 20.24 64.3439 19.2C62.9359 18.144 61.7279 17.28 60.7199 16.608L61.9439 15ZM84.3839 19.272H93.6479V21.216H72.5999V19.272H82.2959V13.44H74.7359V11.496H82.2959V6.76798H76.6799C75.9759 8.30398 75.1199 9.83198 74.1119 11.352L72.2159 10.32C73.2399 8.87998 74.0959 7.41598 74.7839 5.92798C75.4879 4.43998 76.0719 2.79998 76.5359 1.00798L78.5999 1.46398C78.2959 2.56798 77.9359 3.67198 77.5199 4.77598H82.2959V0.191981H84.3839V4.77598H92.7359V6.76798H84.3839V11.496H91.9199V13.44H84.3839V19.272ZM100.032 17.808C100.496 17.808 100.872 17.992 101.16 18.36C101.448 18.712 101.592 19.264 101.592 20.016C101.592 20.736 101.456 21.376 101.184 21.936C100.928 22.512 100.568 22.976 100.104 23.328C99.6399 23.68 99.1039 23.912 98.4959 24.024V22.896C99.0399 22.72 99.4559 22.44 99.7439 22.056C100.032 21.672 100.192 21.176 100.224 20.568C100.192 20.584 100.152 20.592 100.104 20.592C100.072 20.592 100.04 20.592 100.008 20.592C99.6079 20.592 99.2879 20.456 99.0479 20.184C98.8239 19.912 98.7119 19.584 98.7119 19.2C98.7119 18.8 98.8319 18.472 99.0719 18.216C99.3279 17.944 99.6479 17.808 100.032 17.808ZM135.12 14.304H141.792V16.152H135.12V22.056H133.176V16.152H126.336V14.304H133.176V10.992H127.68V9.16798H133.176V0.0239801H135.12V9.16798H140.832V10.992H135.12V14.304ZM126.984 0.863981C126.376 2.71998 125.712 4.39998 124.992 5.90398V21.912H123.096V9.35998C122.376 10.528 121.536 11.712 120.576 12.912L119.448 11.064C120.616 9.60798 121.672 7.96798 122.616 6.14398C123.576 4.31998 124.392 2.38398 125.064 0.33598L126.984 0.863981ZM141.024 2.32798C140.736 2.99998 140.296 3.90398 139.704 5.03998C139.112 6.17598 138.592 7.13598 138.144 7.91998L136.44 7.10398C136.92 6.30398 137.448 5.35198 138.024 4.24798C138.6 3.12798 139.04 2.21598 139.344 1.51198L141.024 2.32798ZM130.2 7.84798C129.848 7.07998 129.384 6.15998 128.808 5.08798C128.232 3.99998 127.744 3.11998 127.344 2.44798L128.976 1.60798C129.376 2.26398 129.856 3.12798 130.416 4.19998C130.976 5.27198 131.456 6.22398 131.856 7.05598L130.2 7.84798ZM149.976 8.99998C150.872 7.76798 151.72 6.35198 152.52 4.75198C153.336 3.15198 153.96 1.60798 154.392 0.11998L156.312 0.503981C156.04 1.38398 155.688 2.31998 155.256 3.31198H165.168V5.13598L163.152 9.16798L161.352 8.51998L163.08 5.13598H154.44C153.624 6.81598 152.68 8.45598 151.608 10.056L149.976 8.99998ZM150.456 0.767981C149.848 2.71998 149.224 4.39198 148.584 5.78398V21.936H146.712V9.43198C146.168 10.36 145.48 11.384 144.648 12.504L143.616 10.8C144.544 9.50398 145.456 7.90398 146.352 5.99998C147.264 4.09598 147.984 2.19198 148.512 0.287981L150.456 0.767981ZM157.104 7.05598H158.976V19.176C158.976 20.088 158.784 20.744 158.4 21.144C158.016 21.56 157.368 21.768 156.456 21.768C155.544 21.768 154.688 21.712 153.888 21.6L153.504 19.704C154.16 19.816 154.904 19.896 155.736 19.944C156.232 19.976 156.584 19.872 156.792 19.632C157 19.392 157.104 19.008 157.104 18.48V7.05598ZM162.36 10.2C163.336 12.616 164.488 15.56 165.816 19.032L164.04 19.704L163.488 18.24C162.128 14.656 161.184 12.192 160.656 10.848L162.36 10.2ZM154.752 10.944C154.4 12.304 153.92 13.792 153.312 15.408C152.72 17.008 152.136 18.416 151.56 19.632L149.736 19.008C150.296 17.968 150.88 16.648 151.488 15.048C152.112 13.448 152.616 11.936 153 10.512L154.752 10.944ZM188.16 18.72C188.16 19.504 188.08 20.112 187.92 20.544C187.776 20.976 187.52 21.28 187.152 21.456C186.8 21.648 186.296 21.752 185.64 21.768C184.664 21.784 183.688 21.736 182.712 21.624L182.352 19.824C183.136 19.952 184.024 20.016 185.016 20.016C185.496 20.016 185.816 19.888 185.976 19.632C186.152 19.36 186.24 18.888 186.24 18.216V3.23998H171.192V21.816H169.296V1.43998H188.16V18.72ZM172.704 5.85598H184.752V7.58398H172.704V5.85598ZM174.12 10.128H183.312V17.784H174.12V10.128ZM175.872 11.784V16.128H181.56V11.784H175.872ZM199.488 1.46398C198.688 2.47198 197.688 3.55998 196.488 4.72798C195.288 5.89598 194.152 6.88798 193.08 7.70398L192.048 5.92798C192.976 5.25598 194.008 4.36798 195.144 3.26398C196.28 2.15998 197.232 1.12798 198 0.167981L199.488 1.46398ZM201.312 1.51198H212.688V3.38398H201.312V1.51198ZM199.512 7.46398C198.92 8.35998 198.144 9.37598 197.184 10.512V21.864H195.264V12.6C194.4 13.496 193.456 14.392 192.432 15.288L191.616 13.464C192.768 12.456 193.928 11.296 195.096 9.98398C196.264 8.67198 197.232 7.43998 198 6.28798L199.512 7.46398ZM213.696 8.37598V10.248H209.832V18.576C209.832 19.696 209.592 20.496 209.112 20.976C208.632 21.472 207.824 21.736 206.688 21.768H205.944C204.968 21.768 204.12 21.728 203.4 21.648L202.992 19.68C204.16 19.84 205.224 19.92 206.184 19.92C206.824 19.92 207.256 19.792 207.48 19.536C207.704 19.264 207.816 18.76 207.816 18.024V10.248H200.376V8.37598H213.696Z" fill="#AAB3B2"/>
</svg>
