<svg width="363" height="148" viewBox="0 0 363 148" fill="none" xmlns="http://www.w3.org/2000/svg">
<path d="M87.645 20.672L69.469 51.2H68.445L63.389 10.944C63.1757 9.28 62.7063 8.192 61.981 7.68C61.2557 7.168 60.5517 6.89067 59.869 6.848L60.125 5.568C60.9783 5.61067 61.9383 5.65334 63.005 5.696C64.1143 5.73867 65.2663 5.76 66.461 5.76C67.869 5.76 69.1703 5.73867 70.365 5.696C71.6023 5.65334 72.605 5.61067 73.373 5.568L73.117 6.848C71.6663 6.93334 70.6423 7.31734 70.045 8C69.4477 8.68267 69.277 10.0907 69.533 12.224L73.181 43.328L72.605 43.584L87.069 19.136L87.645 20.672ZM108.317 15.936C109.554 13.4613 110.237 11.584 110.365 10.304C110.536 9.024 110.216 8.14934 109.405 7.68C108.594 7.168 107.293 6.89067 105.501 6.848L105.821 5.568C106.632 5.61067 107.442 5.65334 108.253 5.696C109.106 5.696 109.938 5.71734 110.749 5.76C111.602 5.76 112.392 5.76 113.117 5.76C114.226 5.76 115.144 5.73867 115.869 5.696C116.594 5.65334 117.298 5.61067 117.981 5.568L117.661 6.848C117.064 6.976 116.424 7.21067 115.741 7.552C115.058 7.89334 114.354 8.448 113.629 9.216C112.946 9.984 112.264 11.0507 111.581 12.416L92.445 51.2H91.421L85.085 10.944C84.829 9.32267 84.4237 8.256 83.869 7.744C83.357 7.18934 82.8023 6.89067 82.205 6.848L82.461 5.568C83.229 5.61067 84.1037 5.65334 85.085 5.696C86.0663 5.73867 87.0903 5.76 88.157 5.76C89.821 5.76 91.3783 5.73867 92.829 5.696C94.2797 5.65334 95.453 5.61067 96.349 5.568L96.093 6.848C93.8743 6.93334 92.4237 7.296 91.741 7.936C91.0583 8.576 90.8877 10.0053 91.229 12.224L95.901 41.92L95.453 42.048L108.317 15.936Z" fill="#00C4C6"/>
<path d="M124.211 6.336C124.424 5.22667 124.979 4.26667 125.875 3.456C126.814 2.64533 127.816 2.24 128.883 2.24C129.992 2.24 130.846 2.64533 131.443 3.456C132.083 4.26667 132.296 5.22667 132.083 6.336C131.87 7.44534 131.294 8.40534 130.355 9.216C129.459 10.0267 128.456 10.432 127.347 10.432C126.28 10.432 125.427 10.0267 124.787 9.216C124.19 8.40534 123.998 7.44534 124.211 6.336ZM122.227 23.424C123.123 20.7787 122.824 19.456 121.331 19.456C120.35 19.456 119.475 19.9893 118.707 21.056C117.939 22.1227 117.128 23.7653 116.275 25.984L115.379 28.352H114.163L115.827 23.68C116.467 21.888 117.235 20.5227 118.131 19.584C119.027 18.6453 119.966 18.0053 120.947 17.664C121.971 17.28 122.91 17.088 123.763 17.088C125.128 17.088 126.131 17.3653 126.771 17.92C127.411 18.4747 127.795 19.2 127.923 20.096C128.051 20.992 128.008 21.9733 127.795 23.04C127.582 24.064 127.304 25.0667 126.963 26.048L120.115 45.44C119.688 46.6773 119.539 47.6587 119.667 48.384C119.838 49.0667 120.328 49.408 121.139 49.408C121.992 49.408 122.803 48.9387 123.571 48C124.339 47.0613 125.192 45.3547 126.131 42.88L127.027 40.512H128.243L126.579 45.184C125.982 46.848 125.256 48.1707 124.403 49.152C123.55 50.0907 122.632 50.752 121.651 51.136C120.67 51.5627 119.688 51.776 118.707 51.776C116.872 51.776 115.635 51.3493 114.995 50.496C114.355 49.6427 114.12 48.5333 114.291 47.168C114.462 45.8027 114.824 44.352 115.379 42.816L122.227 23.424ZM155.427 17.984L155.235 19.264H135.331L135.651 17.984H155.427ZM139.171 45.44C138.787 46.848 138.873 47.872 139.427 48.512C140.025 49.1093 140.793 49.408 141.731 49.408C142.67 49.408 143.609 49.0027 144.547 48.192C145.529 47.3813 146.489 45.6533 147.427 43.008L148.323 40.512H149.539L148.195 44.544C147.257 47.3173 146.041 49.216 144.547 50.24C143.097 51.264 141.39 51.776 139.427 51.776C137.678 51.776 136.334 51.4133 135.395 50.688C134.499 49.92 133.966 48.8533 133.795 47.488C133.625 46.1227 133.795 44.5653 134.307 42.816L144.227 8.256C145.251 8.21334 146.254 8.128 147.235 8C148.259 7.872 149.177 7.65867 149.987 7.36L139.171 45.44ZM157.919 50.88H152.351L165.023 8.192C165.45 6.74134 165.386 5.67467 164.831 4.992C164.319 4.30934 163.018 3.968 160.927 3.968L161.311 2.624C163.658 2.58134 165.77 2.34667 167.647 1.92C169.525 1.45067 171.253 0.81067 172.831 3.8147e-06L157.919 50.88ZM159.711 41.408C161.333 36.928 162.869 33.1307 164.319 30.016C165.813 26.9013 167.285 24.4053 168.735 22.528C170.186 20.608 171.679 19.2213 173.215 18.368C174.751 17.5147 176.351 17.088 178.015 17.088C180.021 17.088 181.386 17.5787 182.111 18.56C182.879 19.4987 183.221 20.7147 183.135 22.208C183.05 23.7013 182.751 25.216 182.239 26.752L176.031 45.44C175.69 46.5493 175.541 47.488 175.583 48.256C175.626 49.024 176.117 49.408 177.055 49.408C177.866 49.408 178.655 48.96 179.423 48.064C180.234 47.168 181.087 45.44 181.983 42.88L182.815 40.512H184.031L182.431 45.184C181.834 46.976 181.087 48.3413 180.191 49.28C179.338 50.2187 178.421 50.8587 177.439 51.2C176.501 51.584 175.583 51.776 174.687 51.776C172.981 51.776 171.786 51.392 171.103 50.624C170.421 49.856 170.122 48.7893 170.207 47.424C170.335 46.0587 170.677 44.5227 171.231 42.816L177.311 24.512C177.525 23.872 177.717 23.1253 177.887 22.272C178.058 21.4187 178.015 20.6933 177.759 20.096C177.546 19.456 176.927 19.136 175.903 19.136C174.837 19.136 173.685 19.6267 172.447 20.608C171.253 21.5467 170.015 22.912 168.735 24.704C167.455 26.496 166.197 28.6507 164.959 31.168C163.722 33.6853 162.527 36.5013 161.375 39.616C160.266 42.688 159.221 46.016 158.239 49.6L159.711 41.408ZM221.539 48.32L217.251 52.992L212.387 23.552C212.174 22.2293 211.918 21.312 211.619 20.8C211.321 20.288 210.894 20.032 210.339 20.032C209.87 20.032 209.337 20.416 208.739 21.184C208.142 21.9093 207.417 23.488 206.563 25.92L205.731 28.288H204.515L206.115 23.616C207.011 21.0133 208.121 19.2853 209.443 18.432C210.766 17.536 212.11 17.088 213.475 17.088C214.798 17.088 215.822 17.5147 216.547 18.368C217.273 19.1787 217.785 20.7147 218.083 22.976L221.539 48.32ZM207.523 59.904C209.358 58.9227 211.299 57.5787 213.347 55.872C215.438 54.208 217.593 51.9467 219.811 49.088C222.329 45.888 224.611 42.304 226.659 38.336C228.75 34.3253 230.201 30.2933 231.011 26.24C230.329 25.856 229.582 25.3867 228.771 24.832C228.003 24.2347 227.363 23.552 226.851 22.784C226.339 21.9733 226.105 21.0773 226.147 20.096C226.233 19.1147 226.574 18.368 227.171 17.856C227.769 17.344 228.515 17.088 229.411 17.088C230.563 17.088 231.395 17.536 231.907 18.432C232.462 19.2853 232.739 20.5653 232.739 22.272C232.739 24.448 232.377 26.7947 231.651 29.312C230.926 31.7867 229.945 34.304 228.707 36.864C227.513 39.424 226.169 41.8987 224.675 44.288C223.182 46.6347 221.667 48.768 220.131 50.688C219.449 51.5413 218.51 52.608 217.315 53.888C216.121 55.168 214.691 56.4693 213.027 57.792C211.406 59.1573 209.571 60.3307 207.523 61.312C206.243 61.9093 205.134 62.3147 204.195 62.528C203.299 62.784 202.553 62.912 201.955 62.912C201.102 62.912 200.355 62.6773 199.715 62.208C199.075 61.7813 198.755 61.1413 198.755 60.288C198.755 59.3493 199.118 58.624 199.843 58.112C200.526 57.6427 201.315 57.408 202.211 57.408C203.193 57.408 204.11 57.664 204.963 58.176C205.859 58.688 206.713 59.264 207.523 59.904ZM253.696 18.368C252.331 18.368 251.008 18.9227 249.728 20.032C248.491 21.0987 247.339 22.5707 246.272 24.448C245.248 26.2827 244.331 28.352 243.52 30.656C242.752 32.96 242.155 35.3493 241.728 37.824C241.301 40.2987 241.088 42.6667 241.088 44.928C241.088 46.848 241.387 48.256 241.984 49.152C242.624 50.048 243.541 50.496 244.736 50.496C246.101 50.496 247.403 49.9627 248.64 48.896C249.92 47.7867 251.093 46.3147 252.16 44.48C253.227 42.6027 254.144 40.512 254.912 38.208C255.68 35.904 256.277 33.536 256.704 31.104C257.131 28.6293 257.344 26.24 257.344 23.936C257.344 21.9733 257.045 20.5653 256.448 19.712C255.851 18.816 254.933 18.368 253.696 18.368ZM235.584 41.728C235.584 39.8507 235.84 37.8027 236.352 35.584C236.864 33.3653 237.632 31.168 238.656 28.992C239.68 26.816 240.917 24.832 242.368 23.04C243.861 21.248 245.589 19.8187 247.552 18.752C249.515 17.6427 251.691 17.088 254.08 17.088C256.725 17.088 258.837 17.92 260.416 19.584C262.037 21.2053 262.848 23.7227 262.848 27.136C262.848 29.0133 262.592 31.0613 262.08 33.28C261.568 35.4987 260.8 37.696 259.776 39.872C258.752 42.048 257.493 44.032 256 45.824C254.549 47.616 252.843 49.0667 250.88 50.176C248.917 51.2427 246.741 51.776 244.352 51.776C241.707 51.776 239.573 50.944 237.952 49.28C236.373 47.616 235.584 45.0987 235.584 41.728ZM290.898 28.736C289.362 33.0027 287.89 36.608 286.482 39.552C285.074 42.496 283.666 44.864 282.258 46.656C280.893 48.448 279.485 49.7493 278.034 50.56C276.626 51.3707 275.154 51.776 273.618 51.776C271.741 51.776 270.375 51.3493 269.522 50.496C268.669 49.6427 268.242 48.4907 268.242 47.04C268.242 45.5893 268.541 43.9467 269.138 42.112L275.346 23.424C275.773 22.144 275.922 21.1627 275.794 20.48C275.666 19.7973 275.175 19.456 274.322 19.456C273.511 19.456 272.701 19.904 271.89 20.8C271.122 21.696 270.29 23.424 269.394 25.984L268.562 28.352H267.346L268.946 23.68C269.586 21.888 270.333 20.5227 271.186 19.584C272.082 18.6453 272.999 18.0053 273.938 17.664C274.919 17.28 275.837 17.088 276.69 17.088C278.567 17.088 279.805 17.536 280.402 18.432C281.042 19.2853 281.277 20.3947 281.106 21.76C280.978 23.1253 280.658 24.5547 280.146 26.048L274.066 44.352C272.871 47.936 273.341 49.728 275.474 49.728C276.498 49.728 277.586 49.28 278.738 48.384C279.89 47.4453 281.063 46.1227 282.258 44.416C283.453 42.6667 284.626 40.5973 285.778 38.208C286.973 35.776 288.103 33.088 289.17 30.144C290.279 27.1573 291.282 23.9573 292.178 20.544L290.898 28.736ZM290.706 45.44C290.407 46.592 290.258 47.552 290.258 48.32C290.301 49.0453 290.749 49.408 291.602 49.408C292.541 49.408 293.394 48.9173 294.162 47.936C294.973 46.912 295.783 45.2267 296.594 42.88L297.426 40.512H298.642L297.042 45.184C296.445 46.976 295.698 48.3413 294.802 49.28C293.949 50.2187 293.031 50.8587 292.05 51.2C291.111 51.584 290.194 51.776 289.298 51.776C288.615 51.776 287.975 51.6267 287.378 51.328C286.781 51.0293 286.333 50.6027 286.034 50.048C285.693 49.3227 285.565 48.4053 285.65 47.296C285.778 46.1867 286.077 44.6933 286.546 42.816L292.818 17.984C293.885 17.9413 294.909 17.856 295.89 17.728C296.914 17.6 297.831 17.3867 298.642 17.088L290.706 45.44ZM310.058 47.36C310.058 49.5787 309.226 51.776 307.562 53.952C305.898 56.1707 303.594 58.0053 300.65 59.456L300.33 58.56C302.336 57.3227 303.936 55.9787 305.13 54.528C306.325 53.0773 306.986 51.6267 307.114 50.176C306.602 50.6027 306.069 50.9653 305.514 51.264C304.96 51.6053 304.384 51.776 303.786 51.776C303.018 51.776 302.421 51.5627 301.994 51.136C301.568 50.752 301.354 50.2187 301.354 49.536C301.354 48.5973 301.632 47.68 302.186 46.784C302.784 45.888 303.53 45.1413 304.426 44.544C305.322 43.904 306.261 43.584 307.242 43.584C308.224 43.584 308.928 43.968 309.354 44.736C309.824 45.504 310.058 46.3787 310.058 47.36ZM15.04 113.736L15.424 112.456H26.496L26.112 113.736H15.04ZM21.568 112.456C22.976 112.456 24.128 112.179 25.024 111.624C25.92 111.027 26.6453 110.28 27.2 109.384C27.7973 108.488 28.288 107.571 28.672 106.632C29.056 105.651 29.4187 104.776 29.76 104.008H31.232C30.4213 106.44 29.8453 108.296 29.504 109.576C29.2053 110.856 28.9067 112.029 28.608 113.096C28.4373 113.779 28.2453 114.525 28.032 115.336C27.8613 116.104 27.648 117.043 27.392 118.152C27.1787 119.219 26.9013 120.563 26.56 122.184H25.088C25.216 121.16 25.344 120.157 25.472 119.176C25.6 118.152 25.5787 117.235 25.408 116.424C25.28 115.613 24.896 114.973 24.256 114.504C23.616 113.992 22.592 113.736 21.184 113.736L21.568 112.456ZM38.528 102.088C38.9547 99.5707 39.1253 97.5867 39.04 96.136C38.9547 94.6427 38.4213 93.5973 37.44 93C36.5013 92.36 34.9013 92.04 32.64 92.04H27.968C26.5173 92.04 25.3867 92.168 24.576 92.424C23.808 92.6373 23.1893 93.128 22.72 93.896C22.2507 94.6213 21.8027 95.7733 21.376 97.352L12.864 129.096C12.4373 130.632 12.2453 131.784 12.288 132.552C12.3733 133.32 12.7573 133.832 13.44 134.088C14.1227 134.301 15.1893 134.408 16.64 134.408H21.312C24 134.408 26.1333 134.045 27.712 133.32C29.2907 132.595 30.6133 131.421 31.68 129.8C32.7467 128.136 33.792 125.896 34.816 123.08H36.288C36.0747 123.635 35.84 124.317 35.584 125.128C35.328 125.939 35.0933 126.792 34.88 127.688C34.6667 128.499 34.3893 129.672 34.048 131.208C33.7067 132.701 33.408 134.259 33.152 135.88C30.976 135.795 28.5227 135.752 25.792 135.752C23.0613 135.709 20.6293 135.688 18.496 135.688C17.5573 135.688 16.3413 135.688 14.848 135.688C13.3973 135.688 11.8187 135.709 10.112 135.752C8.40532 135.752 6.67732 135.773 4.92799 135.816C3.17866 135.816 1.53599 135.837 -9.77516e-06 135.88L0.31999 134.6C1.77066 134.515 2.90132 134.344 3.71199 134.088C4.52266 133.832 5.14132 133.32 5.56799 132.552C6.03732 131.784 6.48532 130.632 6.91199 129.096L15.424 97.352C15.8507 95.7733 16.0213 94.6213 15.936 93.896C15.8933 93.128 15.5307 92.616 14.848 92.36C14.208 92.0613 13.1627 91.8907 11.712 91.848L12.032 90.568C13.6107 90.6107 15.2747 90.6533 17.024 90.696C18.7733 90.696 20.5013 90.7173 22.208 90.76C23.9147 90.76 25.4933 90.76 26.944 90.76C28.4373 90.76 29.6533 90.76 30.592 90.76C32.4693 90.76 34.5813 90.76 36.928 90.76C39.3173 90.7173 41.4507 90.6533 43.328 90.568C42.7733 92.0613 42.2827 93.512 41.856 94.92C41.4293 96.328 41.1093 97.3947 40.896 98.12C40.6827 98.888 40.4907 99.6347 40.32 100.36C40.192 101.043 40.0853 101.619 40 102.088H38.528ZM49.0465 135.88H43.4785L51.1585 108.424C51.2865 108.04 51.3932 107.549 51.4785 106.952C51.6065 106.312 51.6065 105.736 51.4785 105.224C51.3505 104.712 50.9452 104.456 50.2625 104.456C49.3238 104.456 48.4705 104.947 47.7025 105.928C46.9345 106.909 46.1238 108.595 45.2705 110.984L44.4385 113.352H43.2225L44.8225 108.68C45.4625 106.888 46.2092 105.523 47.0625 104.584C47.9585 103.645 48.8758 103.005 49.8145 102.664C50.7958 102.28 51.7132 102.088 52.5665 102.088C53.8465 102.088 54.7638 102.387 55.3185 102.984C55.8732 103.539 56.1718 104.285 56.2145 105.224C56.2998 106.12 56.2358 107.08 56.0225 108.104C55.8092 109.128 55.5745 110.109 55.3185 111.048L49.0465 135.88ZM67.1585 109.512C67.4572 108.616 67.6492 107.763 67.7345 106.952C67.8625 106.141 67.7985 105.48 67.5425 104.968C67.3292 104.413 66.8172 104.136 66.0065 104.136C64.8118 104.136 63.4892 104.883 62.0385 106.376C60.6305 107.827 59.1798 109.875 57.6865 112.52C56.2358 115.123 54.8278 118.173 53.4625 121.672C52.0972 125.128 50.8812 128.84 49.8145 132.808L51.9265 122.568C53.8892 117.448 55.7238 113.395 57.4305 110.408C59.1372 107.421 60.8438 105.288 62.5505 104.008C64.2998 102.728 66.1558 102.088 68.1185 102.088C69.4838 102.088 70.4652 102.408 71.0625 103.048C71.7025 103.645 72.0865 104.435 72.2145 105.416C72.3425 106.397 72.2998 107.443 72.0865 108.552C71.9158 109.661 71.7025 110.728 71.4465 111.752L64.9185 135.88H59.1585L67.1585 109.512ZM83.1585 109.512C83.5852 108.189 83.7985 106.973 83.7985 105.864C83.7985 104.712 83.3292 104.136 82.3905 104.136C81.1105 104.136 79.7665 104.883 78.3585 106.376C76.9505 107.869 75.4998 110.003 74.0065 112.776C72.5132 115.507 71.0198 118.728 69.5265 122.44C68.0758 126.109 66.6678 130.163 65.3025 134.6L66.7745 126.408C68.4385 121.971 69.9745 118.216 71.3825 115.144C72.7905 112.029 74.1772 109.512 75.5425 107.592C76.9078 105.672 78.3158 104.285 79.7665 103.432C81.2172 102.536 82.7958 102.088 84.5025 102.088C86.2945 102.088 87.5105 102.6 88.1505 103.624C88.7905 104.648 89.0465 105.907 88.9185 107.4C88.8332 108.851 88.5558 110.301 88.0865 111.752L81.8785 130.44C81.4518 131.763 81.3025 132.765 81.4305 133.448C81.5585 134.088 82.0492 134.408 82.9025 134.408C83.7132 134.408 84.5025 133.96 85.2705 133.064C86.0812 132.168 86.9345 130.44 87.8305 127.88L88.6625 125.512H89.8785L88.2785 130.184C87.6812 131.976 86.9345 133.341 86.0385 134.28C85.1852 135.219 84.2678 135.859 83.2865 136.2C82.3478 136.584 81.4305 136.776 80.5345 136.776C79.4678 136.776 78.6145 136.605 77.9745 136.264C77.3772 135.965 76.9078 135.56 76.5665 135.048C76.0545 134.237 75.8838 133.235 76.0545 132.04C76.2252 130.803 76.5665 129.395 77.0785 127.816L83.1585 109.512ZM114.364 104.136C113.255 104.136 111.996 104.925 110.588 106.504C109.223 108.04 107.815 110.152 106.364 112.84C104.956 115.485 103.612 118.472 102.332 121.8C101.095 125.128 100.05 128.584 99.1965 132.168L100.284 125.256C102.119 119.667 103.89 115.187 105.596 111.816C107.346 108.403 109.074 105.928 110.78 104.392C112.53 102.856 114.343 102.088 116.22 102.088C118.226 102.088 119.826 102.835 121.02 104.328C122.258 105.821 122.876 108.083 122.876 111.112C122.876 113.032 122.599 115.144 122.044 117.448C121.532 119.752 120.743 122.035 119.676 124.296C118.652 126.557 117.372 128.648 115.836 130.568C114.343 132.445 112.615 133.96 110.652 135.112C108.69 136.221 106.514 136.776 104.124 136.776C102.844 136.776 101.692 136.392 100.668 135.624C99.6872 134.856 99.0258 133.747 98.6845 132.296L99.1965 131.016C99.7938 132.595 100.476 133.704 101.244 134.344C102.055 134.984 102.994 135.304 104.06 135.304C105.511 135.304 106.898 134.749 108.22 133.64C109.543 132.488 110.759 130.973 111.868 129.096C112.978 127.219 113.938 125.149 114.748 122.888C115.602 120.584 116.242 118.301 116.668 116.04C117.138 113.736 117.372 111.624 117.372 109.704C117.372 107.827 117.095 106.44 116.54 105.544C116.028 104.605 115.303 104.136 114.364 104.136ZM99.4525 131.912C98.4285 132.723 97.4045 133.555 96.3805 134.408C95.3565 135.219 94.3325 136.051 93.3085 136.904L92.3485 136.456C92.6472 135.859 92.8818 135.261 93.0525 134.664C93.2658 134.024 93.4365 133.384 93.5645 132.744L104.764 93.192C105.106 91.7413 105.042 90.6747 104.572 89.992C104.103 89.3093 102.823 88.968 100.732 88.968L101.052 87.624C103.399 87.5813 105.468 87.3467 107.26 86.92C109.052 86.4507 110.738 85.8107 112.316 85L99.4525 131.912ZM133.046 135.88H127.478L135.158 108.424C135.585 106.973 135.713 105.949 135.542 105.352C135.414 104.755 134.988 104.456 134.262 104.456C133.324 104.456 132.47 104.947 131.702 105.928C130.934 106.909 130.124 108.595 129.27 110.984L128.438 113.352H127.222L128.822 108.68C129.462 106.888 130.209 105.523 131.062 104.584C131.958 103.645 132.876 103.005 133.814 102.664C134.796 102.28 135.713 102.088 136.566 102.088C137.846 102.088 138.742 102.365 139.254 102.92C139.809 103.475 140.108 104.2 140.15 105.096C140.236 105.992 140.172 106.973 139.958 108.04C139.788 109.064 139.574 110.067 139.318 111.048L133.046 135.88ZM149.494 103.688C148.513 103.688 147.489 104.157 146.422 105.096C145.398 105.992 144.332 107.315 143.222 109.064C142.156 110.771 141.068 112.84 139.958 115.272C138.892 117.661 137.825 120.328 136.758 123.272C135.734 126.216 134.732 129.395 133.75 132.808L135.35 124.616C136.758 120.435 138.06 116.915 139.254 114.056C140.492 111.197 141.708 108.893 142.902 107.144C144.097 105.352 145.313 104.072 146.55 103.304C147.83 102.493 149.174 102.088 150.582 102.088C151.777 102.088 152.694 102.429 153.334 103.112C154.017 103.795 154.358 104.669 154.358 105.736C154.358 106.589 154.145 107.379 153.718 108.104C153.292 108.787 152.737 109.341 152.054 109.768C151.414 110.152 150.689 110.344 149.878 110.344C149.153 110.344 148.534 110.152 148.022 109.768C147.553 109.341 147.318 108.765 147.318 108.04C147.318 107.357 147.446 106.76 147.702 106.248C147.958 105.693 148.3 105.224 148.726 104.84C149.153 104.456 149.644 104.157 150.198 103.944C150.113 103.859 150.006 103.795 149.878 103.752C149.793 103.709 149.665 103.688 149.494 103.688ZM159.75 134.728C160.774 134.728 161.948 134.088 163.27 132.808C164.593 131.485 165.937 129.715 167.302 127.496C168.668 125.277 169.926 122.76 171.078 119.944C172.23 117.128 173.148 114.205 173.83 111.176L172.742 118.088C171.121 122.611 169.5 126.259 167.878 129.032C166.257 131.763 164.614 133.747 162.95 134.984C161.286 136.179 159.601 136.776 157.894 136.776C155.889 136.776 154.374 136.051 153.35 134.6C152.369 133.149 151.878 131.293 151.878 129.032C151.878 126.984 152.22 124.765 152.902 122.376C153.585 119.944 154.524 117.533 155.718 115.144C156.956 112.755 158.364 110.579 159.942 108.616C161.521 106.653 163.228 105.075 165.062 103.88C166.94 102.685 168.838 102.088 170.758 102.088C172.252 102.088 173.382 102.835 174.15 104.328C174.961 105.779 175.132 107.827 174.662 110.472L173.958 110.856C174.257 108.595 174.108 106.781 173.51 105.416C172.913 104.008 171.932 103.304 170.566 103.304C169.457 103.304 168.284 103.859 167.046 104.968C165.852 106.035 164.678 107.507 163.526 109.384C162.417 111.219 161.393 113.288 160.454 115.592C159.558 117.896 158.833 120.285 158.278 122.76C157.766 125.192 157.51 127.539 157.51 129.8C157.51 131.635 157.702 132.915 158.086 133.64C158.513 134.365 159.068 134.728 159.75 134.728ZM175.878 102.984C176.902 102.941 177.926 102.856 178.95 102.728C179.974 102.6 180.913 102.387 181.766 102.088L173.766 130.376C173.681 130.76 173.553 131.272 173.382 131.912C173.254 132.509 173.254 133.064 173.382 133.576C173.553 134.088 174.001 134.344 174.726 134.344C175.58 134.344 176.412 133.875 177.222 132.936C178.033 131.997 178.844 130.291 179.654 127.816L180.422 125.448H181.638L180.038 130.12C179.441 131.827 178.716 133.171 177.862 134.152C177.052 135.091 176.198 135.752 175.302 136.136C174.406 136.563 173.532 136.776 172.678 136.776C171.014 136.776 169.841 136.221 169.158 135.112C168.604 134.131 168.454 133 168.71 131.72C168.966 130.397 169.265 129.075 169.606 127.752L175.878 102.984ZM205.474 103.368C203.853 103.368 202.232 104.029 200.61 105.352C199.032 106.675 197.581 108.488 196.258 110.792C194.936 113.096 193.869 115.72 193.058 118.664C192.29 121.608 191.906 124.701 191.906 127.944C191.906 130.12 192.312 131.699 193.122 132.68C193.976 133.619 195.064 134.088 196.386 134.088C197.922 134.088 199.501 133.619 201.122 132.68C202.744 131.741 204.365 130.077 205.986 127.688L207.266 128.2C206.456 129.608 205.389 130.973 204.066 132.296C202.744 133.619 201.25 134.707 199.586 135.56C197.965 136.371 196.237 136.776 194.402 136.776C191.842 136.776 189.794 135.987 188.258 134.408C186.722 132.829 185.954 130.483 185.954 127.368C185.954 125.405 186.232 123.293 186.786 121.032C187.384 118.728 188.216 116.467 189.282 114.248C190.392 111.987 191.736 109.96 193.314 108.168C194.893 106.333 196.685 104.861 198.69 103.752C200.696 102.643 202.893 102.088 205.282 102.088C207.16 102.088 208.781 102.579 210.146 103.56C211.512 104.499 212.194 105.821 212.194 107.528C212.194 108.339 212.002 109.149 211.618 109.96C211.277 110.728 210.765 111.368 210.082 111.88C209.4 112.392 208.589 112.648 207.65 112.648C206.754 112.648 206.093 112.413 205.666 111.944C205.24 111.432 205.026 110.835 205.026 110.152C205.026 108.915 205.517 107.869 206.498 107.016C207.48 106.12 208.589 105.565 209.826 105.352C209.4 104.755 208.845 104.285 208.162 103.944C207.48 103.56 206.584 103.368 205.474 103.368ZM217.803 121.352C220.193 120.541 222.347 119.752 224.267 118.984C226.23 118.173 227.787 117.32 228.939 116.424C230.475 115.187 231.691 113.693 232.587 111.944C233.483 110.195 233.931 108.275 233.931 106.184C233.931 104.947 233.846 104.157 233.675 103.816C233.505 103.475 233.249 103.304 232.907 103.304C231.841 103.304 230.689 103.773 229.451 104.712C228.214 105.651 226.998 106.952 225.803 108.616C224.609 110.237 223.499 112.093 222.475 114.184C221.494 116.275 220.705 118.515 220.107 120.904C219.51 123.251 219.211 125.597 219.211 127.944C219.211 130.12 219.617 131.699 220.427 132.68C221.238 133.619 222.305 134.088 223.627 134.088C225.163 134.088 226.785 133.619 228.491 132.68C230.198 131.741 231.862 130.077 233.483 127.688L234.507 128.2C233.697 129.608 232.63 130.973 231.307 132.296C229.985 133.619 228.491 134.707 226.827 135.56C225.206 136.371 223.478 136.776 221.643 136.776C219.937 136.776 218.443 136.435 217.163 135.752C215.883 135.069 214.902 134.067 214.219 132.744C213.537 131.379 213.195 129.715 213.195 127.752C213.195 125.917 213.537 123.869 214.219 121.608C214.902 119.304 215.862 117.021 217.099 114.76C218.379 112.456 219.894 110.344 221.643 108.424C223.393 106.504 225.334 104.968 227.467 103.816C229.601 102.664 231.883 102.088 234.315 102.088C235.638 102.088 236.747 102.451 237.643 103.176C238.582 103.859 239.051 104.904 239.051 106.312C239.051 108.019 238.539 109.619 237.515 111.112C236.534 112.563 235.211 113.907 233.547 115.144C231.926 116.339 230.155 117.405 228.235 118.344C226.315 119.283 224.438 120.093 222.603 120.776C220.769 121.459 219.147 122.013 217.739 122.44L217.803 121.352ZM274.164 133.32L269.876 137.992L265.012 108.552C264.799 107.229 264.543 106.312 264.244 105.8C263.946 105.288 263.519 105.032 262.964 105.032C262.495 105.032 261.962 105.416 261.364 106.184C260.767 106.909 260.042 108.488 259.188 110.92L258.356 113.288H257.14L258.74 108.616C259.636 106.013 260.746 104.285 262.068 103.432C263.391 102.536 264.735 102.088 266.1 102.088C267.423 102.088 268.447 102.515 269.172 103.368C269.898 104.179 270.41 105.715 270.708 107.976L274.164 133.32ZM260.148 144.904C261.983 143.923 263.924 142.579 265.972 140.872C268.063 139.208 270.218 136.947 272.436 134.088C274.954 130.888 277.236 127.304 279.284 123.336C281.375 119.325 282.826 115.293 283.636 111.24C282.954 110.856 282.207 110.387 281.396 109.832C280.628 109.235 279.988 108.552 279.476 107.784C278.964 106.973 278.73 106.077 278.772 105.096C278.858 104.115 279.199 103.368 279.796 102.856C280.394 102.344 281.14 102.088 282.036 102.088C283.188 102.088 284.02 102.536 284.532 103.432C285.087 104.285 285.364 105.565 285.364 107.272C285.364 109.448 285.002 111.795 284.276 114.312C283.551 116.787 282.57 119.304 281.332 121.864C280.138 124.424 278.794 126.899 277.3 129.288C275.807 131.635 274.292 133.768 272.756 135.688C272.074 136.541 271.135 137.608 269.94 138.888C268.746 140.168 267.316 141.469 265.652 142.792C264.031 144.157 262.196 145.331 260.148 146.312C258.868 146.909 257.759 147.315 256.82 147.528C255.924 147.784 255.178 147.912 254.58 147.912C253.727 147.912 252.98 147.677 252.34 147.208C251.7 146.781 251.38 146.141 251.38 145.288C251.38 144.349 251.743 143.624 252.468 143.112C253.151 142.643 253.94 142.408 254.836 142.408C255.818 142.408 256.735 142.664 257.588 143.176C258.484 143.688 259.338 144.264 260.148 144.904ZM306.321 103.368C304.956 103.368 303.633 103.923 302.353 105.032C301.116 106.099 299.964 107.571 298.897 109.448C297.873 111.283 296.956 113.352 296.145 115.656C295.377 117.96 294.78 120.349 294.353 122.824C293.926 125.299 293.713 127.667 293.713 129.928C293.713 131.848 294.012 133.256 294.609 134.152C295.249 135.048 296.166 135.496 297.361 135.496C298.726 135.496 300.028 134.963 301.265 133.896C302.545 132.787 303.718 131.315 304.785 129.48C305.852 127.603 306.769 125.512 307.537 123.208C308.305 120.904 308.902 118.536 309.329 116.104C309.756 113.629 309.969 111.24 309.969 108.936C309.969 106.973 309.67 105.565 309.073 104.712C308.476 103.816 307.558 103.368 306.321 103.368ZM288.209 126.728C288.209 124.851 288.465 122.803 288.977 120.584C289.489 118.365 290.257 116.168 291.281 113.992C292.305 111.816 293.542 109.832 294.993 108.04C296.486 106.248 298.214 104.819 300.177 103.752C302.14 102.643 304.316 102.088 306.705 102.088C309.35 102.088 311.462 102.92 313.041 104.584C314.662 106.205 315.473 108.723 315.473 112.136C315.473 114.013 315.217 116.061 314.705 118.28C314.193 120.499 313.425 122.696 312.401 124.872C311.377 127.048 310.118 129.032 308.625 130.824C307.174 132.616 305.468 134.067 303.505 135.176C301.542 136.243 299.366 136.776 296.977 136.776C294.332 136.776 292.198 135.944 290.577 134.28C288.998 132.616 288.209 130.099 288.209 126.728ZM343.523 113.736C341.987 118.003 340.515 121.608 339.107 124.552C337.699 127.496 336.291 129.864 334.883 131.656C333.518 133.448 332.11 134.749 330.659 135.56C329.251 136.371 327.779 136.776 326.243 136.776C324.366 136.776 323 136.349 322.147 135.496C321.294 134.643 320.867 133.491 320.867 132.04C320.867 130.589 321.166 128.947 321.763 127.112L327.971 108.424C328.398 107.144 328.547 106.163 328.419 105.48C328.291 104.797 327.8 104.456 326.947 104.456C326.136 104.456 325.326 104.904 324.515 105.8C323.747 106.696 322.915 108.424 322.019 110.984L321.187 113.352H319.971L321.571 108.68C322.211 106.888 322.958 105.523 323.811 104.584C324.707 103.645 325.624 103.005 326.563 102.664C327.544 102.28 328.462 102.088 329.315 102.088C331.192 102.088 332.43 102.536 333.027 103.432C333.667 104.285 333.902 105.395 333.731 106.76C333.603 108.125 333.283 109.555 332.771 111.048L326.691 129.352C325.496 132.936 325.966 134.728 328.099 134.728C329.123 134.728 330.211 134.28 331.363 133.384C332.515 132.445 333.688 131.123 334.883 129.416C336.078 127.667 337.251 125.597 338.403 123.208C339.598 120.776 340.728 118.088 341.795 115.144C342.904 112.157 343.907 108.957 344.803 105.544L343.523 113.736ZM343.331 130.44C343.032 131.592 342.883 132.552 342.883 133.32C342.926 134.045 343.374 134.408 344.227 134.408C345.166 134.408 346.019 133.917 346.787 132.936C347.598 131.912 348.408 130.227 349.219 127.88L350.051 125.512H351.267L349.667 130.184C349.07 131.976 348.323 133.341 347.427 134.28C346.574 135.219 345.656 135.859 344.675 136.2C343.736 136.584 342.819 136.776 341.923 136.776C341.24 136.776 340.6 136.627 340.003 136.328C339.406 136.029 338.958 135.603 338.659 135.048C338.318 134.323 338.19 133.405 338.275 132.296C338.403 131.187 338.702 129.693 339.171 127.816L345.443 102.984C346.51 102.941 347.534 102.856 348.515 102.728C349.539 102.6 350.456 102.387 351.267 102.088L343.331 130.44ZM354.363 133.512C354.363 132.232 354.854 131.101 355.835 130.12C356.817 129.096 357.905 128.584 359.099 128.584C360.081 128.584 360.87 128.904 361.467 129.544C362.065 130.184 362.363 130.973 362.363 131.912C362.363 132.765 362.129 133.576 361.659 134.344C361.233 135.069 360.657 135.645 359.931 136.072C359.206 136.541 358.417 136.776 357.563 136.776C356.625 136.776 355.857 136.477 355.259 135.88C354.662 135.24 354.363 134.451 354.363 133.512Z" fill="#D8DFDE"/>
</svg>
