<svg width="270" height="94" viewBox="0 0 270 94" fill="none" xmlns="http://www.w3.org/2000/svg">
<path d="M70.464 28.32C70.464 33.12 69.728 37.824 68.256 42.432C66.848 46.976 64.768 51.232 62.016 55.2C59.328 59.104 56.096 62.56 52.32 65.568C48.608 68.512 44.448 70.848 39.84 72.576C35.232 74.24 30.272 75.072 24.96 75.072C24 75.072 22.72 75.04 21.12 74.976C19.52 74.912 17.856 74.88 16.128 74.88C14.464 74.816 12.928 74.784 11.52 74.784C10.048 74.784 8.57601 74.816 7.10401 74.88C5.63201 74.88 4.288 74.912 3.072 74.976C1.856 74.976 0.832005 75.008 4.76837e-06 75.072L0.288005 73.152C2.336 73.024 3.936 72.768 5.08801 72.384C6.30401 72 7.26401 71.232 7.96801 70.08C8.67201 68.928 9.31201 67.2 9.88801 64.896L22.464 17.28C23.04 15.168 23.328 13.536 23.328 12.384C23.328 11.168 22.848 10.336 21.888 9.88802C20.928 9.37602 19.264 9.08802 16.896 9.02402L17.184 7.10402C18.08 7.16802 19.168 7.23202 20.448 7.29602C21.728 7.36002 23.104 7.39202 24.576 7.39202C26.048 7.39202 27.488 7.39202 28.896 7.39202C30.368 7.32802 32 7.29602 33.792 7.29602C35.584 7.23202 37.312 7.20002 38.976 7.20002C40.704 7.13602 42.176 7.10402 43.392 7.10402C52.48 7.10402 59.264 8.92802 63.744 12.576C68.224 16.16 70.464 21.408 70.464 28.32ZM23.808 73.344C28.736 73.344 33.184 72.512 37.152 70.848C41.12 69.184 44.608 66.848 47.616 63.84C50.624 60.832 53.12 57.344 55.104 53.376C57.152 49.408 58.688 45.088 59.712 40.416C60.736 35.744 61.248 30.912 61.248 25.92C61.248 20.224 59.648 15.968 56.448 13.152C53.248 10.272 48 8.83202 40.704 8.83202C38.784 8.83202 37.248 9.05602 36.096 9.50402C34.944 9.95202 34.016 10.784 33.312 12C32.608 13.152 31.968 14.848 31.392 17.088L18.816 65.088C18.304 66.944 18.016 68.512 17.952 69.792C17.888 71.008 18.272 71.904 19.104 72.48C20 73.056 21.568 73.344 23.808 73.344ZM80.5065 53.28C84.0905 52.064 87.3225 50.88 90.2025 49.728C93.1465 48.512 95.4825 47.232 97.2105 45.888C99.5145 44.032 101.339 41.792 102.683 39.168C104.027 36.544 104.699 33.664 104.699 30.528C104.699 28.672 104.571 27.488 104.315 26.976C104.059 26.464 103.675 26.208 103.163 26.208C101.563 26.208 99.8345 26.912 97.9785 28.32C96.1225 29.728 94.2985 31.68 92.5065 34.176C90.7145 36.608 89.0505 39.392 87.5145 42.528C86.0425 45.664 84.8585 49.024 83.9625 52.608C83.0665 56.128 82.6185 59.648 82.6185 63.168C82.6185 66.432 83.2265 68.8 84.4425 70.272C85.6585 71.68 87.2585 72.384 89.2425 72.384C91.5465 72.384 93.9785 71.68 96.5385 70.272C99.0985 68.864 101.595 66.368 104.027 62.784L105.563 63.552C104.347 65.664 102.747 67.712 100.763 69.696C98.7785 71.68 96.5385 73.312 94.0425 74.592C91.6105 75.808 89.0185 76.416 86.2665 76.416C83.7065 76.416 81.4665 75.904 79.5465 74.88C77.6265 73.856 76.1545 72.352 75.1305 70.368C74.1065 68.32 73.5945 65.824 73.5945 62.88C73.5945 60.128 74.1065 57.056 75.1305 53.664C76.1545 50.208 77.5945 46.784 79.4505 43.392C81.3705 39.936 83.6425 36.768 86.2665 33.888C88.8905 31.008 91.8025 28.704 95.0025 26.976C98.2025 25.248 101.627 24.384 105.275 24.384C107.259 24.384 108.923 24.928 110.267 26.016C111.675 27.04 112.379 28.608 112.379 30.72C112.379 33.28 111.611 35.68 110.075 37.92C108.603 40.096 106.619 42.112 104.123 43.968C101.691 45.76 99.0345 47.36 96.1545 48.768C93.2745 50.176 90.4585 51.392 87.7065 52.416C84.9545 53.44 82.5225 54.272 80.4105 54.912L80.5065 53.28ZM120.031 27.648L120.607 25.728H148.927L148.351 27.648H120.031ZM150.943 1.44002C149.727 1.44002 148.671 1.69602 147.775 2.20802C146.879 2.72002 146.079 3.29602 145.375 3.93602C144.223 5.02402 143.199 6.68802 142.303 8.92802C141.471 11.104 140.671 13.632 139.903 16.512C139.199 19.392 138.431 22.432 137.599 25.632L119.839 91.776C118.303 91.84 116.799 91.968 115.327 92.16C113.855 92.352 112.479 92.672 111.199 93.12L129.247 25.632C130.591 20.512 131.999 16.288 133.471 12.96C135.007 9.63202 136.863 6.91202 139.039 4.80002C140.511 3.32802 142.303 2.17602 144.415 1.34402C146.591 0.448017 148.799 1.52588e-05 151.039 1.52588e-05C153.983 1.52588e-05 156.223 0.672016 157.759 2.01602C159.359 3.29602 160.159 4.89602 160.159 6.81602C160.159 7.90402 159.871 8.96002 159.295 9.98402C158.719 11.008 157.951 11.84 156.991 12.48C156.031 13.12 154.943 13.44 153.727 13.44C152.511 13.44 151.551 13.152 150.847 12.576C150.143 12 149.823 11.2 149.887 10.176C149.887 8.57602 150.399 7.23202 151.423 6.14402C152.447 4.99202 153.759 4.19202 155.359 3.74402C155.359 3.16802 154.943 2.65602 154.111 2.20802C153.279 1.69602 152.223 1.44002 150.943 1.44002ZM162.587 8.25602C162.907 6.59202 163.739 5.15202 165.083 3.93602C166.491 2.72002 167.995 2.11202 169.595 2.11202C171.259 2.11202 172.539 2.72002 173.435 3.93602C174.395 5.15202 174.715 6.59202 174.395 8.25602C174.075 9.92002 173.211 11.36 171.803 12.576C170.459 13.792 168.955 14.4 167.291 14.4C165.691 14.4 164.411 13.792 163.451 12.576C162.555 11.36 162.267 9.92002 162.587 8.25602ZM159.611 33.888C160.955 29.92 160.507 27.936 158.267 27.936C156.795 27.936 155.483 28.736 154.331 30.336C153.179 31.936 151.963 34.4 150.683 37.728L149.339 41.28H147.515L150.011 34.272C150.971 31.584 152.123 29.536 153.467 28.128C154.811 26.72 156.219 25.76 157.691 25.248C159.227 24.672 160.635 24.384 161.915 24.384C163.963 24.384 165.467 24.8 166.427 25.632C167.387 26.464 167.963 27.552 168.155 28.896C168.347 30.24 168.283 31.712 167.963 33.312C167.643 34.848 167.227 36.352 166.715 37.824L156.443 66.912C155.803 68.768 155.579 70.24 155.771 71.328C156.027 72.352 156.763 72.864 157.979 72.864C159.259 72.864 160.475 72.16 161.627 70.752C162.779 69.344 164.059 66.784 165.467 63.072L166.811 59.52H168.635L166.139 66.528C165.243 69.024 164.155 71.008 162.875 72.48C161.595 73.888 160.219 74.88 158.747 75.456C157.275 76.096 155.803 76.416 154.331 76.416C151.579 76.416 149.723 75.776 148.763 74.496C147.803 73.216 147.451 71.552 147.707 69.504C147.963 67.456 148.507 65.28 149.339 62.976L159.611 33.888ZM185.123 75.072H176.771L188.291 33.888C188.547 33.12 188.739 32.288 188.867 31.392C189.059 30.432 189.027 29.632 188.771 28.992C188.515 28.288 187.875 27.936 186.851 27.936C185.443 27.936 184.195 28.64 183.107 30.048C182.019 31.392 180.803 33.952 179.459 37.728L178.211 41.28H176.387L178.787 34.272C180.195 30.24 181.923 27.584 183.971 26.304C186.083 25.024 188.163 24.384 190.211 24.384C192.131 24.384 193.507 24.8 194.339 25.632C195.235 26.464 195.715 27.552 195.779 28.896C195.907 30.176 195.811 31.616 195.491 33.216C195.235 34.752 194.915 36.288 194.531 37.824L185.123 75.072ZM189.539 55.104C191.779 49.344 193.955 44.512 196.067 40.608C198.179 36.704 200.259 33.568 202.307 31.2C204.355 28.768 206.435 27.04 208.547 26.016C210.723 24.928 212.963 24.384 215.267 24.384C218.275 24.384 220.323 25.12 221.411 26.592C222.563 28 223.075 29.824 222.947 32.064C222.819 34.24 222.371 36.512 221.603 38.88L212.291 66.912C211.715 68.64 211.459 70.08 211.523 71.232C211.651 72.32 212.419 72.864 213.827 72.864C215.043 72.864 216.227 72.192 217.379 70.848C218.595 69.504 219.875 66.912 221.219 63.072L222.467 59.52H224.291L221.891 66.528C220.995 69.216 219.875 71.264 218.531 72.672C217.251 74.08 215.875 75.04 214.403 75.552C212.995 76.128 211.619 76.416 210.275 76.416C208.739 76.416 207.459 76.16 206.435 75.648C205.475 75.136 204.739 74.464 204.227 73.632C203.523 72.48 203.299 70.976 203.555 69.12C203.811 67.264 204.323 65.216 205.091 62.976L214.211 35.52C214.531 34.624 214.787 33.568 214.979 32.352C215.235 31.072 215.203 29.952 214.883 28.992C214.563 27.968 213.635 27.456 212.099 27.456C210.563 27.456 208.931 28.128 207.203 29.472C205.475 30.816 203.683 32.736 201.827 35.232C199.971 37.664 198.147 40.608 196.355 44.064C194.563 47.456 192.835 51.232 191.171 55.392C189.571 59.488 188.099 63.872 186.755 68.544L189.539 55.104ZM237.163 53.28C240.747 52.064 243.979 50.88 246.859 49.728C249.803 48.512 252.139 47.232 253.867 45.888C256.171 44.032 257.995 41.792 259.339 39.168C260.683 36.544 261.355 33.664 261.355 30.528C261.355 28.672 261.227 27.488 260.971 26.976C260.715 26.464 260.331 26.208 259.819 26.208C258.219 26.208 256.491 26.912 254.635 28.32C252.779 29.728 250.955 31.68 249.163 34.176C247.371 36.608 245.707 39.392 244.171 42.528C242.699 45.664 241.515 49.024 240.619 52.608C239.723 56.128 239.275 59.648 239.275 63.168C239.275 66.432 239.883 68.8 241.099 70.272C242.315 71.68 243.915 72.384 245.899 72.384C248.203 72.384 250.635 71.68 253.195 70.272C255.755 68.864 258.251 66.368 260.683 62.784L262.219 63.552C261.003 65.664 259.403 67.712 257.419 69.696C255.435 71.68 253.195 73.312 250.699 74.592C248.267 75.808 245.675 76.416 242.923 76.416C240.363 76.416 238.123 75.904 236.203 74.88C234.283 73.856 232.811 72.352 231.787 70.368C230.763 68.32 230.251 65.824 230.251 62.88C230.251 60.128 230.763 57.056 231.787 53.664C232.811 50.208 234.251 46.784 236.107 43.392C238.027 39.936 240.299 36.768 242.923 33.888C245.547 31.008 248.459 28.704 251.659 26.976C254.859 25.248 258.283 24.384 261.931 24.384C263.915 24.384 265.579 24.928 266.923 26.016C268.331 27.04 269.035 28.608 269.035 30.72C269.035 33.28 268.267 35.68 266.731 37.92C265.259 40.096 263.275 42.112 260.779 43.968C258.347 45.76 255.691 47.36 252.811 48.768C249.931 50.176 247.115 51.392 244.363 52.416C241.611 53.44 239.179 54.272 237.067 54.912L237.163 53.28Z" fill="#FAFAFA"/>
</svg>
