<svg width="661" height="64" viewBox="0 0 661 64" fill="none" xmlns="http://www.w3.org/2000/svg">
<path d="M42.8159 2.28882e-05C43.7973 2.28882e-05 44.5226 0.29869 44.9919 0.896023C45.4613 1.49336 45.6959 2.21869 45.6959 3.07202C45.6959 4.05335 45.3973 4.94935 44.7999 5.76002C44.2453 6.52802 43.5413 7.16802 42.6879 7.68002C41.6213 8.36269 40.2346 8.89602 38.5279 9.28002C36.8639 9.62136 34.8799 9.79202 32.5759 9.79202C30.7839 9.79202 28.9919 9.70669 27.1999 9.53602C25.4506 9.32269 23.7226 9.08802 22.0159 8.83202C20.3093 8.57602 18.6239 8.36269 16.9599 8.19202C15.2959 7.97869 13.6533 7.87202 12.0319 7.87202C10.7093 7.87202 9.34394 7.93602 7.93594 8.06402C6.57061 8.19202 5.54661 8.49069 4.86394 8.96002C5.20527 9.38669 5.48261 9.96269 5.69594 10.688C5.90927 11.3707 6.01594 12.032 6.01594 12.672C6.01594 13.5254 5.75994 14.3574 5.24794 15.168C4.73594 15.9787 3.92527 16.384 2.81594 16.384C1.87727 16.384 1.17327 16.0854 0.703941 15.488C0.234608 14.8907 -5.91278e-05 14.1227 -5.91278e-05 13.184C-5.91278e-05 12.3307 0.234608 11.456 0.703941 10.56C1.17327 9.62136 2.06927 8.83202 3.39194 8.19202C4.37327 7.72269 5.41861 7.38136 6.52794 7.16802C7.67994 6.95469 8.74661 6.82669 9.72794 6.78402C10.7519 6.74136 11.4986 6.72002 11.9679 6.72002C14.5279 6.72002 16.9386 6.86936 19.1999 7.16802C21.4613 7.46669 23.7013 7.76536 25.9199 8.06402C28.1813 8.36269 30.5493 8.51202 33.0239 8.51202C34.9866 8.51202 36.6293 8.40536 37.9519 8.19202C39.3173 7.93602 40.5333 7.50935 41.5999 6.91202L41.5359 7.36002C41.1093 6.93336 40.6826 6.40002 40.2559 5.76002C39.8719 5.07736 39.6799 4.33069 39.6799 3.52002C39.6799 2.66669 39.9359 1.87735 40.4479 1.15202C40.9599 0.384023 41.7493 2.28882e-05 42.8159 2.28882e-05ZM20.4159 8.06402C20.4159 8.06402 20.6079 8.08536 20.9919 8.12802C21.3759 8.17069 21.8453 8.23469 22.3999 8.32002C22.9973 8.40535 23.5733 8.49069 24.1279 8.57602C24.7253 8.66136 25.2159 8.72536 25.5999 8.76802C25.9839 8.81069 26.1759 8.83202 26.1759 8.83202L16.5759 44.864C16.1493 46.4854 15.9786 47.744 16.0639 48.64C16.1493 49.4934 16.5973 50.0907 17.4079 50.432C18.2613 50.7734 19.5839 50.9654 21.3759 51.008L21.1199 52.288C20.0106 52.2027 18.6026 52.16 16.8959 52.16C15.1893 52.1174 13.4186 52.096 11.5839 52.096C9.74927 52.096 7.97861 52.1174 6.27194 52.16C4.60794 52.16 3.26394 52.2027 2.23994 52.288L2.49594 51.008C4.28794 50.9227 5.67461 50.7094 6.65594 50.368C7.67994 49.984 8.46927 49.3654 9.02394 48.512C9.62127 47.616 10.1546 46.4 10.6239 44.864L20.4159 8.06402ZM40.8434 52.288H35.2754L47.9474 9.60002C48.3741 8.14936 48.3101 7.08269 47.7554 6.40002C47.2434 5.71736 45.9421 5.37602 43.8514 5.37602L44.2354 4.03202C46.5821 3.98936 48.6941 3.75469 50.5714 3.32802C52.4488 2.85869 54.1768 2.21869 55.7554 1.40802L40.8434 52.288ZM42.6354 42.816C44.2568 38.336 45.7928 34.5387 47.2434 31.424C48.7368 28.3094 50.2088 25.8134 51.6594 23.936C53.1101 22.016 54.6034 20.6294 56.1394 19.776C57.6754 18.9227 59.2754 18.496 60.9394 18.496C62.9448 18.496 64.3101 18.9867 65.0354 19.968C65.8034 20.9067 66.1448 22.1227 66.0594 23.616C65.9741 25.1094 65.6754 26.624 65.1634 28.16L58.9554 46.848C58.6141 47.9574 58.4648 48.896 58.5074 49.664C58.5501 50.432 59.0408 50.816 59.9794 50.816C60.7901 50.816 61.5794 50.368 62.3474 49.472C63.1581 48.576 64.0114 46.848 64.9074 44.288L65.7394 41.92H66.9554L65.3554 46.592C64.7581 48.384 64.0114 49.7494 63.1154 50.688C62.2621 51.6267 61.3448 52.2667 60.3634 52.608C59.4248 52.992 58.5074 53.184 57.6114 53.184C55.9048 53.184 54.7101 52.8 54.0274 52.032C53.3448 51.264 53.0461 50.1974 53.1314 48.832C53.2594 47.4667 53.6008 45.9307 54.1554 44.224L60.2354 25.92C60.4488 25.28 60.6408 24.5334 60.8114 23.68C60.9821 22.8267 60.9394 22.1014 60.6834 21.504C60.4701 20.864 59.8514 20.544 58.8274 20.544C57.7608 20.544 56.6088 21.0347 55.3714 22.016C54.1768 22.9547 52.9394 24.32 51.6594 26.112C50.3794 27.904 49.1208 30.0587 47.8834 32.576C46.6461 35.0934 45.4514 37.9094 44.2994 41.024C43.1901 44.096 42.1448 47.424 41.1634 51.008L42.6354 42.816ZM75.5399 37.76C77.9293 36.9494 80.0839 36.16 82.0039 35.392C83.9666 34.5814 85.5239 33.728 86.6759 32.832C88.2119 31.5947 89.4279 30.1014 90.3239 28.352C91.2199 26.6027 91.6679 24.6827 91.6679 22.592C91.6679 21.3547 91.5826 20.5654 91.4119 20.224C91.2413 19.8827 90.9853 19.712 90.6439 19.712C89.5773 19.712 88.4253 20.1814 87.1879 21.12C85.9506 22.0587 84.7346 23.36 83.5399 25.024C82.3453 26.6454 81.2359 28.5014 80.2119 30.592C79.2306 32.6827 78.4413 34.9227 77.8439 37.312C77.2466 39.6587 76.9479 42.0054 76.9479 44.352C76.9479 46.528 77.3533 48.1067 78.1639 49.088C78.9746 50.0267 80.0413 50.496 81.3639 50.496C82.8999 50.496 84.5213 50.0267 86.2279 49.088C87.9346 48.1494 89.5986 46.4854 91.2199 44.096L92.2439 44.608C91.4333 46.016 90.3666 47.3814 89.0439 48.704C87.7213 50.0267 86.2279 51.1147 84.5639 51.968C82.9426 52.7787 81.2146 53.184 79.3799 53.184C77.6733 53.184 76.1799 52.8427 74.8999 52.16C73.6199 51.4774 72.6386 50.4747 71.9559 49.152C71.2733 47.7867 70.9319 46.1227 70.9319 44.16C70.9319 42.3254 71.2733 40.2774 71.9559 38.016C72.6386 35.712 73.5986 33.4294 74.8359 31.168C76.1159 28.864 77.6306 26.752 79.3799 24.832C81.1293 22.912 83.0706 21.376 85.2039 20.224C87.3373 19.072 89.6199 18.496 92.0519 18.496C93.3746 18.496 94.4839 18.8587 95.3799 19.584C96.3186 20.2667 96.7879 21.312 96.7879 22.72C96.7879 24.4267 96.2759 26.0267 95.2519 27.52C94.2706 28.9707 92.9479 30.3147 91.2839 31.552C89.6626 32.7467 87.8919 33.8134 85.9719 34.752C84.0519 35.6907 82.1746 36.5014 80.3399 37.184C78.5053 37.8667 76.8839 38.4214 75.4759 38.848L75.5399 37.76ZM126.461 30.784L126.781 29.504H139.581L139.261 30.784H126.461ZM149.565 20.416C150.077 17.4294 150.312 15.0827 150.269 13.376C150.226 11.6267 149.65 10.368 148.541 9.60002C147.474 8.83202 145.597 8.44802 142.909 8.44802H139.517C138.066 8.44802 136.936 8.57602 136.125 8.83202C135.357 9.04536 134.738 9.53602 134.269 10.304C133.8 11.0294 133.352 12.1814 132.925 13.76L124.413 45.504C123.986 47.04 123.837 48.192 123.965 48.96C124.093 49.728 124.584 50.24 125.437 50.496C126.333 50.752 127.656 50.9227 129.405 51.008L129.085 52.288C127.976 52.2027 126.568 52.16 124.861 52.16C123.154 52.1174 121.426 52.096 119.677 52.096C118.013 52.096 116.456 52.1174 115.005 52.16C113.597 52.16 112.445 52.2027 111.549 52.288L111.869 51.008C113.32 50.9227 114.45 50.752 115.261 50.496C116.072 50.24 116.69 49.728 117.117 48.96C117.586 48.192 118.034 47.04 118.461 45.504L126.973 13.76C127.4 12.1814 127.57 11.0294 127.485 10.304C127.442 9.53602 127.08 9.02402 126.397 8.76802C125.757 8.46936 124.712 8.29869 123.261 8.25602L123.581 6.97602C125.16 7.01869 126.824 7.06136 128.573 7.10402C130.322 7.10402 132.05 7.12536 133.757 7.16802C135.464 7.16802 137.042 7.16802 138.493 7.16802C139.986 7.16802 141.202 7.16802 142.141 7.16802C144.018 7.16802 146.13 7.16802 148.477 7.16802C150.866 7.12536 153 7.06136 154.877 6.97602C154.322 8.59736 153.789 10.176 153.277 11.712C152.808 13.2054 152.466 14.3574 152.253 15.168C151.954 16.192 151.698 17.152 151.485 18.048C151.314 18.944 151.165 19.7334 151.037 20.416H149.565ZM133.373 29.504C134.781 29.504 135.933 29.2267 136.829 28.672C137.725 28.0747 138.472 27.328 139.069 26.432C139.666 25.536 140.157 24.6187 140.541 23.68C140.925 22.6987 141.266 21.824 141.565 21.056H143.037C142.226 23.488 141.65 25.344 141.309 26.624C141.01 27.904 140.712 29.0774 140.413 30.144C140.157 31.2107 139.88 32.384 139.581 33.664C139.282 34.944 138.877 36.8 138.365 39.232H136.893C137.021 38.208 137.149 37.2054 137.277 36.224C137.405 35.2 137.405 34.2827 137.277 33.472C137.149 32.6614 136.765 32.0214 136.125 31.552C135.485 31.04 134.461 30.784 133.053 30.784L133.373 29.504ZM162.135 7.74402C162.348 6.63469 162.903 5.67469 163.799 4.86402C164.738 4.05335 165.74 3.64802 166.807 3.64802C167.916 3.64802 168.77 4.05335 169.367 4.86402C170.007 5.67469 170.22 6.63469 170.007 7.74402C169.794 8.85336 169.218 9.81336 168.279 10.624C167.383 11.4347 166.38 11.84 165.271 11.84C164.204 11.84 163.351 11.4347 162.711 10.624C162.114 9.81336 161.922 8.85336 162.135 7.74402ZM160.151 24.832C161.047 22.1867 160.748 20.864 159.255 20.864C158.274 20.864 157.399 21.3974 156.631 22.464C155.863 23.5307 155.052 25.1734 154.199 27.392L153.303 29.76H152.087L153.751 25.088C154.391 23.296 155.159 21.9307 156.055 20.992C156.951 20.0534 157.89 19.4134 158.871 19.072C159.895 18.688 160.834 18.496 161.687 18.496C163.052 18.496 164.055 18.7734 164.695 19.328C165.335 19.8827 165.719 20.608 165.847 21.504C165.975 22.4 165.932 23.3814 165.719 24.448C165.506 25.472 165.228 26.4747 164.887 27.456L158.039 46.848C157.612 48.0854 157.463 49.0667 157.591 49.792C157.762 50.4747 158.252 50.816 159.063 50.816C159.916 50.816 160.727 50.3467 161.495 49.408C162.263 48.4694 163.116 46.7627 164.055 44.288L164.951 41.92H166.167L164.503 46.592C163.906 48.256 163.18 49.5787 162.327 50.56C161.474 51.4987 160.556 52.16 159.575 52.544C158.594 52.9707 157.612 53.184 156.631 53.184C154.796 53.184 153.559 52.7574 152.919 51.904C152.279 51.0507 152.044 49.9414 152.215 48.576C152.386 47.2107 152.748 45.76 153.303 44.224L160.151 24.832ZM177.095 52.288H171.527L179.207 24.832C179.634 23.3814 179.762 22.3574 179.591 21.76C179.463 21.1627 179.037 20.864 178.311 20.864C177.373 20.864 176.519 21.3547 175.751 22.336C174.983 23.3174 174.173 25.0027 173.319 27.392L172.487 29.76H171.271L172.871 25.088C173.511 23.296 174.258 21.9307 175.111 20.992C176.007 20.0534 176.925 19.4134 177.863 19.072C178.845 18.688 179.762 18.496 180.615 18.496C181.895 18.496 182.791 18.7734 183.303 19.328C183.858 19.8827 184.157 20.608 184.199 21.504C184.285 22.4 184.221 23.3814 184.007 24.448C183.837 25.472 183.623 26.4747 183.367 27.456L177.095 52.288ZM193.543 20.096C192.562 20.096 191.538 20.5654 190.471 21.504C189.447 22.4 188.381 23.7227 187.271 25.472C186.205 27.1787 185.117 29.248 184.007 31.68C182.941 34.0694 181.874 36.736 180.807 39.68C179.783 42.624 178.781 45.8027 177.799 49.216L179.399 41.024C180.807 36.8427 182.109 33.3227 183.303 30.464C184.541 27.6054 185.757 25.3014 186.951 23.552C188.146 21.76 189.362 20.48 190.599 19.712C191.879 18.9014 193.223 18.496 194.631 18.496C195.826 18.496 196.743 18.8374 197.383 19.52C198.066 20.2027 198.407 21.0774 198.407 22.144C198.407 22.9974 198.194 23.7867 197.767 24.512C197.341 25.1947 196.786 25.7494 196.103 26.176C195.463 26.56 194.738 26.752 193.927 26.752C193.202 26.752 192.583 26.56 192.071 26.176C191.602 25.7494 191.367 25.1734 191.367 24.448C191.367 23.7654 191.495 23.168 191.751 22.656C192.007 22.1014 192.349 21.632 192.775 21.248C193.202 20.864 193.693 20.5654 194.247 20.352C194.162 20.2667 194.055 20.2027 193.927 20.16C193.842 20.1174 193.714 20.096 193.543 20.096ZM200.377 51.328C200.719 51.4987 201.081 51.648 201.465 51.776C201.892 51.8614 202.511 51.904 203.321 51.904C205.199 51.904 206.735 51.3494 207.929 50.24C209.167 49.088 209.785 47.4454 209.785 45.312C209.785 43.9894 209.529 42.688 209.017 41.408C208.548 40.0854 207.695 38.5707 206.457 36.864C205.476 35.4987 204.537 34.112 203.641 32.704C202.745 31.2534 202.297 29.5467 202.297 27.584C202.297 25.7494 202.745 24.1707 203.641 22.848C204.537 21.4827 205.732 20.416 207.225 19.648C208.761 18.88 210.425 18.496 212.217 18.496C213.455 18.496 214.671 18.6454 215.865 18.944C217.06 19.2427 218.041 19.7974 218.809 20.608C219.62 21.376 220.025 22.528 220.025 24.064C220.025 24.448 219.919 24.9174 219.705 25.472C219.535 25.984 219.236 26.432 218.809 26.816C218.383 27.2 217.807 27.392 217.081 27.392C216.399 27.392 215.801 27.1574 215.289 26.688C214.777 26.176 214.521 25.5147 214.521 24.704C214.521 23.936 214.671 23.2107 214.969 22.528C215.311 21.8027 215.759 21.0987 216.313 20.416C215.503 19.904 214.436 19.648 213.113 19.648C211.535 19.648 210.212 20.1814 209.145 21.248C208.079 22.3147 207.545 23.808 207.545 25.728C207.545 26.7094 207.695 27.584 207.993 28.352C208.292 29.0774 208.719 29.8454 209.273 30.656C209.871 31.4667 210.575 32.4907 211.385 33.728C212.452 35.3494 213.348 36.9067 214.073 38.4C214.799 39.8934 215.161 41.472 215.161 43.136C215.161 45.0987 214.649 46.848 213.625 48.384C212.644 49.8774 211.321 51.0507 209.657 51.904C207.993 52.7574 206.159 53.184 204.153 53.184C202.703 53.184 201.316 52.9707 199.993 52.544C198.671 52.1174 197.583 51.456 196.729 50.56C195.919 49.6214 195.513 48.384 195.513 46.848C195.513 46.2507 195.705 45.632 196.089 44.992C196.431 44.3094 197.071 43.968 198.009 43.968C199.033 43.968 199.759 44.3947 200.185 45.248C200.612 46.0587 200.825 46.976 200.825 48C200.825 48.6827 200.761 49.3014 200.633 49.856C200.548 50.368 200.463 50.8587 200.377 51.328ZM244.976 19.392L244.784 20.672H224.88L225.2 19.392H244.976ZM228.72 46.848C228.336 48.256 228.422 49.28 228.976 49.92C229.574 50.5174 230.342 50.816 231.28 50.816C232.219 50.816 233.158 50.4107 234.096 49.6C235.078 48.7894 236.038 47.0614 236.976 44.416L237.872 41.92H239.088L237.744 45.952C236.806 48.7254 235.59 50.624 234.096 51.648C232.646 52.672 230.939 53.184 228.976 53.184C227.227 53.184 225.883 52.8214 224.944 52.096C224.048 51.328 223.515 50.2614 223.344 48.896C223.174 47.5307 223.344 45.9734 223.856 44.224L233.776 9.66402C234.8 9.62136 235.803 9.53602 236.784 9.40802C237.808 9.28002 238.726 9.06669 239.536 8.76802L228.72 46.848ZM304.232 6.97602C303.592 8.64002 302.931 10.6667 302.248 13.056C301.565 15.4027 300.861 18.2827 300.136 21.696H298.728C299.069 19.4774 299.176 17.6214 299.048 16.128C298.963 14.592 298.643 13.2907 298.088 12.224C297.277 10.6027 296.104 9.36536 294.568 8.51202C293.075 7.65869 291.453 7.23202 289.704 7.23202C287.485 7.23202 285.331 7.89336 283.24 9.21602C281.149 10.496 279.208 12.2454 277.416 14.464C275.624 16.6827 274.045 19.2 272.68 22.016C271.315 24.7894 270.248 27.6907 269.48 30.72C268.712 33.7067 268.328 36.6294 268.328 39.488C268.328 43.6694 269.139 46.8054 270.76 48.896C272.424 50.9867 274.664 52.032 277.48 52.032C279.272 52.032 281.213 51.6054 283.304 50.752C285.437 49.8987 287.293 48.6614 288.872 47.04C290.024 45.888 291.005 44.544 291.816 43.008C292.669 41.4294 293.608 39.4027 294.632 36.928H296.04C294.973 40.8107 294.141 43.9467 293.544 46.336C292.989 48.6827 292.563 50.6667 292.264 52.288H290.856C290.984 51.392 291.048 50.6667 291.048 50.112C291.048 49.1307 290.877 48.5974 290.536 48.512C290.195 48.384 289.661 48.5547 288.936 49.024C287.784 49.792 286.632 50.496 285.48 51.136C284.328 51.7334 283.069 52.224 281.704 52.608C280.339 52.992 278.717 53.184 276.84 53.184C272.147 53.184 268.477 51.9254 265.832 49.408C263.229 46.848 261.928 43.0934 261.928 38.144C261.928 35.2427 262.376 32.2987 263.272 29.312C264.168 26.2827 265.448 23.3814 267.112 20.608C268.776 17.8347 270.76 15.36 273.064 13.184C275.368 11.008 277.928 9.28002 280.744 8.00002C283.56 6.72002 286.589 6.08002 289.832 6.08002C291.667 6.08002 293.16 6.29336 294.312 6.72002C295.464 7.10402 296.424 7.61602 297.192 8.25602C298.003 8.85336 298.728 9.51469 299.368 10.24C299.965 10.8374 300.52 10.9227 301.032 10.496C301.587 10.0267 302.205 8.85336 302.888 6.97602H304.232ZM320.995 19.776C319.63 19.776 318.307 20.3307 317.027 21.44C315.79 22.5067 314.638 23.9787 313.571 25.856C312.547 27.6907 311.63 29.76 310.819 32.064C310.051 34.368 309.454 36.7574 309.027 39.232C308.6 41.7067 308.387 44.0747 308.387 46.336C308.387 48.256 308.686 49.664 309.283 50.56C309.923 51.456 310.84 51.904 312.035 51.904C313.4 51.904 314.702 51.3707 315.939 50.304C317.219 49.1947 318.392 47.7227 319.459 45.888C320.526 44.0107 321.443 41.92 322.211 39.616C322.979 37.312 323.576 34.944 324.003 32.512C324.43 30.0374 324.643 27.648 324.643 25.344C324.643 23.3814 324.344 21.9734 323.747 21.12C323.15 20.224 322.232 19.776 320.995 19.776ZM302.883 43.136C302.883 41.2587 303.139 39.2107 303.651 36.992C304.163 34.7734 304.931 32.576 305.955 30.4C306.979 28.224 308.216 26.24 309.667 24.448C311.16 22.656 312.888 21.2267 314.851 20.16C316.814 19.0507 318.99 18.496 321.379 18.496C324.024 18.496 326.136 19.328 327.715 20.992C329.336 22.6134 330.147 25.1307 330.147 28.544C330.147 30.4214 329.891 32.4694 329.379 34.688C328.867 36.9067 328.099 39.104 327.075 41.28C326.051 43.456 324.792 45.44 323.299 47.232C321.848 49.024 320.142 50.4747 318.179 51.584C316.216 52.6507 314.04 53.184 311.651 53.184C309.006 53.184 306.872 52.352 305.251 50.688C303.672 49.024 302.883 46.5067 302.883 43.136ZM340.533 52.288H334.965L342.645 24.832C342.773 24.448 342.88 23.9574 342.965 23.36C343.093 22.72 343.093 22.144 342.965 21.632C342.837 21.12 342.432 20.864 341.749 20.864C340.81 20.864 339.957 21.3547 339.189 22.336C338.421 23.3174 337.61 25.0027 336.757 27.392L335.925 29.76H334.709L336.309 25.088C336.949 23.296 337.696 21.9307 338.549 20.992C339.445 20.0534 340.362 19.4134 341.301 19.072C342.282 18.688 343.2 18.496 344.053 18.496C345.333 18.496 346.25 18.7947 346.805 19.392C347.36 19.9467 347.658 20.6934 347.701 21.632C347.786 22.528 347.722 23.488 347.509 24.512C347.296 25.536 347.061 26.5174 346.805 27.456L340.533 52.288ZM358.645 25.92C358.944 25.024 359.136 24.1707 359.221 23.36C359.349 22.5494 359.285 21.888 359.029 21.376C358.816 20.8214 358.304 20.544 357.493 20.544C356.298 20.544 354.976 21.2907 353.525 22.784C352.117 24.2347 350.666 26.2827 349.173 28.928C347.722 31.5307 346.314 34.5814 344.949 38.08C343.584 41.536 342.368 45.248 341.301 49.216L343.413 38.976C345.376 33.856 347.21 29.8027 348.917 26.816C350.624 23.8294 352.33 21.696 354.037 20.416C355.786 19.136 357.642 18.496 359.605 18.496C360.97 18.496 361.952 18.816 362.549 19.456C363.189 20.0534 363.573 20.8427 363.701 21.824C363.829 22.8054 363.786 23.8507 363.573 24.96C363.402 26.0694 363.189 27.136 362.933 28.16L356.405 52.288H350.645L358.645 25.92ZM374.645 25.92C375.072 24.5974 375.285 23.3814 375.285 22.272C375.285 21.12 374.816 20.544 373.877 20.544C372.597 20.544 371.253 21.2907 369.845 22.784C368.437 24.2774 366.986 26.4107 365.493 29.184C364 31.9147 362.506 35.136 361.013 38.848C359.562 42.5174 358.154 46.5707 356.789 51.008L358.261 42.816C359.925 38.3787 361.461 34.624 362.869 31.552C364.277 28.4374 365.664 25.92 367.029 24C368.394 22.08 369.802 20.6934 371.253 19.84C372.704 18.944 374.282 18.496 375.989 18.496C377.781 18.496 378.997 19.008 379.637 20.032C380.277 21.056 380.533 22.3147 380.405 23.808C380.32 25.2587 380.042 26.7094 379.573 28.16L373.365 46.848C372.938 48.1707 372.789 49.1734 372.917 49.856C373.045 50.496 373.536 50.816 374.389 50.816C375.2 50.816 375.989 50.368 376.757 49.472C377.568 48.576 378.421 46.848 379.317 44.288L380.149 41.92H381.365L379.765 46.592C379.168 48.384 378.421 49.7494 377.525 50.688C376.672 51.6267 375.754 52.2667 374.773 52.608C373.834 52.992 372.917 53.184 372.021 53.184C370.954 53.184 370.101 53.0134 369.461 52.672C368.864 52.3734 368.394 51.968 368.053 51.456C367.541 50.6454 367.37 49.6427 367.541 48.448C367.712 47.2107 368.053 45.8027 368.565 44.224L374.645 25.92ZM408.859 20.544C407.75 20.544 406.491 21.3334 405.083 22.912C403.718 24.448 402.31 26.56 400.859 29.248C399.451 31.8934 398.107 34.88 396.827 38.208C395.59 41.536 394.544 44.992 393.691 48.576L394.843 41.664C396.678 36.0747 398.448 31.5947 400.155 28.224C401.862 24.8107 403.568 22.336 405.275 20.8C407.024 19.264 408.838 18.496 410.715 18.496C412.72 18.496 414.32 19.2427 415.515 20.736C416.752 22.2294 417.371 24.4907 417.371 27.52C417.371 29.44 417.094 31.552 416.539 33.856C416.027 36.16 415.238 38.4427 414.171 40.704C413.147 42.9654 411.867 45.056 410.331 46.976C408.838 48.8534 407.11 50.368 405.147 51.52C403.184 52.6294 401.008 53.184 398.619 53.184C397.339 53.184 396.187 52.8 395.163 52.032C394.182 51.264 393.52 50.1547 393.179 48.704L393.691 47.424C394.288 49.0027 394.971 50.112 395.739 50.752C396.55 51.392 397.488 51.712 398.555 51.712C400.006 51.712 401.392 51.1574 402.715 50.048C404.038 48.896 405.254 47.3814 406.363 45.504C407.472 43.6267 408.432 41.5574 409.243 39.296C410.096 36.992 410.736 34.7094 411.163 32.448C411.632 30.144 411.867 28.032 411.867 26.112C411.867 24.2347 411.59 22.848 411.035 21.952C410.523 21.0134 409.798 20.544 408.859 20.544ZM399.259 9.60002C400.283 9.55736 401.286 9.47202 402.267 9.34402C403.291 9.21602 404.23 9.00269 405.083 8.70402L391.003 57.92C390.491 59.712 390.747 60.928 391.771 61.568C392.795 62.208 394.267 62.528 396.187 62.528L395.803 63.872C394.95 63.8294 393.734 63.7654 392.155 63.68C390.619 63.6374 388.976 63.616 387.227 63.616C385.904 63.616 384.56 63.6374 383.195 63.68C381.83 63.7654 380.806 63.8294 380.123 63.872L380.507 62.528C382.043 62.528 383.152 62.2294 383.835 61.632C384.518 61.0774 385.072 60.0534 385.499 58.56L399.259 9.60002ZM385.947 29.44C387.611 27.8187 389.168 26.2187 390.619 24.64C392.07 23.0187 393.478 21.0987 394.843 18.88C396.208 16.6614 397.595 13.8667 399.003 10.496L399.195 11.52C398.256 14.4214 397.126 16.9814 395.803 19.2C394.523 21.376 393.115 23.36 391.579 25.152C390.043 26.9014 388.4 28.608 386.651 30.272L385.947 29.44ZM428.237 51.136C429.261 51.136 430.434 50.496 431.757 49.216C433.08 47.8934 434.424 46.1227 435.789 43.904C437.154 41.6854 438.413 39.168 439.565 36.352C440.717 33.536 441.634 30.6134 442.317 27.584L441.229 34.496C439.608 39.0187 437.986 42.6667 436.365 45.44C434.744 48.1707 433.101 50.1547 431.437 51.392C429.773 52.5867 428.088 53.184 426.381 53.184C424.376 53.184 422.861 52.4587 421.837 51.008C420.856 49.5574 420.365 47.7014 420.365 45.44C420.365 43.392 420.706 41.1734 421.389 38.784C422.072 36.352 423.01 33.9414 424.205 31.552C425.442 29.1627 426.85 26.9867 428.429 25.024C430.008 23.0614 431.714 21.4827 433.549 20.288C435.426 19.0934 437.325 18.496 439.245 18.496C440.738 18.496 441.869 19.2427 442.637 20.736C443.448 22.1867 443.618 24.2347 443.149 26.88L442.445 27.264C442.744 25.0027 442.594 23.1894 441.997 21.824C441.4 20.416 440.418 19.712 439.053 19.712C437.944 19.712 436.77 20.2667 435.533 21.376C434.338 22.4427 433.165 23.9147 432.013 25.792C430.904 27.6267 429.88 29.696 428.941 32C428.045 34.304 427.32 36.6934 426.765 39.168C426.253 41.6 425.997 43.9467 425.997 46.208C425.997 48.0427 426.189 49.3227 426.573 50.048C427 50.7734 427.554 51.136 428.237 51.136ZM444.365 19.392C445.389 19.3494 446.413 19.264 447.437 19.136C448.461 19.008 449.4 18.7947 450.253 18.496L442.253 46.784C442.168 47.168 442.04 47.68 441.869 48.32C441.741 48.9174 441.741 49.472 441.869 49.984C442.04 50.496 442.488 50.752 443.213 50.752C444.066 50.752 444.898 50.2827 445.709 49.344C446.52 48.4054 447.33 46.6987 448.141 44.224L448.909 41.856H450.125L448.525 46.528C447.928 48.2347 447.202 49.5787 446.349 50.56C445.538 51.4987 444.685 52.16 443.789 52.544C442.893 52.9707 442.018 53.184 441.165 53.184C439.501 53.184 438.328 52.6294 437.645 51.52C437.09 50.5387 436.941 49.408 437.197 48.128C437.453 46.8054 437.752 45.4827 438.093 44.16L444.365 19.392ZM461.097 52.288H455.529L463.209 24.832C463.38 24.32 463.508 23.7654 463.593 23.168C463.721 22.528 463.7 21.9947 463.529 21.568C463.358 21.0987 462.932 20.864 462.249 20.864C461.31 20.864 460.478 21.3334 459.753 22.272C459.028 23.168 458.217 24.8747 457.321 27.392L456.489 29.76H455.273L456.873 25.088C457.812 22.4 458.964 20.6294 460.329 19.776C461.737 18.9227 463.124 18.496 464.489 18.496C465.769 18.496 466.686 18.7734 467.241 19.328C467.838 19.8827 468.158 20.608 468.201 21.504C468.286 22.3574 468.222 23.3174 468.009 24.384C467.838 25.408 467.625 26.432 467.369 27.456L461.097 52.288ZM464.041 38.976C465.534 35.136 466.985 31.9147 468.393 29.312C469.801 26.7094 471.188 24.6187 472.553 23.04C473.918 21.4187 475.305 20.2667 476.713 19.584C478.164 18.8587 479.657 18.496 481.193 18.496C483.198 18.496 484.564 18.9867 485.289 19.968C486.057 20.9067 486.398 22.1227 486.313 23.616C486.228 25.0667 485.929 26.5814 485.417 28.16L479.209 46.848C478.825 48 478.654 48.96 478.697 49.728C478.782 50.4534 479.294 50.816 480.233 50.816C481.044 50.816 481.833 50.368 482.601 49.472C483.412 48.576 484.265 46.848 485.161 44.288L485.993 41.92H487.209L485.609 46.592C485.012 48.384 484.265 49.7494 483.369 50.688C482.516 51.6267 481.598 52.2667 480.617 52.608C479.678 52.992 478.761 53.184 477.865 53.184C476.841 53.184 475.988 53.0134 475.305 52.672C474.665 52.3307 474.174 51.8827 473.833 51.328C473.364 50.56 473.214 49.5574 473.385 48.32C473.556 47.0827 473.897 45.7174 474.409 44.224L480.489 25.92C480.702 25.3227 480.873 24.6187 481.001 23.808C481.172 22.9547 481.15 22.208 480.937 21.568C480.724 20.8854 480.105 20.544 479.081 20.544C478.057 20.544 476.969 20.992 475.817 21.888C474.665 22.784 473.47 24.064 472.233 25.728C470.996 27.3494 469.78 29.312 468.585 31.616C467.39 33.8774 466.238 36.3947 465.129 39.168C464.062 41.8987 463.081 44.8214 462.185 47.936L464.041 38.976ZM502.51 7.74402C502.723 6.63469 503.278 5.67469 504.174 4.86402C505.113 4.05335 506.115 3.64802 507.182 3.64802C508.291 3.64802 509.145 4.05335 509.742 4.86402C510.382 5.67469 510.595 6.63469 510.382 7.74402C510.169 8.85336 509.593 9.81336 508.654 10.624C507.758 11.4347 506.755 11.84 505.646 11.84C504.579 11.84 503.726 11.4347 503.086 10.624C502.489 9.81336 502.297 8.85336 502.51 7.74402ZM500.526 24.832C501.422 22.1867 501.123 20.864 499.63 20.864C498.649 20.864 497.774 21.3974 497.006 22.464C496.238 23.5307 495.427 25.1734 494.574 27.392L493.678 29.76H492.462L494.126 25.088C494.766 23.296 495.534 21.9307 496.43 20.992C497.326 20.0534 498.265 19.4134 499.246 19.072C500.27 18.688 501.209 18.496 502.062 18.496C503.427 18.496 504.43 18.7734 505.07 19.328C505.71 19.8827 506.094 20.608 506.222 21.504C506.35 22.4 506.307 23.3814 506.094 24.448C505.881 25.472 505.603 26.4747 505.262 27.456L498.414 46.848C497.987 48.0854 497.838 49.0667 497.966 49.792C498.137 50.4747 498.627 50.816 499.438 50.816C500.291 50.816 501.102 50.3467 501.87 49.408C502.638 48.4694 503.491 46.7627 504.43 44.288L505.326 41.92H506.542L504.878 46.592C504.281 48.256 503.555 49.5787 502.702 50.56C501.849 51.4987 500.931 52.16 499.95 52.544C498.969 52.9707 497.987 53.184 497.006 53.184C495.171 53.184 493.934 52.7574 493.294 51.904C492.654 51.0507 492.419 49.9414 492.59 48.576C492.761 47.2107 493.123 45.76 493.678 44.224L500.526 24.832ZM529.182 19.776C527.817 19.776 526.494 20.3307 525.214 21.44C523.977 22.5067 522.825 23.9787 521.758 25.856C520.734 27.6907 519.817 29.76 519.006 32.064C518.238 34.368 517.641 36.7574 517.214 39.232C516.788 41.7067 516.574 44.0747 516.574 46.336C516.574 48.256 516.873 49.664 517.47 50.56C518.11 51.456 519.028 51.904 520.222 51.904C521.588 51.904 522.889 51.3707 524.126 50.304C525.406 49.1947 526.58 47.7227 527.646 45.888C528.713 44.0107 529.63 41.92 530.398 39.616C531.166 37.312 531.764 34.944 532.19 32.512C532.617 30.0374 532.83 27.648 532.83 25.344C532.83 23.3814 532.532 21.9734 531.934 21.12C531.337 20.224 530.42 19.776 529.182 19.776ZM511.07 43.136C511.07 41.2587 511.326 39.2107 511.838 36.992C512.35 34.7734 513.118 32.576 514.142 30.4C515.166 28.224 516.404 26.24 517.854 24.448C519.348 22.656 521.076 21.2267 523.038 20.16C525.001 19.0507 527.177 18.496 529.566 18.496C532.212 18.496 534.324 19.328 535.902 20.992C537.524 22.6134 538.334 25.1307 538.334 28.544C538.334 30.4214 538.078 32.4694 537.566 34.688C537.054 36.9067 536.286 39.104 535.262 41.28C534.238 43.456 532.98 45.44 531.486 47.232C530.036 49.024 528.329 50.4747 526.366 51.584C524.404 52.6507 522.228 53.184 519.838 53.184C517.193 53.184 515.06 52.352 513.438 50.688C511.86 49.024 511.07 46.5067 511.07 43.136ZM548.784 52.288H543.216L550.896 24.832C551.067 24.32 551.195 23.7654 551.28 23.168C551.408 22.528 551.387 21.9947 551.216 21.568C551.046 21.0987 550.619 20.864 549.936 20.864C548.998 20.864 548.166 21.3334 547.44 22.272C546.715 23.168 545.904 24.8747 545.008 27.392L544.176 29.76H542.96L544.56 25.088C545.499 22.4 546.651 20.6294 548.016 19.776C549.424 18.9227 550.811 18.496 552.176 18.496C553.456 18.496 554.374 18.7734 554.928 19.328C555.526 19.8827 555.846 20.608 555.888 21.504C555.974 22.3574 555.91 23.3174 555.696 24.384C555.526 25.408 555.312 26.432 555.056 27.456L548.784 52.288ZM551.728 38.976C553.222 35.136 554.672 31.9147 556.08 29.312C557.488 26.7094 558.875 24.6187 560.24 23.04C561.606 21.4187 562.992 20.2667 564.4 19.584C565.851 18.8587 567.344 18.496 568.88 18.496C570.886 18.496 572.251 18.9867 572.976 19.968C573.744 20.9067 574.086 22.1227 574 23.616C573.915 25.0667 573.616 26.5814 573.104 28.16L566.896 46.848C566.512 48 566.342 48.96 566.384 49.728C566.47 50.4534 566.982 50.816 567.92 50.816C568.731 50.816 569.52 50.368 570.288 49.472C571.099 48.576 571.952 46.848 572.848 44.288L573.68 41.92H574.896L573.296 46.592C572.699 48.384 571.952 49.7494 571.056 50.688C570.203 51.6267 569.286 52.2667 568.304 52.608C567.366 52.992 566.448 53.184 565.552 53.184C564.528 53.184 563.675 53.0134 562.992 52.672C562.352 52.3307 561.862 51.8827 561.52 51.328C561.051 50.56 560.902 49.5574 561.072 48.32C561.243 47.0827 561.584 45.7174 562.096 44.224L568.176 25.92C568.39 25.3227 568.56 24.6187 568.688 23.808C568.859 22.9547 568.838 22.208 568.624 21.568C568.411 20.8854 567.792 20.544 566.768 20.544C565.744 20.544 564.656 20.992 563.504 21.888C562.352 22.784 561.158 24.064 559.92 25.728C558.683 27.3494 557.467 29.312 556.272 31.616C555.078 33.8774 553.926 36.3947 552.816 39.168C551.75 41.8987 550.768 44.8214 549.872 47.936L551.728 38.976ZM599.409 41.92C597.83 44.1387 596.87 45.9094 596.529 47.232C596.23 48.5547 596.486 49.5147 597.297 50.112C598.108 50.6667 599.388 50.9654 601.137 51.008L600.817 52.288C599.622 52.2027 598.385 52.16 597.105 52.16C595.825 52.1174 594.63 52.096 593.521 52.096C592.454 52.096 591.558 52.1174 590.833 52.16C590.108 52.16 589.404 52.2027 588.721 52.288L589.041 51.008C589.638 50.88 590.257 50.624 590.897 50.24C591.537 49.8134 592.241 49.216 593.009 48.448C593.777 47.68 594.588 46.6774 595.441 45.44L623.025 6.65602C623.196 6.65602 623.345 6.65602 623.473 6.65602C623.644 6.65602 623.814 6.65602 623.985 6.65602L626.545 46.912C626.673 48.448 627.057 49.5147 627.697 50.112C628.38 50.6667 629.041 50.9654 629.681 51.008L629.425 52.288C628.572 52.2027 627.505 52.16 626.225 52.16C624.945 52.1174 623.686 52.096 622.449 52.096C620.913 52.096 619.462 52.1174 618.097 52.16C616.732 52.16 615.622 52.2027 614.769 52.288L615.025 51.008C617.073 50.9227 618.524 50.56 619.377 49.92C620.23 49.2374 620.614 47.808 620.529 45.632L618.801 14.016L619.249 13.888L599.409 41.92ZM604.529 33.856H623.217L622.705 35.136H603.377L604.529 33.856ZM645.163 45.504C644.779 47.04 644.608 48.192 644.651 48.96C644.694 49.728 645.056 50.24 645.739 50.496C646.422 50.752 647.488 50.9227 648.939 51.008L648.683 52.288C647.702 52.2027 646.464 52.16 644.971 52.16C643.52 52.1174 642.048 52.096 640.555 52.096C638.891 52.096 637.355 52.1174 635.947 52.16C634.539 52.16 633.366 52.2027 632.427 52.288L632.747 51.008C634.155 50.9227 635.243 50.752 636.011 50.496C636.822 50.24 637.462 49.728 637.931 48.96C638.4 48.192 638.827 47.04 639.211 45.504L647.659 13.76C648.086 12.1814 648.256 11.0294 648.171 10.304C648.086 9.53602 647.702 9.02402 647.019 8.76802C646.379 8.46936 645.334 8.29869 643.883 8.25602L644.203 6.97602C645.056 7.01869 646.208 7.06136 647.659 7.10402C649.11 7.14669 650.667 7.16802 652.331 7.16802C653.824 7.16802 655.296 7.14669 656.747 7.10402C658.24 7.06136 659.499 7.01869 660.523 6.97602L660.203 8.25602C658.752 8.29869 657.622 8.46936 656.811 8.76802C656 9.02402 655.36 9.53602 654.891 10.304C654.464 11.0294 654.038 12.1814 653.611 13.76L645.163 45.504Z" fill="#D8DFDE"/>
</svg>
