<svg width="371" height="238" viewBox="0 0 371 238" fill="none" xmlns="http://www.w3.org/2000/svg">
<path d="M31.68 23.944C29.7173 23.944 27.776 24.5413 25.856 25.736C23.9787 26.888 22.2293 28.5093 20.608 30.6C18.9867 32.648 17.5573 35.016 16.32 37.704C15.0827 40.3493 14.1013 43.1867 13.376 46.216C12.6933 49.2453 12.352 52.296 12.352 55.368C12.352 59.5493 13.1627 62.8347 14.784 65.224C16.448 67.5707 18.5813 68.744 21.184 68.744C23.1467 68.744 25.0667 68.168 26.944 67.016C28.864 65.8213 30.6347 64.2 32.256 62.152C33.8773 60.0613 35.3067 57.6933 36.544 55.048C37.7813 52.36 38.7413 49.5013 39.424 46.472C40.1493 43.4427 40.512 40.392 40.512 37.32C40.512 33.1387 39.68 29.8747 38.016 27.528C36.3947 25.1387 34.2827 23.944 31.68 23.944ZM5.568 54.536C5.568 51.72 5.97333 48.8187 6.784 45.832C7.59467 42.8453 8.768 39.9867 10.304 37.256C11.84 34.5253 13.696 32.072 15.872 29.896C18.0907 27.72 20.5653 25.992 23.296 24.712C26.0267 23.432 29.0133 22.792 32.256 22.792C36.992 22.792 40.6827 24.136 43.328 26.824C46.016 29.4693 47.36 33.2667 47.36 38.216C47.36 41.032 46.9333 43.9333 46.08 46.92C45.2693 49.864 44.096 52.7013 42.56 55.432C41.024 58.1627 39.1467 60.616 36.928 62.792C34.752 64.968 32.2773 66.696 29.504 67.976C26.7733 69.256 23.808 69.896 20.608 69.896C15.872 69.896 12.1813 68.5733 9.536 65.928C6.89067 63.24 5.568 59.4427 5.568 54.536Z" fill="#00C4C6"/>
<path d="M73.057 37.256C71.9477 37.256 70.689 38.0453 69.281 39.624C67.9157 41.16 66.5077 43.272 65.057 45.96C63.649 48.6053 62.305 51.592 61.025 54.92C59.7877 58.248 58.7423 61.704 57.889 65.288L59.041 58.376C60.8757 52.7867 62.6463 48.3067 64.353 44.936C66.0597 41.5227 67.7663 39.048 69.473 37.512C71.2223 35.976 73.0357 35.208 74.913 35.208C76.9183 35.208 78.5183 35.9547 79.713 37.448C80.9503 38.9413 81.569 41.2027 81.569 44.232C81.569 46.152 81.2917 48.264 80.737 50.568C80.225 52.872 79.4357 55.1547 78.369 57.416C77.345 59.6773 76.065 61.768 74.529 63.688C73.0357 65.5653 71.3077 67.08 69.345 68.232C67.3823 69.3413 65.2063 69.896 62.817 69.896C61.537 69.896 60.385 69.512 59.361 68.744C58.3797 67.976 57.7183 66.8667 57.377 65.416L57.889 64.136C58.4863 65.7147 59.169 66.824 59.937 67.464C60.7477 68.104 61.6863 68.424 62.753 68.424C64.2037 68.424 65.5903 67.8693 66.913 66.76C68.2357 65.608 69.4517 64.0933 70.561 62.216C71.6703 60.3387 72.6303 58.2693 73.441 56.008C74.2943 53.704 74.9343 51.4213 75.361 49.16C75.8303 46.856 76.065 44.744 76.065 42.824C76.065 40.9467 75.7877 39.56 75.233 38.664C74.721 37.7253 73.9957 37.256 73.057 37.256ZM63.457 26.312C64.481 26.2693 65.4837 26.184 66.465 26.056C67.489 25.928 68.4277 25.7147 69.281 25.416L55.201 74.632C54.689 76.424 54.945 77.64 55.969 78.28C56.993 78.92 58.465 79.24 60.385 79.24L60.001 80.584C59.1477 80.5413 57.9317 80.4773 56.353 80.392C54.817 80.3493 53.1743 80.328 51.425 80.328C50.1023 80.328 48.7583 80.3493 47.393 80.392C46.0277 80.4773 45.0037 80.5413 44.321 80.584L44.705 79.24C46.241 79.24 47.3503 78.9413 48.033 78.344C48.7157 77.7893 49.2703 76.7653 49.697 75.272L63.457 26.312ZM50.145 46.152C51.809 44.5307 53.3663 42.9307 54.817 41.352C56.2677 39.7307 57.6757 37.8107 59.041 35.592C60.4063 33.3733 61.793 30.5787 63.201 27.208L63.393 28.232C62.4543 31.1333 61.3237 33.6933 60.001 35.912C58.721 38.088 57.313 40.072 55.777 41.864C54.241 43.6133 52.5983 45.32 50.849 46.984L50.145 46.152ZM89.363 54.472C91.7523 53.6613 93.907 52.872 95.827 52.104C97.7897 51.2933 99.347 50.44 100.499 49.544C102.035 48.3067 103.251 46.8133 104.147 45.064C105.043 43.3147 105.491 41.3947 105.491 39.304C105.491 38.0667 105.406 37.2773 105.235 36.936C105.064 36.5947 104.808 36.424 104.467 36.424C103.4 36.424 102.248 36.8933 101.011 37.832C99.7737 38.7707 98.5577 40.072 97.363 41.736C96.1683 43.3573 95.059 45.2133 94.035 47.304C93.0537 49.3947 92.2643 51.6347 91.667 54.024C91.0697 56.3707 90.771 58.7173 90.771 61.064C90.771 63.24 91.1763 64.8187 91.987 65.8C92.7977 66.7387 93.8643 67.208 95.187 67.208C96.723 67.208 98.3443 66.7387 100.051 65.8C101.758 64.8613 103.422 63.1973 105.043 60.808L106.067 61.32C105.256 62.728 104.19 64.0933 102.867 65.416C101.544 66.7387 100.051 67.8267 98.387 68.68C96.7657 69.4907 95.0377 69.896 93.203 69.896C91.4963 69.896 90.003 69.5547 88.723 68.872C87.443 68.1893 86.4617 67.1867 85.779 65.864C85.0963 64.4987 84.755 62.8347 84.755 60.872C84.755 59.0373 85.0963 56.9893 85.779 54.728C86.4617 52.424 87.4217 50.1413 88.659 47.88C89.939 45.576 91.4537 43.464 93.203 41.544C94.9523 39.624 96.8937 38.088 99.027 36.936C101.16 35.784 103.443 35.208 105.875 35.208C107.198 35.208 108.307 35.5707 109.203 36.296C110.142 36.9787 110.611 38.024 110.611 39.432C110.611 41.1387 110.099 42.7387 109.075 44.232C108.094 45.6827 106.771 47.0267 105.107 48.264C103.486 49.4587 101.715 50.5253 99.795 51.464C97.875 52.4027 95.9977 53.2133 94.163 53.896C92.3283 54.5787 90.707 55.1333 89.299 55.56L89.363 54.472ZM119.233 69H113.664L121.344 41.544C121.515 41.032 121.643 40.4773 121.729 39.88C121.856 39.24 121.835 38.7067 121.665 38.28C121.494 37.8107 121.067 37.576 120.384 37.576C119.446 37.576 118.614 38.0453 117.888 38.984C117.163 39.88 116.352 41.5867 115.456 44.104L114.624 46.472H113.408L115.008 41.8C115.947 39.112 117.099 37.3413 118.464 36.488C119.872 35.6347 121.259 35.208 122.625 35.208C123.905 35.208 124.822 35.4853 125.377 36.04C125.974 36.5947 126.294 37.32 126.337 38.216C126.422 39.0693 126.358 40.0293 126.144 41.096C125.974 42.12 125.761 43.144 125.505 44.168L119.233 69ZM122.177 55.688C123.67 51.848 125.121 48.6267 126.529 46.024C127.937 43.4213 129.323 41.3307 130.689 39.752C132.054 38.1307 133.441 36.9787 134.849 36.296C136.299 35.5707 137.793 35.208 139.329 35.208C141.334 35.208 142.699 35.6987 143.424 36.68C144.192 37.6187 144.534 38.8347 144.449 40.328C144.363 41.7787 144.065 43.2933 143.553 44.872L137.345 63.56C136.961 64.712 136.79 65.672 136.833 66.44C136.918 67.1653 137.43 67.528 138.369 67.528C139.179 67.528 139.969 67.08 140.737 66.184C141.547 65.288 142.401 63.56 143.297 61L144.129 58.632H145.345L143.744 63.304C143.147 65.096 142.401 66.4613 141.505 67.4C140.651 68.3387 139.734 68.9787 138.753 69.32C137.814 69.704 136.897 69.896 136 69.896C134.977 69.896 134.123 69.7253 133.441 69.384C132.801 69.0427 132.31 68.5947 131.969 68.04C131.499 67.272 131.35 66.2693 131.521 65.032C131.691 63.7947 132.033 62.4293 132.545 60.936L138.625 42.632C138.838 42.0347 139.009 41.3307 139.137 40.52C139.307 39.6667 139.286 38.92 139.073 38.28C138.859 37.5973 138.241 37.256 137.217 37.256C136.193 37.256 135.105 37.704 133.953 38.6C132.801 39.496 131.606 40.776 130.368 42.44C129.131 44.0613 127.915 46.024 126.72 48.328C125.526 50.5893 124.374 53.1067 123.264 55.88C122.198 58.6107 121.217 61.5333 120.321 64.648L122.177 55.688ZM156.806 65.48C156.806 67.6987 155.973 69.896 154.309 72.072C152.645 74.2907 150.341 76.1253 147.397 77.576L147.077 76.68C149.083 75.4427 150.683 74.0987 151.877 72.648C153.072 71.1973 153.733 69.7467 153.861 68.296C153.349 68.7227 152.816 69.0853 152.261 69.384C151.707 69.7253 151.131 69.896 150.533 69.896C149.765 69.896 149.168 69.6827 148.741 69.256C148.315 68.872 148.101 68.3387 148.101 67.656C148.101 66.7173 148.379 65.8 148.933 64.904C149.531 64.008 150.277 63.2613 151.173 62.664C152.069 62.024 153.008 61.704 153.989 61.704C154.971 61.704 155.675 62.088 156.102 62.856C156.571 63.624 156.806 64.4987 156.806 65.48ZM28.48 108.752C32.5333 108.752 35.5413 109.499 37.504 110.992C39.5093 112.485 40.512 114.469 40.512 116.944C40.512 119.12 39.872 121.083 38.592 122.832C37.312 124.539 35.6693 126.011 33.664 127.248C31.6587 128.443 29.568 129.381 27.392 130.064C31.3173 130.704 34.048 131.984 35.584 133.904C37.12 135.781 37.888 137.979 37.888 140.496C37.888 142.8 37.3333 144.805 36.224 146.512C35.1147 148.176 33.6427 149.563 31.808 150.672C29.9733 151.781 27.9253 152.613 25.664 153.168C23.4027 153.723 21.12 154 18.816 154C17.1947 154 15.5093 153.979 13.76 153.936C12.0107 153.851 10.0267 153.808 7.808 153.808C6.82667 153.808 5.84533 153.829 4.864 153.872C3.88267 153.872 2.96533 153.893 2.112 153.936C1.30133 153.936 0.597333 153.957 -4.76837e-07 154L0.255999 152.72C1.70667 152.635 2.83733 152.464 3.648 152.208C4.45867 151.952 5.09867 151.44 5.568 150.672C6.03733 149.904 6.464 148.752 6.848 147.216L15.296 115.472C15.5947 114.192 15.7653 113.168 15.808 112.4C15.8507 111.589 15.552 110.992 14.912 110.608C14.3147 110.181 13.184 109.968 11.52 109.968L11.84 108.688C12.4373 108.731 13.1413 108.773 13.952 108.816C14.7627 108.816 15.6373 108.837 16.576 108.88C17.5573 108.88 18.5173 108.88 19.456 108.88C20.9493 108.88 22.4213 108.859 23.872 108.816C25.3653 108.773 26.9013 108.752 28.48 108.752ZM16.32 131.024L16.576 129.936H21.568C24.1707 129.936 26.4107 129.36 28.288 128.208C30.1653 127.013 31.616 125.456 32.64 123.536C33.664 121.616 34.176 119.568 34.176 117.392C34.176 114.875 33.6213 113.019 32.512 111.824C31.4453 110.587 29.696 109.968 27.264 109.968C25.3867 109.968 24.064 110.267 23.296 110.864C22.528 111.419 21.9093 112.635 21.44 114.512L12.8 147.216C12.4587 148.496 12.2667 149.541 12.224 150.352C12.224 151.12 12.5013 151.675 13.056 152.016C13.6107 152.357 14.6133 152.528 16.064 152.528C19.8187 152.528 22.8053 152.016 25.024 150.992C27.2853 149.968 28.928 148.496 29.952 146.576C30.976 144.613 31.488 142.267 31.488 139.536C31.488 137.744 31.168 136.229 30.528 134.992C29.888 133.712 28.8853 132.731 27.52 132.048C26.1973 131.365 24.4693 131.024 22.336 131.024H16.32ZM62.0055 121.488C60.6402 121.488 59.3175 122.043 58.0375 123.152C56.8002 124.219 55.6482 125.691 54.5815 127.568C53.5575 129.403 52.6402 131.472 51.8295 133.776C51.0615 136.08 50.4642 138.469 50.0375 140.944C49.6108 143.419 49.3975 145.787 49.3975 148.048C49.3975 149.968 49.6962 151.376 50.2935 152.272C50.9335 153.168 51.8508 153.616 53.0455 153.616C54.4108 153.616 55.7122 153.083 56.9495 152.016C58.2295 150.907 59.4028 149.435 60.4695 147.6C61.5362 145.723 62.4535 143.632 63.2215 141.328C63.9895 139.024 64.5868 136.656 65.0135 134.224C65.4402 131.749 65.6535 129.36 65.6535 127.056C65.6535 125.093 65.3548 123.685 64.7575 122.832C64.1602 121.936 63.2428 121.488 62.0055 121.488ZM43.8935 144.848C43.8935 142.971 44.1495 140.923 44.6615 138.704C45.1735 136.485 45.9415 134.288 46.9655 132.112C47.9895 129.936 49.2268 127.952 50.6775 126.16C52.1708 124.368 53.8988 122.939 55.8615 121.872C57.8242 120.763 60.0002 120.208 62.3895 120.208C65.0348 120.208 67.1468 121.04 68.7255 122.704C70.3468 124.325 71.1575 126.843 71.1575 130.256C71.1575 132.133 70.9015 134.181 70.3895 136.4C69.8775 138.619 69.1095 140.816 68.0855 142.992C67.0615 145.168 65.8028 147.152 64.3095 148.944C62.8588 150.736 61.1522 152.187 59.1895 153.296C57.2268 154.363 55.0508 154.896 52.6615 154.896C50.0162 154.896 47.8828 154.064 46.2615 152.4C44.6828 150.736 43.8935 148.219 43.8935 144.848ZM99.2075 131.856C97.6715 136.123 96.1995 139.728 94.7915 142.672C93.3835 145.616 91.9755 147.984 90.5675 149.776C89.2022 151.568 87.7942 152.869 86.3435 153.68C84.9355 154.491 83.4635 154.896 81.9275 154.896C80.0502 154.896 78.6848 154.469 77.8315 153.616C76.9782 152.763 76.5515 151.611 76.5515 150.16C76.5515 148.709 76.8502 147.067 77.4475 145.232L83.6555 126.544C84.0822 125.264 84.2315 124.283 84.1035 123.6C83.9755 122.917 83.4848 122.576 82.6315 122.576C81.8208 122.576 81.0102 123.024 80.1995 123.92C79.4315 124.816 78.5995 126.544 77.7035 129.104L76.8715 131.472H75.6555L77.2555 126.8C77.8955 125.008 78.6422 123.643 79.4955 122.704C80.3915 121.765 81.3088 121.125 82.2475 120.784C83.2288 120.4 84.1462 120.208 84.9995 120.208C86.8768 120.208 88.1142 120.656 88.7115 121.552C89.3515 122.405 89.5862 123.515 89.4155 124.88C89.2875 126.245 88.9675 127.675 88.4555 129.168L82.3755 147.472C81.1808 151.056 81.6502 152.848 83.7835 152.848C84.8075 152.848 85.8955 152.4 87.0475 151.504C88.1995 150.565 89.3728 149.243 90.5675 147.536C91.7622 145.787 92.9355 143.717 94.0875 141.328C95.2822 138.896 96.4128 136.208 97.4795 133.264C98.5888 130.277 99.5915 127.077 100.488 123.664L99.2075 131.856ZM99.0155 148.56C98.7168 149.712 98.5675 150.672 98.5675 151.44C98.6102 152.165 99.0582 152.528 99.9115 152.528C100.85 152.528 101.704 152.037 102.472 151.056C103.282 150.032 104.093 148.347 104.904 146L105.736 143.632H106.951L105.352 148.304C104.754 150.096 104.008 151.461 103.112 152.4C102.258 153.339 101.341 153.979 100.36 154.32C99.4208 154.704 98.5035 154.896 97.6075 154.896C96.9248 154.896 96.2848 154.747 95.6875 154.448C95.0902 154.149 94.6422 153.723 94.3435 153.168C94.0022 152.443 93.8742 151.525 93.9595 150.416C94.0875 149.307 94.3862 147.813 94.8555 145.936L101.128 121.104C102.194 121.061 103.218 120.976 104.2 120.848C105.224 120.72 106.141 120.507 106.951 120.208L99.0155 148.56ZM117.92 154H112.352L120.032 126.544C120.203 126.032 120.331 125.477 120.416 124.88C120.544 124.24 120.523 123.707 120.352 123.28C120.181 122.811 119.755 122.576 119.072 122.576C118.133 122.576 117.301 123.045 116.576 123.984C115.851 124.88 115.04 126.587 114.144 129.104L113.312 131.472H112.096L113.696 126.8C114.635 124.112 115.787 122.341 117.152 121.488C118.56 120.635 119.947 120.208 121.312 120.208C122.592 120.208 123.509 120.485 124.064 121.04C124.661 121.595 124.981 122.32 125.024 123.216C125.109 124.069 125.045 125.029 124.832 126.096C124.661 127.12 124.448 128.144 124.192 129.168L117.92 154ZM120.864 140.688C122.357 136.848 123.808 133.627 125.216 131.024C126.624 128.421 128.011 126.331 129.376 124.752C130.741 123.131 132.128 121.979 133.536 121.296C134.987 120.571 136.48 120.208 138.016 120.208C140.021 120.208 141.387 120.699 142.112 121.68C142.88 122.619 143.221 123.835 143.136 125.328C143.051 126.779 142.752 128.293 142.24 129.872L136.032 148.56C135.648 149.712 135.477 150.672 135.52 151.44C135.605 152.165 136.117 152.528 137.056 152.528C137.867 152.528 138.656 152.08 139.424 151.184C140.235 150.288 141.088 148.56 141.984 146L142.816 143.632H144.032L142.432 148.304C141.835 150.096 141.088 151.461 140.192 152.4C139.339 153.339 138.421 153.979 137.44 154.32C136.501 154.704 135.584 154.896 134.688 154.896C133.664 154.896 132.811 154.725 132.128 154.384C131.488 154.043 130.997 153.595 130.656 153.04C130.187 152.272 130.037 151.269 130.208 150.032C130.379 148.795 130.72 147.429 131.232 145.936L137.312 127.632C137.525 127.035 137.696 126.331 137.824 125.52C137.995 124.667 137.973 123.92 137.76 123.28C137.547 122.597 136.928 122.256 135.904 122.256C134.88 122.256 133.792 122.704 132.64 123.6C131.488 124.496 130.293 125.776 129.056 127.44C127.819 129.061 126.603 131.024 125.408 133.328C124.213 135.589 123.061 138.107 121.952 140.88C120.885 143.611 119.904 146.533 119.008 149.648L120.864 140.688ZM170.853 148.56C170.554 149.541 170.426 150.459 170.469 151.312C170.554 152.123 171.066 152.528 172.005 152.528C172.858 152.528 173.648 152.059 174.373 151.12C175.098 150.139 175.866 148.432 176.677 146L177.445 143.632H178.661L177.189 148.304C176.677 150.011 175.994 151.355 175.141 152.336C174.288 153.275 173.392 153.936 172.453 154.32C171.514 154.704 170.618 154.896 169.765 154.896C167.205 154.896 165.861 153.68 165.733 151.248C165.69 150.565 165.733 149.776 165.861 148.88C166.032 147.984 166.266 147.003 166.565 145.936L175.781 111.312C176.165 109.861 176.101 108.795 175.589 108.112C175.077 107.429 173.776 107.088 171.685 107.088L172.069 105.744C174.416 105.701 176.485 105.467 178.277 105.04C180.069 104.571 181.776 103.931 183.397 103.12L170.853 148.56ZM156.517 152.848C157.584 152.848 158.778 152.229 160.101 150.992C161.466 149.712 162.832 148.005 164.197 145.872C165.605 143.696 166.885 141.243 168.037 138.512C169.232 135.739 170.17 132.88 170.853 129.936L169.893 136.848C168.229 141.243 166.565 144.763 164.901 147.408C163.28 150.053 161.616 151.973 159.909 153.168C158.245 154.32 156.496 154.896 154.661 154.896C153.338 154.896 152.165 154.597 151.141 154C150.16 153.36 149.392 152.421 148.837 151.184C148.282 149.947 148.005 148.368 148.005 146.448C148.005 144.4 148.325 142.203 148.965 139.856C149.648 137.467 150.608 135.12 151.845 132.816C153.082 130.512 154.554 128.421 156.261 126.544C158.01 124.624 159.93 123.088 162.021 121.936C164.112 120.784 166.33 120.208 168.677 120.208C169.658 120.208 170.576 120.592 171.429 121.36C172.282 122.085 172.752 123.195 172.837 124.688L172.325 125.968C172.154 124.432 171.728 123.344 171.045 122.704C170.362 122.021 169.594 121.68 168.741 121.68C167.12 121.68 165.541 122.235 164.005 123.344C162.512 124.453 161.146 125.925 159.909 127.76C158.672 129.595 157.584 131.643 156.645 133.904C155.706 136.123 154.981 138.405 154.469 140.752C153.957 143.056 153.701 145.232 153.701 147.28C153.701 149.157 153.936 150.565 154.405 151.504C154.874 152.4 155.578 152.848 156.517 152.848ZM188.452 148.56C188.111 149.797 188.004 150.779 188.132 151.504C188.26 152.187 188.73 152.528 189.54 152.528C190.394 152.528 191.183 152.059 191.908 151.12C192.677 150.139 193.487 148.432 194.34 146L195.173 143.632H196.389L194.788 148.304C194.234 149.925 193.551 151.227 192.741 152.208C191.973 153.147 191.119 153.829 190.181 154.256C189.242 154.683 188.218 154.896 187.108 154.896C185.7 154.896 184.655 154.619 183.972 154.064C183.332 153.552 182.927 152.848 182.756 151.952C182.628 151.056 182.65 150.096 182.82 149.072C183.034 148.005 183.29 146.96 183.588 145.936L194.021 111.312C194.447 109.861 194.405 108.795 193.892 108.112C193.381 107.429 192.079 107.088 189.988 107.088L190.436 105.744C192.783 105.701 194.852 105.467 196.644 105.04C198.437 104.571 200.165 103.931 201.829 103.12L188.452 148.56ZM205.05 139.472C207.44 138.661 209.594 137.872 211.514 137.104C213.477 136.293 215.035 135.44 216.187 134.544C217.722 133.307 218.939 131.813 219.835 130.064C220.731 128.315 221.179 126.395 221.179 124.304C221.179 123.067 221.093 122.277 220.923 121.936C220.752 121.595 220.496 121.424 220.155 121.424C219.088 121.424 217.936 121.893 216.698 122.832C215.461 123.771 214.245 125.072 213.05 126.736C211.856 128.357 210.747 130.213 209.722 132.304C208.741 134.395 207.952 136.635 207.354 139.024C206.757 141.371 206.458 143.717 206.458 146.064C206.458 148.24 206.864 149.819 207.674 150.8C208.485 151.739 209.552 152.208 210.875 152.208C212.411 152.208 214.032 151.739 215.739 150.8C217.445 149.861 219.109 148.197 220.731 145.808L221.755 146.32C220.944 147.728 219.877 149.093 218.555 150.416C217.232 151.739 215.738 152.827 214.075 153.68C212.453 154.491 210.725 154.896 208.891 154.896C207.184 154.896 205.69 154.555 204.41 153.872C203.13 153.189 202.149 152.187 201.466 150.864C200.784 149.499 200.442 147.835 200.442 145.872C200.442 144.037 200.784 141.989 201.466 139.728C202.149 137.424 203.109 135.141 204.346 132.88C205.626 130.576 207.141 128.464 208.891 126.544C210.64 124.624 212.581 123.088 214.715 121.936C216.848 120.784 219.131 120.208 221.562 120.208C222.885 120.208 223.995 120.571 224.891 121.296C225.829 121.979 226.299 123.024 226.299 124.432C226.299 126.139 225.787 127.739 224.763 129.232C223.781 130.683 222.459 132.027 220.795 133.264C219.173 134.459 217.403 135.525 215.483 136.464C213.562 137.403 211.685 138.213 209.851 138.896C208.016 139.579 206.394 140.133 204.986 140.56L205.05 139.472ZM230.888 153.04C231.229 153.211 231.592 153.36 231.976 153.488C232.403 153.573 233.021 153.616 233.832 153.616C235.709 153.616 237.245 153.061 238.44 151.952C239.677 150.8 240.296 149.157 240.296 147.024C240.296 145.701 240.04 144.4 239.528 143.12C239.059 141.797 238.205 140.283 236.968 138.576C235.987 137.211 235.048 135.824 234.152 134.416C233.256 132.965 232.808 131.259 232.808 129.296C232.808 127.461 233.256 125.883 234.152 124.56C235.048 123.195 236.243 122.128 237.736 121.36C239.272 120.592 240.936 120.208 242.728 120.208C243.965 120.208 245.181 120.357 246.376 120.656C247.571 120.955 248.552 121.509 249.32 122.32C250.131 123.088 250.536 124.24 250.536 125.776C250.536 126.16 250.429 126.629 250.216 127.184C250.045 127.696 249.747 128.144 249.32 128.528C248.893 128.912 248.317 129.104 247.592 129.104C246.909 129.104 246.312 128.869 245.8 128.4C245.288 127.888 245.032 127.227 245.032 126.416C245.032 125.648 245.181 124.923 245.48 124.24C245.821 123.515 246.269 122.811 246.824 122.128C246.013 121.616 244.947 121.36 243.624 121.36C242.045 121.36 240.723 121.893 239.656 122.96C238.589 124.027 238.056 125.52 238.056 127.44C238.056 128.421 238.205 129.296 238.504 130.064C238.803 130.789 239.229 131.557 239.784 132.368C240.381 133.179 241.085 134.203 241.896 135.44C242.963 137.061 243.859 138.619 244.584 140.112C245.309 141.605 245.672 143.184 245.672 144.848C245.672 146.811 245.16 148.56 244.136 150.096C243.155 151.589 241.832 152.763 240.168 153.616C238.504 154.469 236.669 154.896 234.664 154.896C233.213 154.896 231.827 154.683 230.504 154.256C229.181 153.829 228.093 153.168 227.24 152.272C226.429 151.333 226.024 150.096 226.024 148.56C226.024 147.963 226.216 147.344 226.6 146.704C226.941 146.021 227.581 145.68 228.52 145.68C229.544 145.68 230.269 146.107 230.696 146.96C231.123 147.771 231.336 148.688 231.336 149.712C231.336 150.395 231.272 151.013 231.144 151.568C231.059 152.08 230.973 152.571 230.888 153.04ZM255.263 153.04C255.604 153.211 255.967 153.36 256.351 153.488C256.778 153.573 257.396 153.616 258.207 153.616C260.084 153.616 261.62 153.061 262.815 151.952C264.052 150.8 264.671 149.157 264.671 147.024C264.671 145.701 264.415 144.4 263.903 143.12C263.434 141.797 262.58 140.283 261.343 138.576C260.362 137.211 259.423 135.824 258.527 134.416C257.631 132.965 257.183 131.259 257.183 129.296C257.183 127.461 257.631 125.883 258.527 124.56C259.423 123.195 260.618 122.128 262.111 121.36C263.647 120.592 265.311 120.208 267.103 120.208C268.34 120.208 269.556 120.357 270.751 120.656C271.946 120.955 272.927 121.509 273.695 122.32C274.506 123.088 274.911 124.24 274.911 125.776C274.911 126.16 274.804 126.629 274.591 127.184C274.42 127.696 274.122 128.144 273.695 128.528C273.268 128.912 272.692 129.104 271.967 129.104C271.284 129.104 270.687 128.869 270.175 128.4C269.663 127.888 269.407 127.227 269.407 126.416C269.407 125.648 269.556 124.923 269.855 124.24C270.196 123.515 270.644 122.811 271.199 122.128C270.388 121.616 269.322 121.36 267.999 121.36C266.42 121.36 265.098 121.893 264.031 122.96C262.964 124.027 262.431 125.52 262.431 127.44C262.431 128.421 262.58 129.296 262.879 130.064C263.178 130.789 263.604 131.557 264.159 132.368C264.756 133.179 265.46 134.203 266.271 135.44C267.338 137.061 268.234 138.619 268.959 140.112C269.684 141.605 270.047 143.184 270.047 144.848C270.047 146.811 269.535 148.56 268.511 150.096C267.53 151.589 266.207 152.763 264.543 153.616C262.879 154.469 261.044 154.896 259.039 154.896C257.588 154.896 256.202 154.683 254.879 154.256C253.556 153.829 252.468 153.168 251.615 152.272C250.804 151.333 250.399 150.096 250.399 148.56C250.399 147.963 250.591 147.344 250.975 146.704C251.316 146.021 251.956 145.68 252.895 145.68C253.919 145.68 254.644 146.107 255.071 146.96C255.498 147.771 255.711 148.688 255.711 149.712C255.711 150.395 255.647 151.013 255.519 151.568C255.434 152.08 255.348 152.571 255.263 153.04Z" fill="#D8DFDE"/>
<path d="M24.72 222.016V223.912H19.608V233.56H17.64V223.912H10.752C10.64 225.416 10.408 226.696 10.056 227.752C9.704 228.792 9.168 229.776 8.448 230.704C7.728 231.616 6.72 232.64 5.424 233.776L3.864 232.312C5.08 231.32 6.016 230.432 6.672 229.648C7.344 228.848 7.84 228.008 8.16 227.128C8.48 226.232 8.688 225.16 8.784 223.912H3.432V222.016H8.88V221.128V215.296H4.44V213.424H23.664V215.296H19.608V222.016H24.72ZM10.848 222.016H17.64V215.296H10.848V220.912V222.016ZM44.136 227.512C45.48 229.192 47.192 230.712 49.272 232.072L48.072 233.824C46.056 232.464 44.36 230.912 42.984 229.168C41.752 230.752 40.048 232.32 37.872 233.872L36.48 232.264C38.848 230.696 40.624 229.112 41.808 227.512C40.528 225.48 39.624 223.136 39.096 220.48C38.6 221.152 38.328 221.52 38.28 221.584L36.984 220.192C37.88 219.024 38.656 217.72 39.312 216.28C39.984 214.824 40.48 213.328 40.8 211.792L42.768 212.08C42.432 213.424 42.056 214.632 41.64 215.704H48.84V217.696H46.944C46.704 219.808 46.368 221.648 45.936 223.216C45.504 224.784 44.904 226.216 44.136 227.512ZM36.576 220.792C36.56 222.056 36.512 223.624 36.432 225.496C36.352 227.368 36.264 228.824 36.168 229.864C36.056 230.968 35.808 231.736 35.424 232.168C35.04 232.616 34.392 232.84 33.48 232.84C32.648 232.84 31.936 232.8 31.344 232.72L30.936 230.848C31.768 230.976 32.392 231.04 32.808 231.04C33.336 231.04 33.712 230.912 33.936 230.656C34.16 230.384 34.312 229.904 34.392 229.216C34.632 227.248 34.752 225.032 34.752 222.568H31.56C31.48 224.472 31.344 226.016 31.152 227.2C30.96 228.384 30.656 229.464 30.24 230.44C29.824 231.4 29.216 232.496 28.416 233.728L26.688 232.624C27.536 231.392 28.16 230.264 28.56 229.24C28.976 228.216 29.264 227.032 29.424 225.688C29.6 224.344 29.72 222.48 29.784 220.096C29.816 219.744 29.832 219.04 29.832 217.984C29.848 217.856 29.856 217.672 29.856 217.432H27.504V215.488H32.232C32.008 214.864 31.784 214.264 31.56 213.688C31.336 213.096 31.16 212.648 31.032 212.344L32.904 211.864C33.048 212.216 33.248 212.736 33.504 213.424C33.776 214.096 34.04 214.784 34.296 215.488H37.776V217.432H31.728L31.656 219.328L31.632 220.384V220.792H36.576ZM40.488 218.2C40.84 221.096 41.656 223.616 42.936 225.76C43.512 224.688 43.968 223.504 44.304 222.208C44.64 220.896 44.888 219.392 45.048 217.696H40.752C40.704 217.808 40.616 217.976 40.488 218.2ZM72.552 220.12V221.92H61.728C61.28 224.48 60.384 226.688 59.04 228.544C57.712 230.4 55.68 232.152 52.944 233.8L51.792 232.024C54.24 230.6 56.072 229.096 57.288 227.512C58.52 225.928 59.352 224.064 59.784 221.92H51.672V220.12H60.072C60.136 219.576 60.2 218.808 60.264 217.816C60.28 217.576 60.288 217.296 60.288 216.976C60.288 216.64 60.296 216.304 60.312 215.968L60.336 215.104H53.04V213.304H71.16V215.104H62.208L62.184 216.064C62.168 216.4 62.16 216.736 62.16 217.072C62.16 217.408 62.152 217.696 62.136 217.936C62.12 218.464 62.064 219.192 61.968 220.12H72.552ZM70.584 229.456C70.632 228.352 70.656 227.432 70.656 226.696L72.552 227.056L72.408 230.272C72.376 230.96 72.264 231.488 72.072 231.856C71.88 232.224 71.576 232.488 71.16 232.648C70.76 232.824 70.176 232.936 69.408 232.984C68.72 233.032 68.072 233.056 67.464 233.056C66.872 233.056 66.224 233.032 65.52 232.984C64.56 232.92 63.872 232.672 63.456 232.24C63.04 231.824 62.832 231.064 62.832 229.96V223.216H64.752V229.432C64.752 230.056 64.856 230.496 65.064 230.752C65.288 230.992 65.664 231.128 66.192 231.16C66.864 231.192 67.32 231.208 67.56 231.208C67.8 231.208 68.256 231.192 68.928 231.16C69.568 231.112 70 230.984 70.224 230.776C70.448 230.552 70.568 230.112 70.584 229.456ZM96.36 228.4C94.248 227.728 92.408 226.92 90.84 225.976V233.584H88.944V225.352H89.856C88.528 224.456 87.312 223.416 86.208 222.232C85.232 223.368 83.96 224.416 82.392 225.376H83.544C83.544 225.872 83.512 226.392 83.448 226.936C83.336 228.296 82.872 229.536 82.056 230.656C81.256 231.76 79.92 232.816 78.048 233.824L76.968 232.312C78.584 231.48 79.712 230.656 80.352 229.84C80.992 229.024 81.368 228.056 81.48 226.936C81.528 226.36 81.552 226 81.552 225.856C80.016 226.72 78.152 227.552 75.96 228.352L75.024 226.672C78.848 225.44 81.856 223.944 84.048 222.184H77.592V212.728H94.632V222.184H88.2C89.256 223.128 90.504 223.952 91.944 224.656C93.384 225.36 95.12 226.016 97.152 226.624L96.36 228.4ZM85.2 216.712V214.384H79.536V216.712H85.2ZM87.024 216.712H92.688V214.384H87.024V216.712ZM85.2 218.272H79.536V220.528H85.2V218.272ZM87.024 218.272V220.528H92.688V218.272H87.024ZM103.272 229.552C103.736 229.552 104.112 229.736 104.4 230.104C104.688 230.456 104.832 231.008 104.832 231.76C104.832 232.48 104.696 233.12 104.424 233.68C104.168 234.256 103.808 234.72 103.344 235.072C102.88 235.424 102.344 235.656 101.736 235.768V234.64C102.28 234.464 102.696 234.184 102.984 233.8C103.272 233.416 103.432 232.92 103.464 232.312C103.432 232.328 103.392 232.336 103.344 232.336C103.312 232.336 103.28 232.336 103.248 232.336C102.848 232.336 102.528 232.2 102.288 231.928C102.064 231.656 101.952 231.328 101.952 230.944C101.952 230.544 102.072 230.216 102.312 229.96C102.568 229.688 102.888 229.552 103.272 229.552ZM131.088 222.328H132.648C132.632 223.304 132.552 224.704 132.408 226.528C132.264 228.336 132.128 229.656 132 230.488C131.872 231.256 131.688 231.856 131.448 232.288C131.224 232.72 130.88 233.032 130.416 233.224C129.952 233.432 129.312 233.536 128.496 233.536C127.808 233.536 126.976 233.48 126 233.368L125.616 231.544C126.544 231.688 127.32 231.76 127.944 231.76C128.504 231.76 128.928 231.712 129.216 231.616C129.52 231.52 129.744 231.352 129.888 231.112C130.032 230.872 130.144 230.512 130.224 230.032C130.368 229.232 130.48 228.256 130.56 227.104C130.656 225.936 130.704 224.936 130.704 224.104H124.584L125.184 216.184H126.96L126.456 222.328H129.264L129.816 215.08H123.816V213.304H131.784L131.088 222.328ZM139.968 226.888C141.248 228.584 143.08 230.32 145.464 232.096L144.168 233.896C141.896 232.088 140.104 230.352 138.792 228.688C137.448 230.512 135.696 232.296 133.536 234.04L132.192 232.384C134.496 230.672 136.312 228.888 137.64 227.032C136.696 225.528 135.952 223.856 135.408 222.016C134.864 220.176 134.408 217.936 134.04 215.296H132.936V213.544H143.712V215.296C143.312 217.744 142.808 219.904 142.2 221.776C141.608 223.632 140.864 225.336 139.968 226.888ZM135.912 215.296C136.216 217.456 136.592 219.32 137.04 220.888C137.504 222.456 138.096 223.872 138.816 225.136C139.536 223.824 140.128 222.384 140.592 220.816C141.072 219.248 141.488 217.408 141.84 215.296H135.912ZM129.336 228.088C128.568 228.184 127.544 228.32 126.264 228.496C124.984 228.672 123.928 228.824 123.096 228.952L122.928 227.104C123.76 227.008 124.816 226.872 126.096 226.696C127.392 226.504 128.456 226.344 129.288 226.216L129.336 228.088ZM163.752 214.936H152.496V226.552H150.48V212.992H165.768V226.552H163.752V214.936ZM168.408 227.512L168.24 230.32C168.192 231.056 168.072 231.608 167.88 231.976C167.704 232.344 167.392 232.608 166.944 232.768C166.512 232.928 165.864 233.04 165 233.104C164.312 233.152 163.616 233.176 162.912 233.176C162.208 233.176 161.504 233.152 160.8 233.104C160.048 233.056 159.472 232.936 159.072 232.744C158.672 232.552 158.384 232.248 158.208 231.832C158.032 231.4 157.944 230.784 157.944 229.984V226.312C157.24 227.8 156.136 229.136 154.632 230.32C153.128 231.504 151.08 232.656 148.488 233.776L147.24 232C149.8 230.976 151.768 229.96 153.144 228.952C154.52 227.944 155.488 226.832 156.048 225.616C156.608 224.4 156.92 222.888 156.984 221.08C157.048 218.968 157.08 217.376 157.08 216.304H159.168C159.168 216.976 159.152 217.8 159.12 218.776C159.104 219.752 159.08 220.568 159.048 221.224C159 222.408 158.864 223.44 158.64 224.32H159.96V229.408C159.96 229.904 160 230.272 160.08 230.512C160.16 230.736 160.304 230.896 160.512 230.992C160.736 231.088 161.088 231.16 161.568 231.208C162.048 231.256 162.52 231.28 162.984 231.28C163.448 231.28 163.912 231.256 164.376 231.208C164.936 231.144 165.352 231.064 165.624 230.968C165.896 230.872 166.08 230.712 166.176 230.488C166.288 230.264 166.36 229.92 166.392 229.456C166.44 228.208 166.464 227.416 166.464 227.08L168.408 227.512ZM184.92 222.904C185.848 224.488 187.008 225.936 188.4 227.248C189.808 228.56 191.4 229.656 193.176 230.536L191.952 232.336C189.936 231.216 188.184 229.84 186.696 228.208C185.224 226.576 184.024 224.808 183.096 222.904H183.048V233.584H181.2V222.904H181.128C180.136 224.92 178.984 226.664 177.672 228.136C176.36 229.608 174.56 231.008 172.272 232.336L171.024 230.56C173.04 229.52 174.704 228.368 176.016 227.104C177.344 225.84 178.44 224.44 179.304 222.904H171.84V221.056H181.2V217.12H173.4V215.272H181.2V211.792H183.048V215.272H190.848V217.12H183.048V221.056H192.384V222.904H184.92ZM208.536 224.176C209.592 225.504 210.8 226.68 212.16 227.704C213.536 228.728 215.168 229.656 217.056 230.488L216.144 232.336C214.08 231.36 212.32 230.248 210.864 229C209.424 227.752 208.144 226.296 207.024 224.632V233.8H205.104V224.704C203.968 226.384 202.664 227.864 201.192 229.144C199.736 230.424 198.024 231.536 196.056 232.48L195.096 230.584C196.936 229.752 198.544 228.816 199.92 227.776C201.312 226.72 202.544 225.52 203.616 224.176H195.504V222.328H205.104V216.424H196.44V214.552H205.104V211.744H207.024V214.552H215.736V216.424H207.024V222.328H216.672V224.176H208.536ZM209.328 220.552C209.888 220.008 210.448 219.408 211.008 218.752C211.568 218.08 212.024 217.48 212.376 216.952L213.912 218.008C213.496 218.632 213 219.288 212.424 219.976C211.848 220.664 211.28 221.288 210.72 221.848L209.328 220.552ZM199.824 217.072C200.656 217.84 201.656 219 202.824 220.552L201.336 221.848C200.488 220.632 199.496 219.416 198.36 218.2L199.824 217.072Z" fill="#AAB3B2"/>
</svg>
