<svg width="357" height="95" viewBox="0 0 357 95" fill="none" xmlns="http://www.w3.org/2000/svg">
<path d="M24.576 42.4319C28.096 42.5599 30.848 42.7199 32.832 42.9119C34.816 43.0399 36.384 43.1679 37.536 43.2959C38.752 43.4239 39.904 43.5839 40.992 43.7759C42.912 44.1599 44.576 44.6399 45.984 45.2159C47.392 45.7279 48.512 46.4639 49.344 47.4239C50.24 48.3839 50.88 49.5999 51.264 51.0719C51.648 52.4799 51.744 54.2719 51.552 56.4479L50.784 66.2399C50.656 68.1599 50.752 69.9839 51.072 71.7119C51.456 73.3759 52.384 74.1759 53.856 74.1119C55.008 74.0479 56 73.3439 56.832 71.9999C57.728 70.5919 58.624 68.6079 59.52 66.0479L60 64.7039H62.208L61.824 65.9519C60.736 69.8559 59.296 72.7999 57.504 74.7839C55.776 76.7039 53.408 77.6639 50.4 77.6639C47.264 77.6639 44.992 76.7359 43.584 74.8799C42.176 72.9599 41.568 70.8159 41.76 68.4479L42.528 57.6959C42.784 54.3039 42.528 51.6159 41.76 49.6319C41.056 47.6479 39.36 46.2399 36.672 45.4079C34.048 44.5119 29.952 44.0639 24.384 44.0639L24.576 42.4319ZM23.616 44.0639L24.096 42.1439H28.416C33.024 42.1439 36.896 41.6319 40.032 40.6079C43.168 39.5199 45.664 38.0159 47.52 36.0959C49.44 34.1759 50.816 31.9679 51.648 29.4719C52.544 26.9759 52.992 24.2879 52.992 21.4079C52.992 17.6319 52.032 14.8479 50.112 13.0559C48.256 11.1999 45.152 10.2719 40.8 10.2719C37.984 10.2719 36 10.8479 34.848 11.9999C33.696 13.0879 32.672 15.2639 31.776 18.5279L19.104 66.1439C18.592 68.1279 18.304 69.7279 18.24 70.9439C18.176 72.0959 18.624 72.9599 19.584 73.5359C20.608 74.0479 22.336 74.3359 24.768 74.3999L24.384 76.3199C22.912 76.1919 21.12 76.1279 19.008 76.1279C16.896 76.0639 14.72 76.0319 12.48 76.0319C9.98397 76.0319 7.61597 76.0639 5.37597 76.1279C3.13597 76.1279 1.34397 76.1919 -3.12328e-05 76.3199L0.383969 74.3999C2.55997 74.2719 4.25597 74.0159 5.47197 73.6319C6.68797 73.2479 7.64797 72.4799 8.35197 71.3279C9.05597 70.1759 9.69597 68.4479 10.272 66.1439L22.944 18.5279C23.52 16.4799 23.776 14.8799 23.712 13.7279C23.712 12.5119 23.232 11.6479 22.272 11.1359C21.312 10.5599 19.648 10.2719 17.28 10.2719L17.76 8.35195C18.656 8.41595 19.744 8.47994 21.024 8.54394C22.304 8.54394 23.68 8.57594 25.152 8.63994C26.688 8.63994 28.16 8.63994 29.568 8.63994C31.872 8.63994 34.176 8.60794 36.48 8.54394C38.848 8.47994 41.216 8.44794 43.584 8.44794C50.048 8.44794 54.848 9.69594 57.984 12.1919C61.12 14.6239 62.688 17.8879 62.688 21.9839C62.688 26.2719 61.184 30.0799 58.176 33.4079C55.232 36.6719 51.104 39.2639 45.792 41.1839C40.544 43.1039 34.432 44.0639 27.456 44.0639H23.616ZM74.982 54.5279C78.566 53.3119 81.798 52.1279 84.678 50.9759C87.622 49.7599 89.958 48.4799 91.686 47.1359C93.99 45.2799 95.814 43.0399 97.158 40.4159C98.502 37.7919 99.174 34.9119 99.174 31.7759C99.174 29.9199 99.046 28.7359 98.79 28.2239C98.534 27.7119 98.15 27.4559 97.638 27.4559C96.038 27.4559 94.31 28.1599 92.454 29.5679C90.598 30.9759 88.774 32.9279 86.982 35.4239C85.19 37.8559 83.526 40.6399 81.99 43.7759C80.518 46.9119 79.334 50.2719 78.438 53.8559C77.542 57.3759 77.094 60.8959 77.094 64.4159C77.094 67.6799 77.702 70.0479 78.918 71.5199C80.134 72.9279 81.734 73.6319 83.718 73.6319C86.022 73.6319 88.454 72.9279 91.014 71.5199C93.574 70.1119 96.07 67.6159 98.502 64.0319L100.038 64.7999C98.822 66.9119 97.222 68.9599 95.238 70.9439C93.254 72.9279 91.014 74.5599 88.518 75.8399C86.086 77.0559 83.494 77.6639 80.742 77.6639C78.182 77.6639 75.942 77.1519 74.022 76.1279C72.102 75.1039 70.63 73.5999 69.606 71.6159C68.582 69.5679 68.07 67.0719 68.07 64.1279C68.07 61.3759 68.582 58.3039 69.606 54.9119C70.63 51.4559 72.07 48.0319 73.926 44.6399C75.846 41.1839 78.118 38.0159 80.742 35.1359C83.366 32.2559 86.278 29.9519 89.478 28.2239C92.678 26.4959 96.102 25.6319 99.75 25.6319C101.734 25.6319 103.398 26.1759 104.742 27.2639C106.15 28.2879 106.854 29.8559 106.854 31.9679C106.854 34.5279 106.086 36.9279 104.55 39.1679C103.078 41.3439 101.094 43.3599 98.598 45.2159C96.166 47.0079 93.51 48.6079 90.63 50.0159C87.75 51.4239 84.934 52.6399 82.182 53.6639C79.43 54.6879 76.998 55.5199 74.886 56.1599L74.982 54.5279ZM143.498 68.1599C143.05 69.6319 142.858 71.0079 142.922 72.2879C143.05 73.5039 143.818 74.1119 145.226 74.1119C146.506 74.1119 147.69 73.4079 148.778 71.9999C149.866 70.5279 151.018 67.9679 152.234 64.3199L153.386 60.7679H155.21L153.002 67.7759C152.234 70.3359 151.21 72.3519 149.93 73.8239C148.65 75.2319 147.306 76.2239 145.898 76.7999C144.49 77.3759 143.146 77.6639 141.866 77.6639C138.026 77.6639 136.01 75.8399 135.818 72.1919C135.754 71.1679 135.818 69.9839 136.01 68.6399C136.266 67.2959 136.618 65.8239 137.066 64.2239L150.89 12.2879C151.466 10.1119 151.37 8.51194 150.602 7.48795C149.834 6.46394 147.882 5.95194 144.746 5.95194L145.322 3.93595C148.842 3.87194 151.946 3.51994 154.634 2.87994C157.322 2.17594 159.882 1.21594 162.314 -5.53131e-05L143.498 68.1599ZM121.994 74.5919C123.594 74.5919 125.386 73.6639 127.37 71.8079C129.418 69.8879 131.466 67.3279 133.514 64.1279C135.626 60.8639 137.546 57.1839 139.274 53.0879C141.066 48.9279 142.474 44.6399 143.498 40.2239L142.058 50.5919C139.562 57.1839 137.066 62.4639 134.57 66.4319C132.138 70.3999 129.642 73.2799 127.082 75.0719C124.586 76.7999 121.962 77.6639 119.21 77.6639C117.226 77.6639 115.466 77.2159 113.93 76.3199C112.458 75.3599 111.306 73.9519 110.474 72.0959C109.642 70.2399 109.226 67.8719 109.226 64.9919C109.226 61.9199 109.706 58.6239 110.666 55.1039C111.69 51.5199 113.13 47.9999 114.986 44.5439C116.842 41.0879 119.05 37.9519 121.61 35.1359C124.234 32.2559 127.114 29.9519 130.25 28.2239C133.386 26.4959 136.714 25.6319 140.234 25.6319C141.706 25.6319 143.082 26.2079 144.362 27.3599C145.642 28.4479 146.346 30.1119 146.474 32.3519L145.706 34.2719C145.45 31.9679 144.81 30.3359 143.786 29.3759C142.762 28.3519 141.61 27.8399 140.33 27.8399C137.898 27.8399 135.53 28.6719 133.226 30.3359C130.986 31.9999 128.938 34.2079 127.082 36.9599C125.226 39.7119 123.594 42.7839 122.186 46.1759C120.778 49.5039 119.69 52.9279 118.922 56.4479C118.154 59.9039 117.77 63.1679 117.77 66.2399C117.77 69.0559 118.122 71.1679 118.826 72.5759C119.53 73.9199 120.586 74.5919 121.994 74.5919ZM168.169 54.5279C171.753 53.3119 174.985 52.1279 177.865 50.9759C180.809 49.7599 183.145 48.4799 184.873 47.1359C187.177 45.2799 189.001 43.0399 190.345 40.4159C191.689 37.7919 192.361 34.9119 192.361 31.7759C192.361 29.9199 192.233 28.7359 191.977 28.2239C191.721 27.7119 191.337 27.4559 190.825 27.4559C189.225 27.4559 187.497 28.1599 185.641 29.5679C183.785 30.9759 181.961 32.9279 180.169 35.4239C178.377 37.8559 176.713 40.6399 175.177 43.7759C173.705 46.9119 172.521 50.2719 171.625 53.8559C170.729 57.3759 170.281 60.8959 170.281 64.4159C170.281 67.6799 170.889 70.0479 172.105 71.5199C173.321 72.9279 174.921 73.6319 176.905 73.6319C179.209 73.6319 181.641 72.9279 184.201 71.5199C186.761 70.1119 189.257 67.6159 191.689 64.0319L193.225 64.7999C192.009 66.9119 190.409 68.9599 188.425 70.9439C186.441 72.9279 184.201 74.5599 181.705 75.8399C179.273 77.0559 176.681 77.6639 173.929 77.6639C171.369 77.6639 169.129 77.1519 167.209 76.1279C165.289 75.1039 163.817 73.5999 162.793 71.6159C161.769 69.5679 161.257 67.0719 161.257 64.1279C161.257 61.3759 161.769 58.3039 162.793 54.9119C163.817 51.4559 165.257 48.0319 167.113 44.6399C169.033 41.1839 171.305 38.0159 173.929 35.1359C176.553 32.2559 179.465 29.9519 182.665 28.2239C185.865 26.4959 189.289 25.6319 192.937 25.6319C194.921 25.6319 196.585 26.1759 197.929 27.2639C199.337 28.2879 200.041 29.8559 200.041 31.9679C200.041 34.5279 199.273 36.9279 197.737 39.1679C196.265 41.3439 194.281 43.3599 191.785 45.2159C189.353 47.0079 186.697 48.6079 183.817 50.0159C180.937 51.4239 178.121 52.6399 175.369 53.6639C172.617 54.6879 170.185 55.5199 168.073 56.1599L168.169 54.5279ZM207.694 28.8959L208.27 26.9759H236.59L236.014 28.8959H207.694ZM238.606 2.68794C237.39 2.68794 236.334 2.94394 235.438 3.45594C234.542 3.96794 233.742 4.54394 233.038 5.18394C231.886 6.27194 230.862 7.93594 229.966 10.1759C229.134 12.3519 228.334 14.8799 227.566 17.7599C226.862 20.6399 226.094 23.6799 225.262 26.8799L207.502 93.0239C205.966 93.0879 204.462 93.2159 202.99 93.4079C201.518 93.5999 200.142 93.9199 198.862 94.3679L216.91 26.8799C218.254 21.7599 219.662 17.5359 221.134 14.2079C222.67 10.8799 224.526 8.15994 226.702 6.04794C228.174 4.57594 229.966 3.42394 232.078 2.59195C234.254 1.69594 236.462 1.24794 238.702 1.24794C241.646 1.24794 243.886 1.91994 245.422 3.26394C247.022 4.54394 247.822 6.14394 247.822 8.06394C247.822 9.15195 247.534 10.2079 246.958 11.2319C246.382 12.2559 245.614 13.0879 244.654 13.7279C243.694 14.3679 242.606 14.6879 241.39 14.6879C240.174 14.6879 239.214 14.3999 238.51 13.8239C237.806 13.2479 237.486 12.4479 237.55 11.4239C237.55 9.82394 238.062 8.47994 239.086 7.39194C240.11 6.23994 241.422 5.43994 243.022 4.99194C243.022 4.41594 242.606 3.90394 241.774 3.45594C240.942 2.94394 239.886 2.68794 238.606 2.68794ZM250.249 9.50394C250.569 7.83994 251.401 6.39994 252.745 5.18394C254.153 3.96794 255.657 3.35994 257.257 3.35994C258.921 3.35994 260.201 3.96794 261.097 5.18394C262.057 6.39994 262.377 7.83994 262.057 9.50394C261.737 11.1679 260.873 12.6079 259.465 13.8239C258.121 15.0399 256.617 15.6479 254.953 15.6479C253.353 15.6479 252.073 15.0399 251.113 13.8239C250.217 12.6079 249.929 11.1679 250.249 9.50394ZM247.273 35.1359C248.617 31.1679 248.169 29.1839 245.929 29.1839C244.457 29.1839 243.145 29.9839 241.993 31.5839C240.841 33.1839 239.625 35.6479 238.345 38.9759L237.001 42.5279H235.177L237.673 35.5199C238.633 32.8319 239.785 30.7839 241.129 29.3759C242.473 27.9679 243.881 27.0079 245.353 26.4959C246.889 25.9199 248.297 25.6319 249.577 25.6319C251.625 25.6319 253.129 26.0479 254.089 26.8799C255.049 27.7119 255.625 28.7999 255.817 30.1439C256.009 31.4879 255.945 32.9599 255.625 34.5599C255.305 36.0959 254.889 37.5999 254.377 39.0719L244.105 68.1599C243.465 70.0159 243.241 71.4879 243.433 72.5759C243.689 73.5999 244.425 74.1119 245.641 74.1119C246.921 74.1119 248.137 73.4079 249.289 71.9999C250.441 70.5919 251.721 68.0319 253.129 64.3199L254.473 60.7679H256.297L253.801 67.7759C252.905 70.2719 251.817 72.2559 250.537 73.7279C249.257 75.1359 247.881 76.1279 246.409 76.7039C244.937 77.3439 243.465 77.6639 241.993 77.6639C239.241 77.6639 237.385 77.0239 236.425 75.7439C235.465 74.4639 235.113 72.7999 235.369 70.7519C235.625 68.7039 236.169 66.5279 237.001 64.2239L247.273 35.1359ZM272.786 76.3199H264.434L275.954 35.1359C276.21 34.3679 276.402 33.5359 276.53 32.6399C276.722 31.6799 276.69 30.8799 276.434 30.2399C276.178 29.5359 275.538 29.1839 274.514 29.1839C273.106 29.1839 271.858 29.8879 270.77 31.2959C269.682 32.6399 268.466 35.1999 267.122 38.9759L265.874 42.5279H264.05L266.45 35.5199C267.858 31.4879 269.586 28.8319 271.634 27.5519C273.746 26.2719 275.826 25.6319 277.874 25.6319C279.794 25.6319 281.17 26.0479 282.002 26.8799C282.898 27.7119 283.378 28.7999 283.442 30.1439C283.57 31.4239 283.474 32.8639 283.154 34.4639C282.898 35.9999 282.578 37.5359 282.194 39.0719L272.786 76.3199ZM277.202 56.3519C279.442 50.5919 281.618 45.7599 283.73 41.8559C285.842 37.9519 287.922 34.8159 289.97 32.4479C292.018 30.0159 294.098 28.2879 296.21 27.2639C298.386 26.1759 300.626 25.6319 302.93 25.6319C305.938 25.6319 307.986 26.3679 309.074 27.8399C310.226 29.2479 310.738 31.0719 310.61 33.3119C310.482 35.4879 310.034 37.7599 309.266 40.1279L299.954 68.1599C299.378 69.8879 299.122 71.3279 299.186 72.4799C299.314 73.5679 300.082 74.1119 301.49 74.1119C302.706 74.1119 303.89 73.4399 305.042 72.0959C306.258 70.7519 307.538 68.1599 308.882 64.3199L310.13 60.7679H311.954L309.554 67.7759C308.658 70.4639 307.538 72.5119 306.194 73.9199C304.914 75.3279 303.538 76.2879 302.066 76.7999C300.658 77.3759 299.282 77.6639 297.938 77.6639C296.402 77.6639 295.122 77.4079 294.098 76.8959C293.138 76.3839 292.402 75.7119 291.89 74.8799C291.186 73.7279 290.962 72.2239 291.218 70.3679C291.474 68.5119 291.986 66.4639 292.754 64.2239L301.874 36.7679C302.194 35.8719 302.45 34.8159 302.642 33.5999C302.898 32.3199 302.866 31.1999 302.546 30.2399C302.226 29.2159 301.298 28.7039 299.762 28.7039C298.226 28.7039 296.594 29.3759 294.866 30.7199C293.138 32.0639 291.346 33.9839 289.49 36.4799C287.634 38.9119 285.81 41.8559 284.018 45.3119C282.226 48.7039 280.498 52.4799 278.834 56.6399C277.234 60.7359 275.762 65.1199 274.418 69.7919L277.202 56.3519ZM324.826 54.5279C328.41 53.3119 331.642 52.1279 334.522 50.9759C337.466 49.7599 339.802 48.4799 341.53 47.1359C343.834 45.2799 345.658 43.0399 347.002 40.4159C348.346 37.7919 349.018 34.9119 349.018 31.7759C349.018 29.9199 348.89 28.7359 348.634 28.2239C348.378 27.7119 347.994 27.4559 347.482 27.4559C345.882 27.4559 344.154 28.1599 342.298 29.5679C340.442 30.9759 338.618 32.9279 336.826 35.4239C335.034 37.8559 333.37 40.6399 331.834 43.7759C330.362 46.9119 329.178 50.2719 328.282 53.8559C327.386 57.3759 326.938 60.8959 326.938 64.4159C326.938 67.6799 327.546 70.0479 328.762 71.5199C329.978 72.9279 331.578 73.6319 333.562 73.6319C335.866 73.6319 338.298 72.9279 340.858 71.5199C343.418 70.1119 345.914 67.6159 348.346 64.0319L349.882 64.7999C348.666 66.9119 347.066 68.9599 345.082 70.9439C343.098 72.9279 340.858 74.5599 338.362 75.8399C335.93 77.0559 333.338 77.6639 330.586 77.6639C328.026 77.6639 325.786 77.1519 323.866 76.1279C321.946 75.1039 320.474 73.5999 319.45 71.6159C318.426 69.5679 317.914 67.0719 317.914 64.1279C317.914 61.3759 318.426 58.3039 319.45 54.9119C320.474 51.4559 321.914 48.0319 323.77 44.6399C325.69 41.1839 327.962 38.0159 330.586 35.1359C333.21 32.2559 336.122 29.9519 339.322 28.2239C342.522 26.4959 345.946 25.6319 349.594 25.6319C351.578 25.6319 353.242 26.1759 354.586 27.2639C355.994 28.2879 356.698 29.8559 356.698 31.9679C356.698 34.5279 355.93 36.9279 354.394 39.1679C352.922 41.3439 350.938 43.3599 348.442 45.2159C346.01 47.0079 343.354 48.6079 340.474 50.0159C337.594 51.4239 334.778 52.6399 332.026 53.6639C329.274 54.6879 326.842 55.5199 324.73 56.1599L324.826 54.5279Z" fill="#FAFAFA"/>
</svg>
