<svg width="36" height="32" viewBox="0 0 36 32" fill="none" xmlns="http://www.w3.org/2000/svg">
<g clip-path="url(#clip0_4523_69302)">
<path d="M26.3797 10.311H28.6197V11.1132C28.6197 11.1772 28.651 11.207 28.7122 11.2056C30.0405 11.1658 31.3788 11.2085 32.0644 12.5709C32.4725 13.3788 32.3886 14.6076 32.3659 15.5718C32.3644 15.6287 32.3915 15.66 32.4455 15.6657C32.602 15.6799 32.7541 15.6941 32.902 15.7126C35.5431 16.0298 35.0212 18.5201 35.0297 20.4771C35.034 21.1597 34.9572 21.6589 34.8021 21.9775C34.475 22.6374 33.8891 23.0157 33.0443 23.1096H31.3973L30.5554 21.1555C30.5512 21.1459 30.5493 21.1355 30.5501 21.1251C30.5508 21.1147 30.5541 21.1046 30.5596 21.0957C30.5651 21.0871 30.5727 21.08 30.5816 21.075C30.5906 21.07 30.6006 21.0674 30.6108 21.0673L32.3972 21.0659C32.4967 21.0659 32.5906 21.0232 32.6588 20.9493C32.7279 20.8747 32.7656 20.7764 32.7641 20.6748C32.7556 20.0774 32.7513 19.4815 32.7541 18.8856C32.7541 18.3494 32.501 18.0749 31.9904 18.0607C31.413 18.0465 30.3193 18.0465 28.7079 18.0636C28.651 18.0636 28.6226 18.0949 28.6226 18.156L28.614 23.1096H26.3769L26.3698 18.1347C26.3702 18.123 26.3682 18.1113 26.364 18.1004C26.3599 18.0895 26.3535 18.0795 26.3455 18.071C26.3374 18.0625 26.3277 18.0557 26.317 18.051C26.3063 18.0464 26.2947 18.0438 26.283 18.0437H24.1924C24.1664 18.0429 24.1418 18.0321 24.1238 18.0135C24.1057 17.9949 24.0956 17.97 24.0956 17.9441L24.0985 15.7795C24.0985 15.7069 24.1326 15.67 24.2009 15.67L26.2674 15.6742C26.2807 15.6741 26.2939 15.6713 26.3062 15.6659C26.3184 15.6605 26.3294 15.6527 26.3385 15.6429C26.357 15.6228 26.3671 15.5964 26.3669 15.569V13.6973C26.3677 13.6648 26.3556 13.6332 26.3332 13.6095C26.3108 13.5858 26.28 13.5719 26.2475 13.5708L24.9717 13.5765C24.9049 13.5765 24.8722 13.5409 24.8722 13.4712L24.8679 11.2952C24.8679 11.2312 24.8964 11.1999 24.9604 11.1999H26.2816C26.3385 11.1999 26.3669 11.1715 26.3669 11.1103L26.3811 10.311H26.3797ZM28.6994 15.6771L30.0889 15.6742C30.1116 15.6742 30.133 15.6643 30.1486 15.6472C30.1645 15.6303 30.1731 15.6078 30.1728 15.5846L30.1657 13.8453C30.1657 13.7087 30.0661 13.5978 29.9452 13.5978L28.8302 13.6006C28.8004 13.6011 28.771 13.6079 28.744 13.6207C28.717 13.6334 28.6931 13.6518 28.6738 13.6746C28.6314 13.724 28.6086 13.7873 28.6098 13.8524L28.6169 15.5917C28.6169 15.6401 28.6553 15.6771 28.6994 15.6771ZM14.3264 15.8335C13.786 15.8435 12.8089 15.9942 12.5955 15.2988C12.4661 14.8835 12.7591 14.3046 12.9369 13.8993C13.4432 12.7459 13.9396 11.5882 14.4274 10.4262C14.4473 10.3793 14.4814 10.3551 14.5298 10.3551H16.6674C16.6859 10.3551 16.7015 10.3651 16.71 10.3807C16.7149 10.3882 16.718 10.3967 16.719 10.4056C16.72 10.4145 16.7189 10.4235 16.7157 10.4319L15.4784 13.3233C15.45 13.3901 15.4571 13.4655 15.494 13.5281C15.5119 13.5574 15.537 13.5817 15.5668 13.5986C15.5967 13.6155 15.6304 13.6245 15.6647 13.6248H17.4965C17.5193 13.6248 17.5392 13.6362 17.552 13.6547C17.5634 13.6746 17.5662 13.6973 17.5563 13.7187C17.0272 14.9517 16.4996 16.1763 15.9733 17.3923C15.9207 17.5132 15.898 17.6028 15.9065 17.6597C15.925 17.7834 15.9947 17.846 16.1141 17.8474L17.2732 17.8545C17.3401 17.8559 17.3614 17.8886 17.3344 17.9541L16.5849 19.7176C16.5745 19.7468 16.5551 19.772 16.5296 19.7896C16.5041 19.8072 16.4737 19.8164 16.4427 19.8157C15.2651 19.83 14.4416 19.83 13.9723 19.8086C13.1957 19.7731 13.0052 19.0933 13.3067 18.3921L14.3719 15.9061C14.375 15.8982 14.3762 15.8898 14.3755 15.8814C14.3748 15.873 14.3721 15.8649 14.3676 15.8577C14.3633 15.8502 14.3571 15.8441 14.3496 15.8398C14.3421 15.8356 14.3336 15.8334 14.325 15.8335H14.3264ZM5.44462 23.1096H4.60551L3.78346 21.1797C3.77937 21.1703 3.77762 21.1601 3.77837 21.15C3.77911 21.1398 3.78232 21.13 3.78773 21.1213C3.79264 21.1128 3.79968 21.1057 3.80815 21.1007C3.81663 21.0958 3.82625 21.0931 3.83608 21.0929L4.99662 21.0901C5.03229 21.0893 5.06747 21.0816 5.10015 21.0672C5.13282 21.0529 5.16235 21.0322 5.18705 21.0065C5.21175 20.9807 5.23113 20.9504 5.24409 20.9171C5.25705 20.8839 5.26333 20.8484 5.26257 20.8127L5.29386 10.577C5.29348 10.5638 5.29573 10.5507 5.30048 10.5383C5.30522 10.526 5.31237 10.5148 5.3215 10.5053C5.33063 10.4957 5.34156 10.4881 5.35367 10.4828C5.36577 10.4776 5.3788 10.4748 5.39199 10.4746H7.38879C7.48266 10.4746 7.52959 10.5244 7.53102 10.6225C7.53955 14.0885 7.53955 17.4947 7.53102 20.8426C7.52533 22.2165 6.88817 23.1551 5.44462 23.1096Z" fill="#AAB3B2"/>
<path d="M24.1753 23.1097H16.6006L17.616 20.82C17.6262 20.7934 17.6444 20.7708 17.6681 20.7552C17.6919 20.7396 17.7199 20.7319 17.7483 20.7332L19.6029 20.7361C19.6683 20.7361 19.7024 20.7033 19.7024 20.6365V13.6889C19.7024 13.6292 19.674 13.5993 19.6171 13.5993L18.3869 13.5979C18.3314 13.5979 18.2873 13.5496 18.2873 13.4913V11.2626C18.2873 11.2285 18.3129 11.2001 18.3456 11.2001H23.3604C23.423 11.2001 23.4528 11.2328 23.4528 11.2982L23.4557 13.5026C23.4557 13.5666 23.4244 13.5993 23.3618 13.5993H22.1216C22.0647 13.5993 22.0363 13.6292 22.0363 13.6889V20.6322C22.0363 20.6991 22.069 20.7318 22.1316 20.7318L24.0971 20.7361C24.1511 20.7361 24.1782 20.7645 24.1782 20.8214L24.1753 23.1112V23.1097ZM33.1965 11.4162C34.7438 10.3524 35.8333 13.0646 34.138 13.5297C33.8621 13.6065 33.4226 13.6107 32.821 13.5439C32.767 13.5382 32.7414 13.5083 32.7414 13.4514C32.7328 12.8114 32.6062 11.8216 33.1965 11.4177V11.4162ZM11.8361 19.3906L10.8121 21.7757C10.7197 21.989 10.6187 21.9933 10.5063 21.7928C9.75255 20.4303 9.49655 19.3181 9.34864 17.6242C9.23486 16.3087 9.13673 14.9931 9.0514 13.6747C9.04855 13.615 9.07557 13.5851 9.13246 13.5851L11.2075 13.5865C11.2658 13.5865 11.2985 13.6178 11.3028 13.6776C11.4094 15.2107 11.5218 16.7396 11.6384 18.2642C11.6683 18.6568 11.7351 18.9825 11.8375 19.2413C11.8477 19.2649 11.8528 19.2904 11.8526 19.3161C11.8523 19.3418 11.8467 19.3672 11.8361 19.3906ZM0.93335 19.3025V19.2043C1.03085 19.0719 1.09434 18.9176 1.11824 18.7549C1.27184 17.0625 1.39699 15.3714 1.49513 13.679C1.49939 13.6264 1.52499 13.5993 1.57477 13.5993H3.69388C3.71237 13.5993 3.73086 13.6079 3.74508 13.6235C3.75788 13.6377 3.76499 13.6577 3.76357 13.6776C3.65184 15.2369 3.52715 16.7952 3.38953 18.3524C3.28997 19.4831 2.92873 20.9963 2.17353 21.9137C2.12517 21.972 2.08393 21.9663 2.05264 21.8952L0.93335 19.3025ZM15.386 23.1097H12.3168L11.9257 22.9547C11.8702 22.9334 11.8546 22.895 11.8802 22.8395L12.843 20.6351C12.8715 20.5711 12.917 20.5469 12.9824 20.564C14.0349 20.8498 15.2537 20.7318 16.3303 20.7361C16.3972 20.7375 16.4157 20.7702 16.3872 20.8328L15.386 23.1083V23.1097Z" fill="#AAB3B2"/>
</g>
<defs>
<clipPath id="clip0_4523_69302">
<rect width="36" height="32" fill="white"/>
</clipPath>
</defs>
</svg>
