<svg width="476" height="73" viewBox="0 0 476 73" fill="none" xmlns="http://www.w3.org/2000/svg">
<path d="M41.3761 56.0638C40.4161 61.1838 38.3681 65.1198 35.2321 67.8718C31.7121 70.9438 27.1361 72.4798 21.5041 72.4798C15.2961 72.4798 10.2401 70.7838 6.33606 67.3918C2.49606 63.9358 0.384056 59.4558 5.57005e-05 53.9518L6.81606 50.2078C7.13606 53.4078 7.96806 56.1598 9.31206 58.4638C10.7201 60.7038 12.4801 62.3998 14.5921 63.5518C16.7041 64.7038 19.0721 65.2798 21.6961 65.2798C23.6161 65.2798 25.3121 64.9598 26.7841 64.3198C28.2561 63.6798 29.5041 62.7518 30.5281 61.5358C31.8721 59.9358 32.7361 57.8878 33.1201 55.3918C33.5681 52.7038 33.3441 50.3678 32.4481 48.3838C31.5521 46.3998 30.3041 44.7358 28.7041 43.3918C27.1041 41.9838 24.8641 40.2878 21.9841 38.3038C18.7201 36.0638 16.1281 34.0798 14.2081 32.3518C12.2881 30.5598 10.7841 28.3198 9.69606 25.6318C8.60806 22.8798 8.38406 19.6158 9.02406 15.8398C9.98406 10.5918 12.4161 6.55983 16.3201 3.74382C19.9041 1.24783 24.2241 -0.000173569 29.2801 -0.000173569C32.8001 -0.000173569 35.8721 0.671825 38.4961 2.01582C41.1201 3.29583 43.1361 5.11983 44.5441 7.48783C46.0161 9.79182 46.8161 12.4798 46.9441 15.5518L40.2241 19.1998C39.7121 15.3598 38.5601 12.4158 36.7681 10.3678C34.9761 8.25583 32.3521 7.19983 28.8961 7.19983C25.8881 7.19983 23.2961 8.03183 21.1201 9.69583C19.1361 11.3598 17.9201 13.5998 17.4721 16.4158C17.0241 18.8478 17.2161 20.9918 18.0481 22.8478C18.9441 24.6398 20.1601 26.2078 21.6961 27.5518C23.2321 28.8318 25.3761 30.3678 28.1281 32.1598C31.5201 34.3358 34.2081 36.3518 36.1921 38.2078C38.1761 40.0638 39.7121 42.4638 40.8001 45.4078C41.9521 48.2878 42.1441 51.8398 41.3761 56.0638ZM66.4816 65.2798C68.7856 65.2798 70.8656 64.7038 72.7216 63.5518C74.5776 62.3358 76.2736 60.3838 77.8096 57.6958L83.2816 61.6318C81.4256 65.2798 78.8976 67.9998 75.6976 69.7918C72.5616 71.5838 69.2016 72.4798 65.6176 72.4798C61.5856 72.4798 58.1296 71.4238 55.2496 69.3118C52.3696 67.1358 50.3536 63.9998 49.2016 59.9038C48.0496 55.7438 47.9856 50.7838 49.0096 45.0238C49.9696 39.3918 51.6656 34.7518 54.0976 31.1038C56.5296 27.3918 59.3776 24.7038 62.6416 23.0398C65.9056 21.3118 69.2976 20.4478 72.8176 20.4478C76.9776 20.4478 80.2736 21.5998 82.7056 23.9038C85.1376 26.1438 86.3536 29.3118 86.3536 33.4078C86.3536 39.2318 83.8896 43.3278 78.9616 45.6958C74.0976 48.0638 66.7056 48.9278 56.7856 48.2878C56.2096 54.1758 56.7856 58.4958 58.5136 61.2478C60.3056 63.9358 62.9616 65.2798 66.4816 65.2798ZM71.5696 27.5518C68.4976 27.5518 65.7456 28.6398 63.3136 30.8158C60.8816 32.9278 59.0576 36.5758 57.8416 41.7598C64.7536 42.3358 69.8736 42.0478 73.2016 40.8958C76.5936 39.7438 78.2896 37.3758 78.2896 33.7918C78.2896 31.7438 77.7456 30.2078 76.6576 29.1838C75.5696 28.0958 73.8736 27.5518 71.5696 27.5518ZM108.013 65.2798C110.317 65.2798 112.397 64.7038 114.253 63.5518C116.109 62.3358 117.805 60.3838 119.341 57.6958L124.813 61.6318C122.957 65.2798 120.429 67.9998 117.229 69.7918C114.093 71.5838 110.733 72.4798 107.149 72.4798C103.117 72.4798 99.6608 71.4238 96.7808 69.3118C93.9008 67.1358 91.8848 63.9998 90.7328 59.9038C89.5808 55.7438 89.5168 50.7838 90.5408 45.0238C91.5008 39.3918 93.1968 34.7518 95.6288 31.1038C98.0608 27.3918 100.909 24.7038 104.173 23.0398C107.437 21.3118 110.829 20.4478 114.349 20.4478C118.509 20.4478 121.805 21.5998 124.237 23.9038C126.669 26.1438 127.885 29.3118 127.885 33.4078C127.885 39.2318 125.421 43.3278 120.493 45.6958C115.629 48.0638 108.237 48.9278 98.3168 48.2878C97.7408 54.1758 98.3168 58.4958 100.045 61.2478C101.837 63.9358 104.493 65.2798 108.013 65.2798ZM113.101 27.5518C110.029 27.5518 107.277 28.6398 104.845 30.8158C102.413 32.9278 100.589 36.5758 99.3728 41.7598C106.285 42.3358 111.405 42.0478 114.733 40.8958C118.125 39.7438 119.821 37.3758 119.821 33.7918C119.821 31.7438 119.277 30.2078 118.189 29.1838C117.101 28.0958 115.405 27.5518 113.101 27.5518ZM196.027 1.15182H205.147L178.267 41.9518L172.987 71.4238H165.019L170.299 41.4718L156.763 1.15182H165.787L175.771 33.0238L196.027 1.15182ZM193.394 45.0238C194.866 36.6398 197.682 30.4638 201.842 26.4958C206.002 22.4638 210.866 20.4478 216.434 20.4478C220.594 20.4478 224.05 21.5358 226.802 23.7118C229.554 25.8238 231.442 28.9598 232.466 33.1198C233.49 37.2798 233.49 42.3038 232.466 48.1918C230.994 56.5118 228.146 62.6558 223.922 66.6238C219.698 70.5278 214.834 72.4798 209.33 72.4798C205.234 72.4798 201.81 71.4238 199.058 69.3118C196.306 67.1358 194.418 63.9998 193.394 59.9038C192.37 55.7438 192.37 50.7838 193.394 45.0238ZM201.266 45.7918C200.498 50.1438 200.402 53.7918 200.978 56.7358C201.554 59.6158 202.642 61.7918 204.242 63.2638C205.842 64.6718 207.826 65.3758 210.194 65.3758C213.458 65.3758 216.402 63.9358 219.026 61.0558C221.65 58.1758 223.506 53.6318 224.594 47.4238C225.362 42.9438 225.49 39.2318 224.978 36.2878C224.466 33.2798 223.41 31.0718 221.81 29.6638C220.274 28.1918 218.29 27.4558 215.858 27.4558C212.594 27.4558 209.618 28.8958 206.93 31.7758C204.306 34.5918 202.418 39.2638 201.266 45.7918ZM252.36 72.4798C247.816 72.4798 244.424 70.7198 242.184 67.1998C240.008 63.6798 239.528 58.5278 240.744 51.7438L246.12 21.5038H253.704L248.52 50.8798C247.624 55.7438 247.72 59.3918 248.808 61.8238C249.896 64.1918 251.976 65.3758 255.048 65.3758C258.12 65.3758 260.936 64.2238 263.496 61.9198C266.056 59.6158 267.752 56.1278 268.584 51.4558L273.96 21.5038H281.544L272.712 71.4238H265.992C266.12 70.9758 266.216 70.4958 266.28 69.9838C266.344 69.4718 266.408 68.8958 266.472 68.2558C266.6 67.4878 266.728 66.2718 266.856 64.6078C265 67.2318 262.792 69.2158 260.232 70.5598C257.736 71.8398 255.112 72.4798 252.36 72.4798ZM315.578 72.4798C311.418 72.4798 308.122 71.4878 305.69 69.5038C303.258 67.5198 301.786 64.4478 301.274 60.2878L308.474 56.3518C308.922 59.5518 309.69 61.8558 310.778 63.2638C311.866 64.6078 313.466 65.2798 315.578 65.2798C318.458 65.2798 320.634 64.1278 322.106 61.8238C323.642 59.5198 324.826 56.0638 325.658 51.4558L334.586 1.15182H342.65L333.626 52.3198C332.41 59.0398 330.49 64.0958 327.866 67.4878C325.242 70.8158 321.146 72.4798 315.578 72.4798ZM356.891 72.4798C352.347 72.4798 348.955 70.7198 346.715 67.1998C344.539 63.6798 344.059 58.5278 345.275 51.7438L350.651 21.5038H358.235L353.051 50.8798C352.155 55.7438 352.251 59.3918 353.339 61.8238C354.427 64.1918 356.507 65.3758 359.579 65.3758C362.651 65.3758 365.467 64.2238 368.027 61.9198C370.587 59.6158 372.283 56.1278 373.115 51.4558L378.491 21.5038H386.075L377.243 71.4238H370.523C370.651 70.9758 370.747 70.4958 370.811 69.9838C370.875 69.4718 370.939 68.8958 371.003 68.2558C371.131 67.4878 371.259 66.2718 371.387 64.6078C369.531 67.2318 367.323 69.2158 364.763 70.5598C362.267 71.8398 359.643 72.4798 356.891 72.4798ZM418.363 20.4478C422.907 20.4478 426.267 22.2078 428.443 25.7278C430.683 29.2478 431.195 34.3998 429.979 41.1838L424.603 71.4238H417.019L422.203 42.0478C423.099 37.1838 423.003 33.5678 421.915 31.1998C420.827 28.7678 418.747 27.5518 415.675 27.5518C412.603 27.5518 409.787 28.7038 407.227 31.0078C404.667 33.3118 402.971 36.7998 402.139 41.4718L396.763 71.4238H389.179L398.011 21.5038H404.731C404.731 21.6958 404.571 22.7518 404.251 24.6718L403.867 28.3198C405.723 25.6958 407.899 23.7438 410.395 22.4638C412.955 21.1198 415.611 20.4478 418.363 20.4478ZM455.45 65.2798C457.754 65.2798 459.834 64.7038 461.69 63.5518C463.546 62.3358 465.242 60.3838 466.778 57.6958L472.25 61.6318C470.394 65.2798 467.866 67.9998 464.666 69.7918C461.53 71.5838 458.17 72.4798 454.586 72.4798C450.554 72.4798 447.098 71.4238 444.218 69.3118C441.338 67.1358 439.322 63.9998 438.17 59.9038C437.018 55.7438 436.954 50.7838 437.978 45.0238C438.938 39.3918 440.634 34.7518 443.066 31.1038C445.498 27.3918 448.346 24.7038 451.61 23.0398C454.874 21.3118 458.266 20.4478 461.786 20.4478C465.946 20.4478 469.242 21.5998 471.674 23.9038C474.106 26.1438 475.322 29.3118 475.322 33.4078C475.322 39.2318 472.858 43.3278 467.93 45.6958C463.066 48.0638 455.674 48.9278 445.754 48.2878C445.178 54.1758 445.754 58.4958 447.482 61.2478C449.274 63.9358 451.93 65.2798 455.45 65.2798ZM460.538 27.5518C457.466 27.5518 454.714 28.6398 452.282 30.8158C449.85 32.9278 448.026 36.5758 446.81 41.7598C453.722 42.3358 458.842 42.0478 462.17 40.8958C465.562 39.7438 467.258 37.3758 467.258 33.7918C467.258 31.7438 466.714 30.2078 465.626 29.1838C464.538 28.0958 462.842 27.5518 460.538 27.5518Z" fill="#FAFAFA"/>
</svg>
