<svg width="106" height="40" viewBox="0 0 106 40" fill="none" xmlns="http://www.w3.org/2000/svg">
<path d="M48.1741 12.2793C43.4879 12.3496 39.6687 16.2391 39.7155 20.9487C39.7389 23.7136 41.0745 26.1738 43.1364 27.7203C43.4176 27.9311 43.7925 27.9311 44.0737 27.7437C45.2921 26.9705 46.7214 26.5019 48.2912 26.5019C49.8611 26.5019 51.2904 26.947 52.5088 27.7437C52.79 27.9311 53.1649 27.9311 53.4461 27.7203C55.5314 26.1504 56.867 23.6667 56.867 20.855C56.867 16.0751 52.954 12.209 48.1741 12.2793ZM48.5021 24.1353C46.2293 24.2525 44.3548 22.378 44.472 20.1052C44.5657 18.1604 46.159 16.5671 48.1038 16.4734C50.3766 16.3562 52.2511 18.2307 52.1339 20.5035C52.0402 22.4483 50.4469 24.0416 48.5021 24.1353Z" fill="#515857"/>
<path d="M82.2661 12.373C81.2117 12.373 80.2042 12.6542 79.3138 13.1228L79.2435 12.7713C79.1732 12.4667 78.9155 12.2559 78.6109 12.2559H76.2912C75.9397 12.2559 75.6586 12.537 75.6586 12.8885V27.1111C75.6586 27.4626 75.9397 27.7437 76.2912 27.7437H78.6577C79.0092 27.7437 79.2904 27.4626 79.2904 27.1111V18.9103C79.2904 17.2467 80.6494 15.9111 82.2895 15.9111C83.9297 15.9111 85.2887 17.2701 85.2887 18.9103C85.2887 20.5504 85.2887 18.9337 85.2887 18.9571C85.2887 18.9571 85.2887 18.9805 85.2887 19.004V27.1345C85.2887 27.486 85.5699 27.7672 85.9213 27.7672H88.1941C88.5456 27.7672 88.8268 27.486 88.8268 27.1345V18.9337C88.8268 14.0835 85.8979 12.373 82.1958 12.373H82.2661Z" fill="#515857"/>
<path d="M22.3063 12.8416L18.9088 22.7998L15.2067 12.8182C15.0896 12.4902 14.785 12.2793 14.4335 12.2793H11.6686C11.3172 12.2793 11.0126 12.4902 10.8954 12.8182L7.0996 23.0575L3.60839 12.8416C3.49123 12.5136 3.18663 12.2793 2.83517 12.2793H0.820106C0.257763 12.2793 -0.140564 12.8416 0.0468841 13.3571L4.77994 27.2282C4.89709 27.5563 5.20169 27.7906 5.55316 27.7906H8.31801C8.64605 27.7906 8.95065 27.5797 9.09124 27.2751L13.0511 17.2467L17.0109 27.2751C17.128 27.5797 17.4327 27.7906 17.7841 27.7906H20.385C20.7364 27.7906 21.041 27.5563 21.1582 27.2282L25.8912 13.3571C26.0787 12.8182 25.6804 12.2793 25.118 12.2793H23.1029C22.7515 12.2793 22.4469 12.5136 22.3297 12.8416H22.3063Z" fill="#515857"/>
<path d="M30.9758 12.2793H28.9607C28.5078 12.2793 28.1406 12.6465 28.1406 13.0994V26.9705C28.1406 27.4234 28.5078 27.7906 28.9607 27.7906H30.9758C31.4287 27.7906 31.7959 27.4234 31.7959 26.9705V13.0994C31.7959 12.6465 31.4287 12.2793 30.9758 12.2793Z" fill="#515857"/>
<path d="M72.7531 12.2793H70.7381C70.2851 12.2793 69.918 12.6465 69.918 13.0994V26.9705C69.918 27.4234 70.2851 27.7906 70.7381 27.7906H72.7531C73.206 27.7906 73.5732 27.4234 73.5732 26.9705V13.0994C73.5732 12.6465 73.206 12.2793 72.7531 12.2793Z" fill="#515857"/>
<path d="M61.8109 12.2793H59.7958C59.3429 12.2793 58.9757 12.6465 58.9757 13.0994V26.9705C58.9757 27.4234 59.3429 27.7906 59.7958 27.7906H61.8109C62.2638 27.7906 62.6309 27.4234 62.6309 26.9705V13.0994C62.6309 12.6465 62.2638 12.2793 61.8109 12.2793Z" fill="#515857"/>
<path d="M36.81 6.07031H34.7949C34.342 6.07031 33.9749 6.43748 33.9749 6.8904V26.9473C33.9749 27.4002 34.342 27.7674 34.7949 27.7674H36.81C37.2629 27.7674 37.6301 27.4002 37.6301 26.9473V6.8904C37.6301 6.43748 37.2629 6.07031 36.81 6.07031Z" fill="#515857"/>
<path d="M62.6309 26.9705H58.9757V19.9178C58.9757 15.7002 62.3966 12.3027 66.5908 12.3027H66.9891C67.4343 12.3027 67.8092 12.6776 67.8092 13.1228V15.1379C67.8092 15.5831 67.4343 15.958 66.9891 15.958H66.5908C64.3883 15.958 62.6075 17.7387 62.6075 19.9412V26.9939L62.6309 26.9705Z" fill="#515857"/>
<path d="M29.9682 10.5456C31.2235 10.5456 32.241 9.52804 32.241 8.2728C32.241 7.01757 31.2235 6 29.9682 6C28.713 6 27.6954 7.01757 27.6954 8.2728C27.6954 9.52804 28.713 10.5456 29.9682 10.5456Z" fill="#515857"/>
<path d="M71.7456 10.5456C73.0008 10.5456 74.0184 9.52804 74.0184 8.2728C74.0184 7.01757 73.0008 6 71.7456 6C70.4903 6 69.4728 7.01757 69.4728 8.2728C69.4728 9.52804 70.4903 10.5456 71.7456 10.5456Z" fill="#515857"/>
<path d="M105.135 12.2793H102.885C102.487 12.2793 102.159 12.5605 102.089 12.9354V13.0291C102.042 13.1228 102.018 13.1931 101.972 13.2868C100.894 12.7713 99.769 12.5136 98.574 12.5136C98.5037 12.5136 98.4335 12.5136 98.3397 12.5136C96.3481 12.5605 94.4736 13.3805 93.0443 14.8098C91.6151 16.2391 90.8184 18.137 90.7715 20.1287C90.7247 22.4483 91.6853 24.6508 93.4427 26.1973C94.8719 27.4626 96.7464 28.1421 98.6678 28.1186C99.7925 28.1186 100.894 27.8609 101.901 27.3688L102.018 27.2985L101.948 27.486C101.784 28.3061 101.339 29.0559 100.706 29.5713C100.144 30.0165 98.1289 31.2349 94.8251 29.5245C94.4502 29.3136 93.9581 29.4542 93.7473 29.8291L92.5523 31.7739C92.2945 32.1722 92.4586 32.7111 92.8803 32.922C94.7548 33.8826 96.6293 33.9998 98.1992 33.9998C99.769 33.9998 101.901 33.6249 103.12 32.6642C104.9 31.2818 105.955 29.0793 105.955 26.7831V13.0994C105.955 12.6542 105.58 12.2793 105.135 12.2793ZM98.7615 24.1354C96.4887 24.2525 94.6142 22.378 94.7314 20.1052C94.8251 18.1605 96.4184 16.5672 98.3632 16.4734C100.636 16.3563 102.51 18.2308 102.393 20.5036C102.3 22.4483 100.706 24.0416 98.7615 24.1354Z" fill="#515857"/>
</svg>
