<svg width="144" height="144" viewBox="0 0 144 144" fill="none" xmlns="http://www.w3.org/2000/svg">
<rect width="144" height="144.001" fill="black"/>
<path d="M95.9676 112.326C97.8161 113.491 100.192 113.462 101.94 112.152C114.963 102.396 122.983 86.4917 121.903 69.0364C120.132 40.4232 94.6287 18.9246 65.7391 22.5169C40.6374 25.6381 22.0018 46.7457 21.9998 72.0403C21.9986 88.5868 29.9347 103.002 42.0164 112.069C43.7914 113.401 46.1857 113.488 48.0643 112.306C55.0036 107.941 63.1964 105.391 72.0008 105.391C80.8182 105.391 89.0214 107.949 95.9676 112.326ZM72.0008 92.1712C59.6286 92.171 49.5984 82.1411 49.5984 69.7688C49.5985 57.3966 59.6286 47.3676 72.0008 47.3675C84.3725 47.3675 94.4031 57.3965 94.4031 69.7688C94.4031 82.1412 84.3725 92.1712 72.0008 92.1712Z" fill="white"/>
</svg>
